<?xml version="1.0" encoding="UTF-8"?>
<svg width="4817px" height="3460px" viewBox="0 0 4817 3460" version="1.1" xmlns="http://www.w3.org/2000/svg" xmlns:xlink="http://www.w3.org/1999/xlink">
    <title>Artboard</title>
    <g id="Artboard" stroke="none" stroke-width="1" fill="none" fill-rule="evenodd">
        <g id="Group">
            <rect id="Rectangle" fill="#27272A" transform="translate(3467.5, 1533.5) scale(-1, 1) rotate(180) translate(-3467.5, -1533.5)" x="3390" y="1525" width="155" height="17" rx="6"></rect>
            <rect id="Rectangle-Copy" fill="#27272A" transform="translate(3662.5, 1533.5) scale(-1, 1) rotate(180) translate(-3662.5, -1533.5)" x="3585" y="1525" width="155" height="17" rx="6"></rect>
            <rect id="Rectangle" fill="#27272A" transform="translate(3731.5, 1407.5) scale(-1, 1) rotate(270) translate(-3731.5, -1407.5)" x="3654" y="1399" width="155" height="17" rx="6"></rect>
            <rect id="Rectangle-Copy" fill="#27272A" transform="translate(3731.5, 1212.5) scale(-1, 1) rotate(270) translate(-3731.5, -1212.5)" x="3654" y="1204" width="155" height="17" rx="6"></rect>
            <rect id="Rectangle" fill="#27272A" transform="translate(2687.5, 1533.5) scale(-1, 1) rotate(180) translate(-2687.5, -1533.5)" x="2610" y="1525" width="155" height="17" rx="6"></rect>
            <rect id="Rectangle" fill="#27272A" transform="translate(2618.5, 1659.5) scale(-1, 1) rotate(270) translate(-2618.5, -1659.5)" x="2541" y="1651" width="155" height="17" rx="6"></rect>
            <rect id="Rectangle" fill="#27272A" transform="translate(2618.5, 1854.5) scale(-1, 1) rotate(270) translate(-2618.5, -1854.5)" x="2541" y="1846" width="155" height="17" rx="6"></rect>
            <rect id="Rectangle" fill="#27272A" transform="translate(2618.5, 2049.5) scale(-1, 1) rotate(270) translate(-2618.5, -2049.5)" x="2541" y="2041" width="155" height="17" rx="6"></rect>
            <rect id="Rectangle" fill="#27272A" transform="translate(2618.5, 2244.5) scale(-1, 1) rotate(270) translate(-2618.5, -2244.5)" x="2541" y="2236" width="155" height="17" rx="6"></rect>
            <rect id="Rectangle" fill="#27272A" transform="translate(2618.5, 2439.5) scale(-1, 1) rotate(270) translate(-2618.5, -2439.5)" x="2541" y="2431" width="155" height="17" rx="6"></rect>
            <rect id="Rectangle" fill="#27272A" transform="translate(2492.5, 2508.5) scale(-1, 1) rotate(180) translate(-2492.5, -2508.5)" x="2415" y="2500" width="155" height="17" rx="6"></rect>
            <rect id="Rectangle" fill="#27272A" transform="translate(2297.5, 2508.5) scale(-1, 1) rotate(180) translate(-2297.5, -2508.5)" x="2220" y="2500" width="155" height="17" rx="6"></rect>
            <rect id="Rectangle" fill="#27272A" transform="translate(2102.5, 2508.5) scale(-1, 1) rotate(180) translate(-2102.5, -2508.5)" x="2025" y="2500" width="155" height="17" rx="6"></rect>
            <rect id="Rectangle-Copy" fill="#27272A" transform="translate(2882.5, 1533.5) scale(-1, 1) rotate(180) translate(-2882.5, -1533.5)" x="2805" y="1525" width="155" height="17" rx="6"></rect>
            <rect id="Rectangle" fill="#27272A" transform="translate(3077.5, 1533.5) scale(-1, 1) rotate(180) translate(-3077.5, -1533.5)" x="3000" y="1525" width="155" height="17" rx="6"></rect>
            <rect id="Rectangle-Copy" fill="#27272A" transform="translate(3272.5, 1533.5) scale(-1, 1) rotate(180) translate(-3272.5, -1533.5)" x="3195" y="1525" width="155" height="17" rx="6"></rect>
            <circle id="Oval" fill="#E26701" transform="translate(1939.5, 2508.5) scale(-1, 1) rotate(180) translate(-1939.5, -2508.5)" cx="1939.5" cy="2508.5" r="45.5"></circle>
            <circle id="Oval" stroke="#E26701" stroke-width="10" transform="translate(3731.5, 1049.5) scale(-1, 1) rotate(180) translate(-3731.5, -1049.5)" cx="3731.5" cy="1049.5" r="40.5"></circle>
            <rect id="Rectangle" fill="#27272A" transform="translate(4122, 1602) scale(1, -1) rotate(-90) translate(-4122, -1602)" x="4044.5" y="1593.5" width="155" height="17" rx="6"></rect>
            <rect id="Rectangle-Copy" fill="#27272A" transform="translate(4122, 1797) scale(1, -1) rotate(-90) translate(-4122, -1797)" x="4044.5" y="1788.5" width="155" height="17" rx="6"></rect>
            <rect id="Rectangle" fill="#27272A" transform="translate(4248, 1866) scale(1, -1) translate(-4248, -1866)" x="4170.5" y="1857.5" width="155" height="17" rx="6"></rect>
            <rect id="Rectangle-Copy" fill="#27272A" transform="translate(4443, 1866) scale(1, -1) translate(-4443, -1866)" x="4365.5" y="1857.5" width="155" height="17" rx="6"></rect>
            <rect id="Rectangle" fill="#27272A" transform="translate(4122, 822) scale(1, -1) rotate(-90) translate(-4122, -822)" x="4044.5" y="813.5" width="155" height="17" rx="6"></rect>
            <rect id="Rectangle" fill="#27272A" transform="translate(3996, 753) scale(1, -1) translate(-3996, -753)" x="3918.5" y="744.5" width="155" height="17" rx="6"></rect>
            <rect id="Rectangle" fill="#27272A" transform="translate(3801, 753) scale(1, -1) translate(-3801, -753)" x="3723.5" y="744.5" width="155" height="17" rx="6"></rect>
            <rect id="Rectangle" fill="#27272A" transform="translate(3606, 753) scale(1, -1) translate(-3606, -753)" x="3528.5" y="744.5" width="155" height="17" rx="6"></rect>
            <rect id="Rectangle" fill="#27272A" transform="translate(3411, 753) scale(1, -1) translate(-3411, -753)" x="3333.5" y="744.5" width="155" height="17" rx="6"></rect>
            <rect id="Rectangle" fill="#27272A" transform="translate(3216, 753) scale(1, -1) translate(-3216, -753)" x="3138.5" y="744.5" width="155" height="17" rx="6"></rect>
            <rect id="Rectangle" fill="#27272A" transform="translate(3147, 627) scale(1, -1) rotate(-90) translate(-3147, -627)" x="3069.5" y="618.5" width="155" height="17" rx="6"></rect>
            <rect id="Rectangle" fill="#27272A" transform="translate(3147, 432) scale(1, -1) rotate(-90) translate(-3147, -432)" x="3069.5" y="423.5" width="155" height="17" rx="6"></rect>
            <rect id="Rectangle" fill="#27272A" transform="translate(3147, 237) scale(1, -1) rotate(-90) translate(-3147, -237)" x="3069.5" y="228.5" width="155" height="17" rx="6"></rect>
            <rect id="Rectangle-Copy" fill="#27272A" transform="translate(4122, 1017) scale(1, -1) rotate(-90) translate(-4122, -1017)" x="4044.5" y="1008.5" width="155" height="17" rx="6"></rect>
            <circle id="Oval" stroke="#E26701" stroke-width="10" transform="translate(4606, 1866) scale(1, -1) rotate(-90) translate(-4606, -1866)" cx="4606" cy="1866" r="40.5"></circle>
            <rect id="Rectangle" fill="#27272A" transform="translate(4122, 1212) scale(1, -1) rotate(-90) translate(-4122, -1212)" x="4044.5" y="1203.5" width="155" height="17" rx="6"></rect>
            <rect id="Rectangle-Copy" fill="#27272A" transform="translate(4122, 1407) scale(1, -1) rotate(-90) translate(-4122, -1407)" x="4044.5" y="1398.5" width="155" height="17" rx="6"></rect>
            <circle id="Oval-Copy-3" stroke="#E26701" stroke-width="10" transform="translate(3147, 74) scale(1, -1) rotate(-90) translate(-3147, -74)" cx="3147" cy="74" r="40.5"></circle>
            <rect id="Rectangle" fill="#27272A" transform="translate(3174, 2471) scale(-1, 1) rotate(270) translate(-3174, -2471)" x="3096.5" y="2462.5" width="155" height="17" rx="6"></rect>
            <rect id="Rectangle-Copy" fill="#27272A" transform="translate(3174, 2276) scale(-1, 1) rotate(270) translate(-3174, -2276)" x="3096.5" y="2267.5" width="155" height="17" rx="6"></rect>
            <rect id="Rectangle" fill="#27272A" transform="translate(3174, 3251) scale(-1, 1) rotate(270) translate(-3174, -3251)" x="3096.5" y="3242.5" width="155" height="17" rx="6"></rect>
            <rect id="Rectangle-Copy" fill="#27272A" transform="translate(3174, 3056) scale(-1, 1) rotate(270) translate(-3174, -3056)" x="3096.5" y="3047.5" width="155" height="17" rx="6"></rect>
            <rect id="Rectangle" fill="#27272A" transform="translate(3174, 2861) scale(-1, 1) rotate(270) translate(-3174, -2861)" x="3096.5" y="2852.5" width="155" height="17" rx="6"></rect>
            <rect id="Rectangle-Copy" fill="#27272A" transform="translate(3174, 2666) scale(-1, 1) rotate(270) translate(-3174, -2666)" x="3096.5" y="2657.5" width="155" height="17" rx="6"></rect>
            <rect id="Rectangle" fill="#27272A" transform="translate(1350.5, 2149.5) scale(-1, 1) rotate(360) translate(-1350.5, -2149.5)" x="1273" y="2141" width="155" height="17" rx="6"></rect>
            <rect id="Rectangle" fill="#27272A" transform="translate(1545.5, 2149.5) scale(-1, 1) rotate(360) translate(-1545.5, -2149.5)" x="1468" y="2141" width="155" height="17" rx="6"></rect>
            <rect id="Rectangle" fill="#27272A" transform="translate(1740.5, 2149.5) scale(-1, 1) rotate(360) translate(-1740.5, -2149.5)" x="1663" y="2141" width="155" height="17" rx="6"></rect>
            <rect id="Rectangle" fill="#27272A" transform="translate(1935.5, 2149.5) scale(-1, 1) rotate(360) translate(-1935.5, -2149.5)" x="1858" y="2141" width="155" height="17" rx="6"></rect>
            <rect id="Rectangle" fill="#27272A" transform="translate(2130.5, 2149.5) scale(-1, 1) rotate(360) translate(-2130.5, -2149.5)" x="2053" y="2141" width="155" height="17" rx="6"></rect>
            <rect id="Rectangle" fill="#27272A" transform="translate(2325.5, 2149.5) scale(-1, 1) rotate(360) translate(-2325.5, -2149.5)" x="2248" y="2141" width="155" height="17" rx="6"></rect>
            <rect id="Rectangle" fill="#27272A" transform="translate(2520.5, 2149.5) scale(-1, 1) rotate(360) translate(-2520.5, -2149.5)" x="2443" y="2141" width="155" height="17" rx="6"></rect>
            <rect id="Rectangle" fill="#27272A" transform="translate(2715.5, 2149.5) scale(-1, 1) rotate(360) translate(-2715.5, -2149.5)" x="2638" y="2141" width="155" height="17" rx="6"></rect>
            <rect id="Rectangle" fill="#27272A" transform="translate(2910.5, 2149.5) scale(-1, 1) rotate(360) translate(-2910.5, -2149.5)" x="2833" y="2141" width="155" height="17" rx="6"></rect>
            <rect id="Rectangle" fill="#27272A" transform="translate(3105.5, 2149.5) scale(-1, 1) rotate(360) translate(-3105.5, -2149.5)" x="3028" y="2141" width="155" height="17" rx="6"></rect>
            <circle id="Oval" stroke="#E26701" stroke-width="10" transform="translate(1187.5, 2149.5) scale(-1, 1) rotate(180) translate(-1187.5, -2149.5)" cx="1187.5" cy="2149.5" r="40.5"></circle>
            <circle id="Oval" stroke="#E26701" stroke-width="10" transform="translate(2032.5, 1878.5) scale(-1, 1) rotate(180) translate(-2032.5, -1878.5)" cx="2032.5" cy="1878.5" r="40.5"></circle>
            <circle id="Oval" fill="#E26701" transform="translate(45.5, 1199.5) scale(-1, 1) rotate(180) translate(-45.5, -1199.5)" cx="45.5" cy="1199.5" r="45.5"></circle>
            <g id="Group-3" transform="translate(988.5, 1199.5) scale(-1, 1) rotate(180) translate(-988.5, -1199.5)translate(716, 1191)" fill="#4F4F57">
                <rect id="Rectangle" x="390" y="0" width="155" height="17" rx="6"></rect>
                <rect id="Rectangle" x="195" y="0" width="155" height="17" rx="6"></rect>
                <rect id="Rectangle" x="0" y="0" width="155" height="17" rx="6"></rect>
            </g>
            <g id="Group-3" transform="translate(403.5, 1199.5) scale(-1, 1) rotate(180) translate(-403.5, -1199.5)translate(131, 1191)" fill="#4F4F57">
                <rect id="Rectangle" x="390" y="0" width="155" height="17" rx="6"></rect>
                <rect id="Rectangle" x="195" y="0" width="155" height="17" rx="6"></rect>
                <rect id="Rectangle" x="0" y="0" width="155" height="17" rx="6"></rect>
            </g>
            <g id="Group-3" transform="translate(1573.5, 1199.5) scale(-1, 1) rotate(180) translate(-1573.5, -1199.5)translate(1301, 1191)" fill="#4F4F57">
                <rect id="Rectangle" x="390" y="0" width="155" height="17" rx="6"></rect>
                <rect id="Rectangle" x="195" y="0" width="155" height="17" rx="6"></rect>
                <rect id="Rectangle" x="0" y="0" width="155" height="17" rx="6"></rect>
            </g>
            <rect id="Rectangle" fill="#27272A" transform="translate(1963.5, 1199.5) scale(-1, 1) rotate(180) translate(-1963.5, -1199.5)" x="1886" y="1191" width="155" height="17" rx="6"></rect>
            <rect id="Rectangle" fill="#27272A" transform="translate(2032.5, 1520.5) scale(-1, 1) rotate(270) translate(-2032.5, -1520.5)" x="1955" y="1512" width="155" height="17" rx="6"></rect>
            <rect id="Rectangle" fill="#27272A" transform="translate(2032.5, 1715.5) scale(-1, 1) rotate(270) translate(-2032.5, -1715.5)" x="1955" y="1707" width="155" height="17" rx="6"></rect>
            <rect id="Rectangle" fill="#27272A" transform="translate(2032.5, 1325.5) scale(-1, 1) rotate(270) translate(-2032.5, -1325.5)" x="1955" y="1317" width="155" height="17" rx="6"></rect>
            <circle id="Oval" stroke="#E26701" stroke-width="10" transform="translate(3564.5, 3020.5) scale(-1, 1) rotate(180) translate(-3564.5, -3020.5)" cx="3564.5" cy="3020.5" r="40.5"></circle>
            <circle id="Oval" fill="#E26701" transform="translate(2451.5, 1077.5) scale(-1, 1) rotate(180) translate(-2451.5, -1077.5)" cx="2451.5" cy="1077.5" r="45.5"></circle>
            <rect id="Rectangle" fill="#27272A" transform="translate(2910.5, 1756.5) scale(-1, 1) rotate(180) translate(-2910.5, -1756.5)" x="2833" y="1748" width="155" height="17" rx="6"></rect>
            <rect id="Rectangle" fill="#27272A" transform="translate(2715.5, 1756.5) scale(-1, 1) rotate(180) translate(-2715.5, -1756.5)" x="2638" y="1748" width="155" height="17" rx="6"></rect>
            <rect id="Rectangle" fill="#27272A" transform="translate(2520.5, 1756.5) scale(-1, 1) rotate(180) translate(-2520.5, -1756.5)" x="2443" y="1748" width="155" height="17" rx="6"></rect>
            <rect id="Rectangle" fill="#27272A" transform="translate(3495.5, 1756.5) scale(-1, 1) rotate(180) translate(-3495.5, -1756.5)" x="3418" y="1748" width="155" height="17" rx="6"></rect>
            <rect id="Rectangle" fill="#27272A" transform="translate(3300.5, 1756.5) scale(-1, 1) rotate(180) translate(-3300.5, -1756.5)" x="3223" y="1748" width="155" height="17" rx="6"></rect>
            <rect id="Rectangle" fill="#27272A" transform="translate(3105.5, 1756.5) scale(-1, 1) rotate(180) translate(-3105.5, -1756.5)" x="3028" y="1748" width="155" height="17" rx="6"></rect>
            <rect id="Rectangle" fill="#27272A" transform="translate(3564.5, 1882.5) scale(-1, 1) rotate(270) translate(-3564.5, -1882.5)" x="3487" y="1874" width="155" height="17" rx="6"></rect>
            <rect id="Rectangle" fill="#27272A" transform="translate(3564.5, 2077.5) scale(-1, 1) rotate(270) translate(-3564.5, -2077.5)" x="3487" y="2069" width="155" height="17" rx="6"></rect>
            <rect id="Rectangle" fill="#27272A" transform="translate(3564.5, 2272.5) scale(-1, 1) rotate(270) translate(-3564.5, -2272.5)" x="3487" y="2264" width="155" height="17" rx="6"></rect>
            <rect id="Rectangle" fill="#27272A" transform="translate(3564.5, 2467.5) scale(-1, 1) rotate(270) translate(-3564.5, -2467.5)" x="3487" y="2459" width="155" height="17" rx="6"></rect>
            <rect id="Rectangle" fill="#27272A" transform="translate(3564.5, 2662.5) scale(-1, 1) rotate(270) translate(-3564.5, -2662.5)" x="3487" y="2654" width="155" height="17" rx="6"></rect>
            <rect id="Rectangle" fill="#27272A" transform="translate(3564.5, 2857.5) scale(-1, 1) rotate(270) translate(-3564.5, -2857.5)" x="3487" y="2849" width="155" height="17" rx="6"></rect>
            <rect id="Rectangle" fill="#27272A" transform="translate(2451.5, 1240.5) scale(-1, 1) rotate(270) translate(-2451.5, -1240.5)" x="2374" y="1232" width="155" height="17" rx="6"></rect>
            <rect id="Rectangle" fill="#27272A" transform="translate(2451.5, 1435.5) scale(-1, 1) rotate(270) translate(-2451.5, -1435.5)" x="2374" y="1427" width="155" height="17" rx="6"></rect>
            <rect id="Rectangle" fill="#27272A" transform="translate(2451.5, 1630.5) scale(-1, 1) rotate(270) translate(-2451.5, -1630.5)" x="2374" y="1622" width="155" height="17" rx="6"></rect>
            <circle id="Oval-Copy-2" stroke="#E26701" stroke-width="10" transform="translate(2907.5, 3089.5) scale(-1, 1) rotate(180) translate(-2907.5, -3089.5)" cx="2907.5" cy="3089.5" r="40.5"></circle>
            <circle id="Oval-Copy" fill="#E26701" transform="translate(1021.5, 1924.5) scale(-1, 1) rotate(180) translate(-1021.5, -1924.5)" cx="1021.5" cy="1924.5" r="45.5"></circle>
            <rect id="Rectangle" fill="#27272A" transform="translate(2159.5, 3094.5) scale(-1, 1) rotate(180) translate(-2159.5, -3094.5)" x="2082" y="3086" width="155" height="17" rx="6"></rect>
            <rect id="Rectangle" fill="#27272A" transform="translate(1964.5, 3094.5) scale(-1, 1) rotate(180) translate(-1964.5, -3094.5)" x="1887" y="3086" width="155" height="17" rx="6"></rect>
            <rect id="Rectangle" fill="#27272A" transform="translate(1769.5, 3094.5) scale(-1, 1) rotate(180) translate(-1769.5, -3094.5)" x="1692" y="3086" width="155" height="17" rx="6"></rect>
            <rect id="Rectangle" fill="#27272A" transform="translate(2744.5, 3094.5) scale(-1, 1) rotate(180) translate(-2744.5, -3094.5)" x="2667" y="3086" width="155" height="17" rx="6"></rect>
            <rect id="Rectangle" fill="#27272A" transform="translate(2549.5, 3094.5) scale(-1, 1) rotate(180) translate(-2549.5, -3094.5)" x="2472" y="3086" width="155" height="17" rx="6"></rect>
            <rect id="Rectangle" fill="#27272A" transform="translate(2354.5, 3094.5) scale(-1, 1) rotate(180) translate(-2354.5, -3094.5)" x="2277" y="3086" width="155" height="17" rx="6"></rect>
            <rect id="Rectangle" fill="#27272A" transform="translate(1643.5, 2050.5) scale(-1, 1) rotate(270) translate(-1643.5, -2050.5)" x="1566" y="2042" width="155" height="17" rx="6"></rect>
            <rect id="Rectangle" fill="#27272A" transform="translate(1643.5, 2245.5) scale(-1, 1) rotate(270) translate(-1643.5, -2245.5)" x="1566" y="2237" width="155" height="17" rx="6"></rect>
            <rect id="Rectangle" fill="#27272A" transform="translate(1643.5, 2440.5) scale(-1, 1) rotate(270) translate(-1643.5, -2440.5)" x="1566" y="2432" width="155" height="17" rx="6"></rect>
            <rect id="Rectangle" fill="#27272A" transform="translate(1643.5, 2635.5) scale(-1, 1) rotate(270) translate(-1643.5, -2635.5)" x="1566" y="2627" width="155" height="17" rx="6"></rect>
            <rect id="Rectangle" fill="#27272A" transform="translate(1643.5, 2830.5) scale(-1, 1) rotate(270) translate(-1643.5, -2830.5)" x="1566" y="2822" width="155" height="17" rx="6"></rect>
            <rect id="Rectangle" fill="#27272A" transform="translate(1643.5, 3025.5) scale(-1, 1) rotate(270) translate(-1643.5, -3025.5)" x="1566" y="3017" width="155" height="17" rx="6"></rect>
            <rect id="Rectangle" fill="#27272A" transform="translate(1574.5, 1924.5) scale(-1, 1) rotate(180) translate(-1574.5, -1924.5)" x="1497" y="1916" width="155" height="17" rx="6"></rect>
            <rect id="Rectangle" fill="#27272A" transform="translate(1379.5, 1924.5) scale(-1, 1) rotate(180) translate(-1379.5, -1924.5)" x="1302" y="1916" width="155" height="17" rx="6"></rect>
            <rect id="Rectangle" fill="#27272A" transform="translate(1184.5, 1924.5) scale(-1, 1) rotate(180) translate(-1184.5, -1924.5)" x="1107" y="1916" width="155" height="17" rx="6"></rect>
            <circle id="Oval-Copy-2" stroke="#E26701" stroke-width="10" transform="translate(602.5, 1752.5) rotate(180) translate(-602.5, -1752.5)" cx="602.5" cy="1752.5" r="40.5"></circle>
            <circle id="Oval-Copy" fill="#E26701" transform="translate(2488.5, 587.5) rotate(180) translate(-2488.5, -587.5)" cx="2488.5" cy="587.5" r="45.5"></circle>
            <rect id="Rectangle" fill="#27272A" transform="translate(1350.5, 1757.5) rotate(180) translate(-1350.5, -1757.5)" x="1273" y="1749" width="155" height="17" rx="6"></rect>
            <rect id="Rectangle" fill="#27272A" transform="translate(1545.5, 1757.5) rotate(180) translate(-1545.5, -1757.5)" x="1468" y="1749" width="155" height="17" rx="6"></rect>
            <rect id="Rectangle" fill="#27272A" transform="translate(1740.5, 1757.5) rotate(180) translate(-1740.5, -1757.5)" x="1663" y="1749" width="155" height="17" rx="6"></rect>
            <rect id="Rectangle" fill="#27272A" transform="translate(765.5, 1757.5) rotate(180) translate(-765.5, -1757.5)" x="688" y="1749" width="155" height="17" rx="6"></rect>
            <rect id="Rectangle" fill="#27272A" transform="translate(960.5, 1757.5) rotate(180) translate(-960.5, -1757.5)" x="883" y="1749" width="155" height="17" rx="6"></rect>
            <rect id="Rectangle" fill="#27272A" transform="translate(1155.5, 1757.5) rotate(180) translate(-1155.5, -1757.5)" x="1078" y="1749" width="155" height="17" rx="6"></rect>
            <rect id="Rectangle" fill="#27272A" transform="translate(1866.5, 713.5) rotate(270) translate(-1866.5, -713.5)" x="1789" y="705" width="155" height="17" rx="6"></rect>
            <rect id="Rectangle" fill="#27272A" transform="translate(1866.5, 908.5) rotate(270) translate(-1866.5, -908.5)" x="1789" y="900" width="155" height="17" rx="6"></rect>
            <rect id="Rectangle" fill="#27272A" transform="translate(1866.5, 1103.5) rotate(270) translate(-1866.5, -1103.5)" x="1789" y="1095" width="155" height="17" rx="6"></rect>
            <rect id="Rectangle" fill="#27272A" transform="translate(1866.5, 1298.5) rotate(270) translate(-1866.5, -1298.5)" x="1789" y="1290" width="155" height="17" rx="6"></rect>
            <rect id="Rectangle" fill="#27272A" transform="translate(1866.5, 1493.5) rotate(270) translate(-1866.5, -1493.5)" x="1789" y="1485" width="155" height="17" rx="6"></rect>
            <rect id="Rectangle" fill="#27272A" transform="translate(1866.5, 1688.5) rotate(270) translate(-1866.5, -1688.5)" x="1789" y="1680" width="155" height="17" rx="6"></rect>
            <rect id="Rectangle" fill="#27272A" transform="translate(1935.5, 587.5) rotate(180) translate(-1935.5, -587.5)" x="1858" y="579" width="155" height="17" rx="6"></rect>
            <rect id="Rectangle" fill="#27272A" transform="translate(2130.5, 587.5) rotate(180) translate(-2130.5, -587.5)" x="2053" y="579" width="155" height="17" rx="6"></rect>
            <rect id="Rectangle" fill="#27272A" transform="translate(2325.5, 587.5) rotate(180) translate(-2325.5, -587.5)" x="2248" y="579" width="155" height="17" rx="6"></rect>
            <circle id="Oval" fill="#E26701" transform="translate(3173.5, 3414.5) scale(-1, 1) rotate(180) translate(-3173.5, -3414.5)" cx="3173.5" cy="3414.5" r="45.5"></circle>
            <rect id="Rectangle" fill="#27272A" transform="translate(2785, 989) scale(1, -1) rotate(-90) translate(-2785, -989)" x="2707.5" y="980.5" width="155" height="17" rx="6"></rect>
            <rect id="Rectangle-Copy" fill="#27272A" transform="translate(2785, 1184) scale(1, -1) rotate(-90) translate(-2785, -1184)" x="2707.5" y="1175.5" width="155" height="17" rx="6"></rect>
            <rect id="Rectangle" fill="#27272A" transform="translate(2785, 209) scale(1, -1) rotate(-90) translate(-2785, -209)" x="2707.5" y="200.5" width="155" height="17" rx="6"></rect>
            <rect id="Rectangle-Copy" fill="#27272A" transform="translate(2785, 404) scale(1, -1) rotate(-90) translate(-2785, -404)" x="2707.5" y="395.5" width="155" height="17" rx="6"></rect>
            <rect id="Rectangle" fill="#27272A" transform="translate(2785, 599) scale(1, -1) rotate(-90) translate(-2785, -599)" x="2707.5" y="590.5" width="155" height="17" rx="6"></rect>
            <rect id="Rectangle-Copy" fill="#27272A" transform="translate(2785, 794) scale(1, -1) rotate(-90) translate(-2785, -794)" x="2707.5" y="785.5" width="155" height="17" rx="6"></rect>
            <rect id="Rectangle" fill="#27272A" transform="translate(4608.5, 1310.5) scale(1, -1) translate(-4608.5, -1310.5)" x="4531" y="1302" width="155" height="17" rx="6"></rect>
            <rect id="Rectangle" fill="#27272A" transform="translate(4413.5, 1310.5) scale(1, -1) translate(-4413.5, -1310.5)" x="4336" y="1302" width="155" height="17" rx="6"></rect>
            <rect id="Rectangle" fill="#27272A" transform="translate(4218.5, 1310.5) scale(1, -1) translate(-4218.5, -1310.5)" x="4141" y="1302" width="155" height="17" rx="6"></rect>
            <rect id="Rectangle" fill="#27272A" transform="translate(4023.5, 1310.5) scale(1, -1) translate(-4023.5, -1310.5)" x="3946" y="1302" width="155" height="17" rx="6"></rect>
            <rect id="Rectangle" fill="#27272A" transform="translate(3828.5, 1310.5) scale(1, -1) translate(-3828.5, -1310.5)" x="3751" y="1302" width="155" height="17" rx="6"></rect>
            <rect id="Rectangle" fill="#27272A" transform="translate(3633.5, 1310.5) scale(1, -1) translate(-3633.5, -1310.5)" x="3556" y="1302" width="155" height="17" rx="6"></rect>
            <rect id="Rectangle" fill="#27272A" transform="translate(3438.5, 1310.5) scale(1, -1) translate(-3438.5, -1310.5)" x="3361" y="1302" width="155" height="17" rx="6"></rect>
            <rect id="Rectangle" fill="#27272A" transform="translate(3243.5, 1310.5) scale(1, -1) translate(-3243.5, -1310.5)" x="3166" y="1302" width="155" height="17" rx="6"></rect>
            <rect id="Rectangle" fill="#27272A" transform="translate(3048.5, 1310.5) scale(1, -1) translate(-3048.5, -1310.5)" x="2971" y="1302" width="155" height="17" rx="6"></rect>
            <rect id="Rectangle" fill="#27272A" transform="translate(2853.5, 1310.5) scale(1, -1) translate(-2853.5, -1310.5)" x="2776" y="1302" width="155" height="17" rx="6"></rect>
            <circle id="Oval" stroke="#E26701" stroke-width="10" transform="translate(4771.5, 1310.5) scale(1, -1) rotate(-180) translate(-4771.5, -1310.5)" cx="4771.5" cy="1310.5" r="40.5"></circle>
            <circle id="Oval" fill="#E26701" transform="translate(2785.5, 45.5) scale(1, -1) rotate(-180) translate(-2785.5, -45.5)" cx="2785.5" cy="45.5" r="45.5"></circle>
            <rect id="Rectangle" fill="#27272A" transform="translate(1907.5, 423.5) rotate(360) translate(-1907.5, -423.5)" x="1830" y="415" width="155" height="17" rx="6"></rect>
            <rect id="Rectangle-Copy" fill="#27272A" transform="translate(2102.5, 423.5) rotate(360) translate(-2102.5, -423.5)" x="2025" y="415" width="155" height="17" rx="6"></rect>
            <rect id="Rectangle" fill="#27272A" transform="translate(1127.5, 423.5) rotate(360) translate(-1127.5, -423.5)" x="1050" y="415" width="155" height="17" rx="6"></rect>
            <rect id="Rectangle-Copy" fill="#27272A" transform="translate(1322.5, 423.5) rotate(360) translate(-1322.5, -423.5)" x="1245" y="415" width="155" height="17" rx="6"></rect>
            <rect id="Rectangle" fill="#27272A" transform="translate(1517.5, 423.5) rotate(360) translate(-1517.5, -423.5)" x="1440" y="415" width="155" height="17" rx="6"></rect>
            <rect id="Rectangle-Copy" fill="#27272A" transform="translate(1712.5, 423.5) rotate(360) translate(-1712.5, -423.5)" x="1635" y="415" width="155" height="17" rx="6"></rect>
            <rect id="Rectangle" fill="#27272A" transform="translate(2229, 2247) rotate(450) translate(-2229, -2247)" x="2151.5" y="2238.5" width="155" height="17" rx="6"></rect>
            <rect id="Rectangle" fill="#27272A" transform="translate(2229, 2052) rotate(450) translate(-2229, -2052)" x="2151.5" y="2043.5" width="155" height="17" rx="6"></rect>
            <rect id="Rectangle" fill="#27272A" transform="translate(2229, 1857) rotate(450) translate(-2229, -1857)" x="2151.5" y="1848.5" width="155" height="17" rx="6"></rect>
            <rect id="Rectangle" fill="#27272A" transform="translate(2229, 1662) rotate(450) translate(-2229, -1662)" x="2151.5" y="1653.5" width="155" height="17" rx="6"></rect>
            <rect id="Rectangle" fill="#27272A" transform="translate(2229, 1467) rotate(450) translate(-2229, -1467)" x="2151.5" y="1458.5" width="155" height="17" rx="6"></rect>
            <rect id="Rectangle" fill="#27272A" transform="translate(2229, 1272) rotate(450) translate(-2229, -1272)" x="2151.5" y="1263.5" width="155" height="17" rx="6"></rect>
            <rect id="Rectangle" fill="#27272A" transform="translate(2229, 1077) rotate(450) translate(-2229, -1077)" x="2151.5" y="1068.5" width="155" height="17" rx="6"></rect>
            <rect id="Rectangle" fill="#27272A" transform="translate(2229, 882) rotate(450) translate(-2229, -882)" x="2151.5" y="873.5" width="155" height="17" rx="6"></rect>
            <rect id="Rectangle" fill="#27272A" transform="translate(2229, 687) rotate(450) translate(-2229, -687)" x="2151.5" y="678.5" width="155" height="17" rx="6"></rect>
            <rect id="Rectangle" fill="#27272A" transform="translate(2229, 492) rotate(450) translate(-2229, -492)" x="2151.5" y="483.5" width="155" height="17" rx="6"></rect>
            <circle id="Oval" stroke="#E26701" stroke-width="10" transform="translate(2229, 2410) rotate(270) translate(-2229, -2410)" cx="2229" cy="2410" r="40.5"></circle>
            <circle id="Oval" fill="#E26701" transform="translate(964, 424) rotate(270) translate(-964, -424)" cx="964" cy="424" r="45.5"></circle>
        </g>
    </g>
</svg>