<?xml version="1.0" encoding="UTF-8"?>
<svg width="7913px" height="3846px" viewBox="0 0 7913 3846" version="1.1" xmlns="http://www.w3.org/2000/svg" xmlns:xlink="http://www.w3.org/1999/xlink">
    <title>Artboard</title>
    <g id="Artboard" stroke="none" stroke-width="1" fill="none" fill-rule="evenodd">
        <g id="Group-10" transform="translate(0, 0)">
            <rect id="Rectangle" fill="#27272A" transform="translate(6689.0088, 2098.787) scale(-1, 1) rotate(180) translate(-6689.0088, -2098.787)" x="6618.71663" y="2091.07803" width="140.584389" height="15.4179191" rx="5.44197633"></rect>
            <rect id="Rectangle-Copy" fill="#27272A" transform="translate(6865.8731, 2098.787) scale(-1, 1) rotate(180) translate(-6865.8731, -2098.787)" x="6795.58086" y="2091.07803" width="140.584389" height="15.4179191" rx="5.44197633"></rect>
            <path d="M6863.61019,1976.80354 L6993.30138,1976.80354 C6996.3069,1976.80354 6998.74335,1979.24 6998.74335,1982.24552 L6998.74335,1986.7805 C6998.74335,1989.78602 6996.3069,1992.22247 6993.30138,1992.22247 L6863.61019,1992.22247 C6860.60467,1992.22247 6858.16821,1989.78602 6858.16821,1986.7805 L6858.16821,1982.24552 C6858.16821,1979.24 6860.60467,1976.80354 6863.61019,1976.80354 Z" id="Rectangle" fill="#27272A" transform="translate(6928.4558, 1984.513) scale(-1, 1) rotate(270) translate(-6928.4558, -1984.513)"></path>
            <path d="M6863.61019,1799.95094 L6993.30138,1799.95094 C6996.3069,1799.95094 6998.74335,1802.38739 6998.74335,1805.39291 L6998.74335,1809.92789 C6998.74335,1812.93342 6996.3069,1815.36987 6993.30138,1815.36987 L6863.61019,1815.36987 C6860.60467,1815.36987 6858.16821,1812.93342 6858.16821,1809.92789 L6858.16821,1805.39291 C6858.16821,1802.38739 6860.60467,1799.95094 6863.61019,1799.95094 Z" id="Rectangle-Copy" fill="#27272A" transform="translate(6928.4558, 1807.6604) scale(-1, 1) rotate(270) translate(-6928.4558, -1807.6604)"></path>
            <rect id="Rectangle" fill="#27272A" transform="translate(5981.5519, 2098.787) scale(-1, 1) rotate(180) translate(-5981.5519, -2098.787)" x="5911.25971" y="2091.07803" width="140.584389" height="15.4179191" rx="5.44197633"></rect>
            <path d="M5854.12358,2205.35152 L5983.81477,2205.35152 C5986.82029,2205.35152 5989.25674,2207.78797 5989.25674,2210.79349 L5989.25674,2215.32847 C5989.25674,2218.33399 5986.82029,2220.77045 5983.81477,2220.77045 L5854.12358,2220.77045 C5851.11806,2220.77045 5848.6816,2218.33399 5848.6816,2215.32847 L5848.6816,2210.79349 C5848.6816,2207.78797 5851.11806,2205.35152 5854.12358,2205.35152 Z" id="Rectangle" fill="#27272A" transform="translate(5918.9692, 2213.061) scale(-1, 1) rotate(270) translate(-5918.9692, -2213.061)"></path>
            <path d="M5854.12358,2382.20412 L5983.81477,2382.20412 C5986.82029,2382.20412 5989.25674,2384.64057 5989.25674,2387.64609 L5989.25674,2392.18107 C5989.25674,2395.18659 5986.82029,2397.62305 5983.81477,2397.62305 L5854.12358,2397.62305 C5851.11806,2397.62305 5848.6816,2395.18659 5848.6816,2392.18107 L5848.6816,2387.64609 C5848.6816,2384.64057 5851.11806,2382.20412 5854.12358,2382.20412 Z" id="Rectangle" fill="#27272A" transform="translate(5918.9692, 2389.9136) scale(-1, 1) rotate(270) translate(-5918.9692, -2389.9136)"></path>
            <path d="M5854.12358,2559.05672 L5983.81477,2559.05672 C5986.82029,2559.05672 5989.25674,2561.49317 5989.25674,2564.49869 L5989.25674,2569.03368 C5989.25674,2572.0392 5986.82029,2574.47565 5983.81477,2574.47565 L5854.12358,2574.47565 C5851.11806,2574.47565 5848.6816,2572.0392 5848.6816,2569.03368 L5848.6816,2564.49869 C5848.6816,2561.49317 5851.11806,2559.05672 5854.12358,2559.05672 Z" id="Rectangle" fill="#27272A" transform="translate(5918.9692, 2566.7662) scale(-1, 1) rotate(270) translate(-5918.9692, -2566.7662)"></path>
            <path d="M5854.12358,2735.90932 L5983.81477,2735.90932 C5986.82029,2735.90932 5989.25674,2738.34578 5989.25674,2741.3513 L5989.25674,2745.88628 C5989.25674,2748.8918 5986.82029,2751.32825 5983.81477,2751.32825 L5854.12358,2751.32825 C5851.11806,2751.32825 5848.6816,2748.8918 5848.6816,2745.88628 L5848.6816,2741.3513 C5848.6816,2738.34578 5851.11806,2735.90932 5854.12358,2735.90932 Z" id="Rectangle" fill="#27272A" transform="translate(5918.9692, 2743.6188) scale(-1, 1) rotate(270) translate(-5918.9692, -2743.6188)"></path>
            <path d="M5854.12358,2912.76192 L5983.81477,2912.76192 C5986.82029,2912.76192 5989.25674,2915.19838 5989.25674,2918.2039 L5989.25674,2922.73888 C5989.25674,2925.7444 5986.82029,2928.18085 5983.81477,2928.18085 L5854.12358,2928.18085 C5851.11806,2928.18085 5848.6816,2925.7444 5848.6816,2922.73888 L5848.6816,2918.2039 C5848.6816,2915.19838 5851.11806,2912.76192 5854.12358,2912.76192 Z" id="Rectangle" fill="#27272A" transform="translate(5918.9692, 2920.4714) scale(-1, 1) rotate(270) translate(-5918.9692, -2920.4714)"></path>
            <rect id="Rectangle" fill="#27272A" transform="translate(5804.6877, 2983.05) scale(-1, 1) rotate(180) translate(-5804.6877, -2983.05)" x="5734.39547" y="2975.34104" width="140.584389" height="15.4179191" rx="5.44197633"></rect>
            <rect id="Rectangle" fill="#27272A" transform="translate(5627.8234, 2983.05) scale(-1, 1) rotate(180) translate(-5627.8234, -2983.05)" x="5557.53124" y="2975.34104" width="140.584389" height="15.4179191" rx="5.44197633"></rect>
            <rect id="Rectangle" fill="#27272A" transform="translate(5450.9592, 2983.05) scale(-1, 1) rotate(180) translate(-5450.9592, -2983.05)" x="5380.66701" y="2975.34104" width="140.584389" height="15.4179191" rx="5.44197633"></rect>
            <rect id="Rectangle-Copy" fill="#27272A" transform="translate(6158.4161, 2098.787) scale(-1, 1) rotate(180) translate(-6158.4161, -2098.787)" x="6088.12394" y="2091.07803" width="140.584389" height="15.4179191" rx="5.44197633"></rect>
            <rect id="Rectangle" fill="#27272A" transform="translate(6335.2804, 2098.787) scale(-1, 1) rotate(180) translate(-6335.2804, -2098.787)" x="6264.98817" y="2091.07803" width="140.584389" height="15.4179191" rx="5.44197633"></rect>
            <rect id="Rectangle-Copy" fill="#27272A" transform="translate(6512.1446, 2098.787) scale(-1, 1) rotate(180) translate(-6512.1446, -2098.787)" x="6441.8524" y="2091.07803" width="140.584389" height="15.4179191" rx="5.44197633"></rect>
            <ellipse id="Oval" fill="#E26701" transform="translate(5303.1188, 2983.05) scale(-1, 1) rotate(180) translate(-5303.1188, -2983.05)" cx="5303.11885" cy="2983.05" rx="41.2683205" ry="41.2656069"></ellipse>
            <ellipse id="Oval" stroke="#E26701" stroke-width="9.06996056" transform="translate(6928.4558, 1659.8298) scale(-1, 1) rotate(180) translate(-6928.4558, -1659.8298)" cx="6928.45578" cy="1659.82977" rx="36.7333403" ry="36.7306267"></ellipse>
            <path d="M7217.79215,2153.20267 L7347.48334,2153.20267 C7350.48886,2153.20267 7352.92531,2155.63913 7352.92531,2158.64465 L7352.92531,2163.17963 C7352.92531,2166.18515 7350.48886,2168.62161 7347.48334,2168.62161 L7217.79215,2168.62161 C7214.78662,2168.62161 7212.35017,2166.18515 7212.35017,2163.17963 L7212.35017,2158.64465 C7212.35017,2155.63913 7214.78662,2153.20267 7217.79215,2153.20267 Z" id="Rectangle" fill="#27272A" transform="translate(7282.6377, 2160.9121) scale(1, -1) rotate(-90) translate(-7282.6377, -2160.9121)"></path>
            <path d="M7217.79215,2330.05527 L7347.48334,2330.05527 C7350.48886,2330.05527 7352.92531,2332.49173 7352.92531,2335.49725 L7352.92531,2340.03223 C7352.92531,2343.03775 7350.48886,2345.47421 7347.48334,2345.47421 L7217.79215,2345.47421 C7214.78662,2345.47421 7212.35017,2343.03775 7212.35017,2340.03223 L7212.35017,2335.49725 C7212.35017,2332.49173 7214.78662,2330.05527 7217.79215,2330.05527 Z" id="Rectangle-Copy" fill="#27272A" transform="translate(7282.6377, 2337.7647) scale(1, -1) rotate(-90) translate(-7282.6377, -2337.7647)"></path>
            <rect id="Rectangle" fill="#27272A" transform="translate(7396.9192, 2400.3434) scale(1, -1) translate(-7396.9192, -2400.3434)" x="7326.62705" y="2392.63439" width="140.584389" height="15.4179191" rx="5.44197633"></rect>
            <rect id="Rectangle-Copy" fill="#27272A" transform="translate(7573.7835, 2400.3434) scale(1, -1) translate(-7573.7835, -2400.3434)" x="7503.49128" y="2392.63439" width="140.584389" height="15.4179191" rx="5.44197633"></rect>
            <path d="M7217.79215,1445.79227 L7347.48334,1445.79227 C7350.48886,1445.79227 7352.92531,1448.22872 7352.92531,1451.23424 L7352.92531,1455.76922 C7352.92531,1458.77474 7350.48886,1461.2112 7347.48334,1461.2112 L7217.79215,1461.2112 C7214.78662,1461.2112 7212.35017,1458.77474 7212.35017,1455.76922 L7212.35017,1451.23424 C7212.35017,1448.22872 7214.78662,1445.79227 7217.79215,1445.79227 Z" id="Rectangle" fill="#27272A" transform="translate(7282.6377, 1453.5017) scale(1, -1) rotate(-90) translate(-7282.6377, -1453.5017)"></path>
            <rect id="Rectangle" fill="#27272A" transform="translate(7168.3562, 1390.9231) scale(1, -1) translate(-7168.3562, -1390.9231)" x="7098.06404" y="1383.21416" width="140.584389" height="15.4179191" rx="5.44197633"></rect>
            <rect id="Rectangle" fill="#27272A" transform="translate(6991.492, 1390.9231) scale(1, -1) translate(-6991.492, -1390.9231)" x="6921.19981" y="1383.21416" width="140.584389" height="15.4179191" rx="5.44197633"></rect>
            <rect id="Rectangle" fill="#27272A" transform="translate(6814.6278, 1390.9231) scale(1, -1) translate(-6814.6278, -1390.9231)" x="6744.33558" y="1383.21416" width="140.584389" height="15.4179191" rx="5.44197633"></rect>
            <rect id="Rectangle" fill="#27272A" transform="translate(6637.7635, 1390.9231) scale(1, -1) translate(-6637.7635, -1390.9231)" x="6567.47135" y="1383.21416" width="140.584389" height="15.4179191" rx="5.44197633"></rect>
            <rect id="Rectangle" fill="#27272A" transform="translate(6460.8993, 1390.9231) scale(1, -1) translate(-6460.8993, -1390.9231)" x="6390.60712" y="1383.21416" width="140.584389" height="15.4179191" rx="5.44197633"></rect>
            <path d="M6333.47099,1268.93967 L6463.16218,1268.93967 C6466.1677,1268.93967 6468.60416,1271.37612 6468.60416,1274.38164 L6468.60416,1278.91662 C6468.60416,1281.92214 6466.1677,1284.3586 6463.16218,1284.3586 L6333.47099,1284.3586 C6330.46547,1284.3586 6328.02901,1281.92214 6328.02901,1278.91662 L6328.02901,1274.38164 C6328.02901,1271.37612 6330.46547,1268.93967 6333.47099,1268.93967 Z" id="Rectangle" fill="#27272A" transform="translate(6398.3166, 1276.6491) scale(1, -1) rotate(-90) translate(-6398.3166, -1276.6491)"></path>
            <path d="M6333.47099,1092.08707 L6463.16218,1092.08707 C6466.1677,1092.08707 6468.60416,1094.52352 6468.60416,1097.52904 L6468.60416,1102.06402 C6468.60416,1105.06954 6466.1677,1107.506 6463.16218,1107.506 L6333.47099,1107.506 C6330.46547,1107.506 6328.02901,1105.06954 6328.02901,1102.06402 L6328.02901,1097.52904 C6328.02901,1094.52352 6330.46547,1092.08707 6333.47099,1092.08707 Z" id="Rectangle" fill="#27272A" transform="translate(6398.3166, 1099.7965) scale(1, -1) rotate(-90) translate(-6398.3166, -1099.7965)"></path>
            <path d="M6333.47099,915.234464 L6463.16218,915.234464 C6466.1677,915.234464 6468.60416,917.67092 6468.60416,920.67644 L6468.60416,925.211421 C6468.60416,928.216941 6466.1677,930.653397 6463.16218,930.653397 L6333.47099,930.653397 C6330.46547,930.653397 6328.02901,928.216941 6328.02901,925.211421 L6328.02901,920.67644 C6328.02901,917.67092 6330.46547,915.234464 6333.47099,915.234464 Z" id="Rectangle" fill="#27272A" transform="translate(6398.3166, 922.9439) scale(1, -1) rotate(-90) translate(-6398.3166, -922.9439)"></path>
            <path d="M6333.47099,738.234464 L6463.16218,738.234464 C6466.1677,738.234464 6468.60416,740.67092 6468.60416,743.67644 L6468.60416,748.211421 C6468.60416,751.216941 6466.1677,753.653397 6463.16218,753.653397 L6333.47099,753.653397 C6330.46547,753.653397 6328.02901,751.216941 6328.02901,748.211421 L6328.02901,743.67644 C6328.02901,740.67092 6330.46547,738.234464 6333.47099,738.234464 Z" id="Rectangle" fill="#27272A" transform="translate(6398.3166, 745.9439) scale(1, -1) rotate(-90) translate(-6398.3166, -745.9439)"></path>
            <path d="M6333.47099,561.234464 L6463.16218,561.234464 C6466.1677,561.234464 6468.60416,563.67092 6468.60416,566.67644 L6468.60416,571.211421 C6468.60416,574.216941 6466.1677,576.653397 6463.16218,576.653397 L6333.47099,576.653397 C6330.46547,576.653397 6328.02901,574.216941 6328.02901,571.211421 L6328.02901,566.67644 C6328.02901,563.67092 6330.46547,561.234464 6333.47099,561.234464 Z" id="Rectangle" fill="#27272A" transform="translate(6398.3166, 568.9439) scale(1, -1) rotate(-90) translate(-6398.3166, -568.9439)"></path>
            <path d="M7217.79215,1622.64487 L7347.48334,1622.64487 C7350.48886,1622.64487 7352.92531,1625.08132 7352.92531,1628.08685 L7352.92531,1632.62183 C7352.92531,1635.62735 7350.48886,1638.0638 7347.48334,1638.0638 L7217.79215,1638.0638 C7214.78662,1638.0638 7212.35017,1635.62735 7212.35017,1632.62183 L7212.35017,1628.08685 C7212.35017,1625.08132 7214.78662,1622.64487 7217.79215,1622.64487 Z" id="Rectangle-Copy" fill="#27272A" transform="translate(7282.6377, 1630.3543) scale(1, -1) rotate(-90) translate(-7282.6377, -1630.3543)"></path>
            <ellipse id="Oval" fill="#E26701" transform="translate(7721.6238, 2400.3434) scale(1, -1) rotate(-90) translate(-7721.6238, -2400.3434)" cx="7721.62383" cy="2400.34335" rx="41.2656069" ry="41.2683205"></ellipse>
            <path d="M7217.79215,1799.49747 L7347.48334,1799.49747 C7350.48886,1799.49747 7352.92531,1801.93393 7352.92531,1804.93945 L7352.92531,1809.47443 C7352.92531,1812.47995 7350.48886,1814.9164 7347.48334,1814.9164 L7217.79215,1814.9164 C7214.78662,1814.9164 7212.35017,1812.47995 7212.35017,1809.47443 L7212.35017,1804.93945 C7212.35017,1801.93393 7214.78662,1799.49747 7217.79215,1799.49747 Z" id="Rectangle" fill="#27272A" transform="translate(7282.6377, 1807.2069) scale(1, -1) rotate(-90) translate(-7282.6377, -1807.2069)"></path>
            <path d="M7217.79215,1976.35007 L7347.48334,1976.35007 C7350.48886,1976.35007 7352.92531,1978.78653 7352.92531,1981.79205 L7352.92531,1986.32703 C7352.92531,1989.33255 7350.48886,1991.769 7347.48334,1991.769 L7217.79215,1991.769 C7214.78662,1991.769 7212.35017,1989.33255 7212.35017,1986.32703 L7212.35017,1981.79205 C7212.35017,1978.78653 7214.78662,1976.35007 7217.79215,1976.35007 Z" id="Rectangle-Copy" fill="#27272A" transform="translate(7282.6377, 1984.0595) scale(1, -1) rotate(-90) translate(-7282.6377, -1984.0595)"></path>
            <ellipse id="Oval-Copy-3" stroke="#E26701" stroke-width="9.06996056" transform="translate(6398.3166, 421.1133) scale(1, -1) rotate(-90) translate(-6398.3166, -421.1133)" cx="6398.31659" cy="421.113295" rx="36.7306267" ry="36.7333403"></ellipse>
            <path d="M6005.13842,1597.25065 L6134.82961,1597.25065 C6137.83513,1597.25065 6140.27159,1599.6871 6140.27159,1602.69263 L6140.27159,1607.22761 C6140.27159,1610.23313 6137.83513,1612.66958 6134.82961,1612.66958 L6005.13842,1612.66958 C6002.1329,1612.66958 5999.69644,1610.23313 5999.69644,1607.22761 L5999.69644,1602.69263 C5999.69644,1599.6871 6002.1329,1597.25065 6005.13842,1597.25065 Z" id="Rectangle" fill="#27272A" transform="translate(6069.984, 1604.9601) scale(1, -1) rotate(-90) translate(-6069.984, -1604.9601)"></path>
            <path d="M6005.13842,1774.10325 L6134.82961,1774.10325 C6137.83513,1774.10325 6140.27159,1776.53971 6140.27159,1779.54523 L6140.27159,1784.08021 C6140.27159,1787.08573 6137.83513,1789.52218 6134.82961,1789.52218 L6005.13842,1789.52218 C6002.1329,1789.52218 5999.69644,1787.08573 5999.69644,1784.08021 L5999.69644,1779.54523 C5999.69644,1776.53971 6002.1329,1774.10325 6005.13842,1774.10325 Z" id="Rectangle-Copy" fill="#27272A" transform="translate(6069.984, 1781.8127) scale(1, -1) rotate(-90) translate(-6069.984, -1781.8127)"></path>
            <path d="M6005.13842,889.840245 L6134.82961,889.840245 C6137.83513,889.840245 6140.27159,892.2767 6140.27159,895.282221 L6140.27159,899.817201 C6140.27159,902.822722 6137.83513,905.259177 6134.82961,905.259177 L6005.13842,905.259177 C6002.1329,905.259177 5999.69644,902.822722 5999.69644,899.817201 L5999.69644,895.282221 C5999.69644,892.2767 6002.1329,889.840245 6005.13842,889.840245 Z" id="Rectangle" fill="#27272A" transform="translate(6069.984, 897.5497) scale(1, -1) rotate(-90) translate(-6069.984, -897.5497)"></path>
            <path d="M6005.13842,712.840245 L6134.82961,712.840245 C6137.83513,712.840245 6140.27159,715.2767 6140.27159,718.282221 L6140.27159,722.817201 C6140.27159,725.822722 6137.83513,728.259177 6134.82961,728.259177 L6005.13842,728.259177 C6002.1329,728.259177 5999.69644,725.822722 5999.69644,722.817201 L5999.69644,718.282221 C5999.69644,715.2767 6002.1329,712.840245 6005.13842,712.840245 Z" id="Rectangle" fill="#27272A" transform="translate(6069.984, 720.5497) scale(1, -1) rotate(-90) translate(-6069.984, -720.5497)"></path>
            <path d="M6005.13842,535.840245 L6134.82961,535.840245 C6137.83513,535.840245 6140.27159,538.2767 6140.27159,541.282221 L6140.27159,545.817201 C6140.27159,548.822722 6137.83513,551.259177 6134.82961,551.259177 L6005.13842,551.259177 C6002.1329,551.259177 5999.69644,548.822722 5999.69644,545.817201 L5999.69644,541.282221 C5999.69644,538.2767 6002.1329,535.840245 6005.13842,535.840245 Z" id="Rectangle" fill="#27272A" transform="translate(6069.984, 543.5497) scale(1, -1) rotate(-90) translate(-6069.984, -543.5497)"></path>
            <path d="M6005.13842,358.840245 L6134.82961,358.840245 C6137.83513,358.840245 6140.27159,361.2767 6140.27159,364.282221 L6140.27159,368.817201 C6140.27159,371.822722 6137.83513,374.259177 6134.82961,374.259177 L6005.13842,374.259177 C6002.1329,374.259177 5999.69644,371.822722 5999.69644,368.817201 L5999.69644,364.282221 C5999.69644,361.2767 6002.1329,358.840245 6005.13842,358.840245 Z" id="Rectangle" fill="#27272A" transform="translate(6069.984, 366.5497) scale(1, -1) rotate(-90) translate(-6069.984, -366.5497)"></path>
            <path d="M6005.13842,181.840245 L6134.82961,181.840245 C6137.83513,181.840245 6140.27159,184.2767 6140.27159,187.282221 L6140.27159,191.817201 C6140.27159,194.822722 6137.83513,197.259177 6134.82961,197.259177 L6005.13842,197.259177 C6002.1329,197.259177 5999.69644,194.822722 5999.69644,191.817201 L5999.69644,187.282221 C5999.69644,184.2767 6002.1329,181.840245 6005.13842,181.840245 Z" id="Rectangle" fill="#27272A" transform="translate(6069.984, 189.5497) scale(1, -1) rotate(-90) translate(-6069.984, -189.5497)"></path>
            <path d="M6005.13842,1066.69285 L6134.82961,1066.69285 C6137.83513,1066.69285 6140.27159,1069.1293 6140.27159,1072.13482 L6140.27159,1076.6698 C6140.27159,1079.67532 6137.83513,1082.11178 6134.82961,1082.11178 L6005.13842,1082.11178 C6002.1329,1082.11178 5999.69644,1079.67532 5999.69644,1076.6698 L5999.69644,1072.13482 C5999.69644,1069.1293 6002.1329,1066.69285 6005.13842,1066.69285 Z" id="Rectangle-Copy" fill="#27272A" transform="translate(6069.984, 1074.4023) scale(1, -1) rotate(-90) translate(-6069.984, -1074.4023)"></path>
            <path d="M6005.13842,1243.54545 L6134.82961,1243.54545 C6137.83513,1243.54545 6140.27159,1245.9819 6140.27159,1248.98742 L6140.27159,1253.5224 C6140.27159,1256.52792 6137.83513,1258.96438 6134.82961,1258.96438 L6005.13842,1258.96438 C6002.1329,1258.96438 5999.69644,1256.52792 5999.69644,1253.5224 L5999.69644,1248.98742 C5999.69644,1245.9819 6002.1329,1243.54545 6005.13842,1243.54545 Z" id="Rectangle" fill="#27272A" transform="translate(6069.984, 1251.2549) scale(1, -1) rotate(-90) translate(-6069.984, -1251.2549)"></path>
            <path d="M6005.13842,1420.39805 L6134.82961,1420.39805 C6137.83513,1420.39805 6140.27159,1422.8345 6140.27159,1425.84002 L6140.27159,1430.375 C6140.27159,1433.38053 6137.83513,1435.81698 6134.82961,1435.81698 L6005.13842,1435.81698 C6002.1329,1435.81698 5999.69644,1433.38053 5999.69644,1430.375 L5999.69644,1425.84002 C5999.69644,1422.8345 6002.1329,1420.39805 6005.13842,1420.39805 Z" id="Rectangle-Copy" fill="#27272A" transform="translate(6069.984, 1428.1075) scale(1, -1) rotate(-90) translate(-6069.984, -1428.1075)"></path>
            <rect id="Rectangle" fill="#27272A" transform="translate(7723.8913, 1896.5402) scale(1, -1) translate(-7723.8913, -1896.5402)" x="7653.59913" y="1888.83121" width="140.584389" height="15.4179191" rx="5.44197633"></rect>
            <rect id="Rectangle" fill="#27272A" transform="translate(7547.0271, 1896.5402) scale(1, -1) translate(-7547.0271, -1896.5402)" x="7476.7349" y="1888.83121" width="140.584389" height="15.4179191" rx="5.44197633"></rect>
            <rect id="Rectangle" fill="#27272A" transform="translate(7370.1629, 1896.5402) scale(1, -1) translate(-7370.1629, -1896.5402)" x="7299.87067" y="1888.83121" width="140.584389" height="15.4179191" rx="5.44197633"></rect>
            <rect id="Rectangle" fill="#27272A" transform="translate(7193.2986, 1896.5402) scale(1, -1) translate(-7193.2986, -1896.5402)" x="7123.00644" y="1888.83121" width="140.584389" height="15.4179191" rx="5.44197633"></rect>
            <rect id="Rectangle" fill="#27272A" transform="translate(7016.4344, 1896.5402) scale(1, -1) translate(-7016.4344, -1896.5402)" x="6946.1422" y="1888.83121" width="140.584389" height="15.4179191" rx="5.44197633"></rect>
            <rect id="Rectangle" fill="#27272A" transform="translate(6839.5702, 1896.5402) scale(1, -1) translate(-6839.5702, -1896.5402)" x="6769.27797" y="1888.83121" width="140.584389" height="15.4179191" rx="5.44197633"></rect>
            <rect id="Rectangle" fill="#27272A" transform="translate(6662.7059, 1896.5402) scale(1, -1) translate(-6662.7059, -1896.5402)" x="6592.41374" y="1888.83121" width="140.584389" height="15.4179191" rx="5.44197633"></rect>
            <rect id="Rectangle" fill="#27272A" transform="translate(6485.8417, 1896.5402) scale(1, -1) translate(-6485.8417, -1896.5402)" x="6415.54951" y="1888.83121" width="140.584389" height="15.4179191" rx="5.44197633"></rect>
            <rect id="Rectangle" fill="#27272A" transform="translate(6308.9775, 1896.5402) scale(1, -1) translate(-6308.9775, -1896.5402)" x="6238.68528" y="1888.83121" width="140.584389" height="15.4179191" rx="5.44197633"></rect>
            <rect id="Rectangle" fill="#27272A" transform="translate(6132.1132, 1896.5402) scale(1, -1) translate(-6132.1132, -1896.5402)" x="6061.82105" y="1888.83121" width="140.584389" height="15.4179191" rx="5.44197633"></rect>
            <ellipse id="Oval" stroke="#E26701" stroke-width="9.06996056" transform="translate(7871.7317, 1896.5402) scale(1, -1) rotate(-180) translate(-7871.7317, -1896.5402)" cx="7871.73168" cy="1896.54017" rx="36.7333403" ry="36.7306267"></ellipse>
            <ellipse id="Oval" fill="#E26701" transform="translate(6070.4375, 41.2656) scale(1, -1) rotate(-180) translate(-6070.4375, -41.2656)" cx="6070.43751" cy="41.2656069" rx="41.2683205" ry="41.2656069"></ellipse>
            <path d="M6357.95988,2941.33042 L6487.65108,2941.33042 C6490.6566,2941.33042 6493.09305,2943.76687 6493.09305,2946.77239 L6493.09305,2951.30737 C6493.09305,2954.3129 6490.6566,2956.74935 6487.65108,2956.74935 L6357.95988,2956.74935 C6354.95436,2956.74935 6352.51791,2954.3129 6352.51791,2951.30737 L6352.51791,2946.77239 C6352.51791,2943.76687 6354.95436,2941.33042 6357.95988,2941.33042 Z" id="Rectangle" fill="#27272A" transform="translate(6422.8055, 2949.0399) scale(-1, 1) rotate(270) translate(-6422.8055, -2949.0399)"></path>
            <path d="M6357.95988,2764.47782 L6487.65108,2764.47782 C6490.6566,2764.47782 6493.09305,2766.91427 6493.09305,2769.91979 L6493.09305,2774.45477 C6493.09305,2777.46029 6490.6566,2779.89675 6487.65108,2779.89675 L6357.95988,2779.89675 C6354.95436,2779.89675 6352.51791,2777.46029 6352.51791,2774.45477 L6352.51791,2769.91979 C6352.51791,2766.91427 6354.95436,2764.47782 6357.95988,2764.47782 Z" id="Rectangle-Copy" fill="#27272A" transform="translate(6422.8055, 2772.1873) scale(-1, 1) rotate(270) translate(-6422.8055, -2772.1873)"></path>
            <path d="M6357.95988,3648.74082 L6487.65108,3648.74082 C6490.6566,3648.74082 6493.09305,3651.17728 6493.09305,3654.1828 L6493.09305,3658.71778 C6493.09305,3661.7233 6490.6566,3664.15976 6487.65108,3664.15976 L6357.95988,3664.15976 C6354.95436,3664.15976 6352.51791,3661.7233 6352.51791,3658.71778 L6352.51791,3654.1828 C6352.51791,3651.17728 6354.95436,3648.74082 6357.95988,3648.74082 Z" id="Rectangle" fill="#27272A" transform="translate(6422.8055, 3656.4503) scale(-1, 1) rotate(270) translate(-6422.8055, -3656.4503)"></path>
            <path d="M6357.95988,3471.88822 L6487.65108,3471.88822 C6490.6566,3471.88822 6493.09305,3474.32468 6493.09305,3477.3302 L6493.09305,3481.86518 C6493.09305,3484.8707 6490.6566,3487.30715 6487.65108,3487.30715 L6357.95988,3487.30715 C6354.95436,3487.30715 6352.51791,3484.8707 6352.51791,3481.86518 L6352.51791,3477.3302 C6352.51791,3474.32468 6354.95436,3471.88822 6357.95988,3471.88822 Z" id="Rectangle-Copy" fill="#27272A" transform="translate(6422.8055, 3479.5977) scale(-1, 1) rotate(270) translate(-6422.8055, -3479.5977)"></path>
            <path d="M6357.95988,3295.03562 L6487.65108,3295.03562 C6490.6566,3295.03562 6493.09305,3297.47208 6493.09305,3300.4776 L6493.09305,3305.01258 C6493.09305,3308.0181 6490.6566,3310.45455 6487.65108,3310.45455 L6357.95988,3310.45455 C6354.95436,3310.45455 6352.51791,3308.0181 6352.51791,3305.01258 L6352.51791,3300.4776 C6352.51791,3297.47208 6354.95436,3295.03562 6357.95988,3295.03562 Z" id="Rectangle" fill="#27272A" transform="translate(6422.8055, 3302.7451) scale(-1, 1) rotate(270) translate(-6422.8055, -3302.7451)"></path>
            <path d="M6357.95988,3118.18302 L6487.65108,3118.18302 C6490.6566,3118.18302 6493.09305,3120.61947 6493.09305,3123.625 L6493.09305,3128.15998 C6493.09305,3131.1655 6490.6566,3133.60195 6487.65108,3133.60195 L6357.95988,3133.60195 C6354.95436,3133.60195 6352.51791,3131.1655 6352.51791,3128.15998 L6352.51791,3123.625 C6352.51791,3120.61947 6354.95436,3118.18302 6357.95988,3118.18302 Z" id="Rectangle-Copy" fill="#27272A" transform="translate(6422.8055, 3125.8925) scale(-1, 1) rotate(270) translate(-6422.8055, -3125.8925)"></path>
            <rect id="Rectangle" fill="#27272A" transform="translate(4768.8982, 2657.4598) scale(-1, 1) rotate(360) translate(-4768.8982, -2657.4598)" x="4698.60598" y="2649.75087" width="140.584389" height="15.4179191" rx="5.44197633"></rect>
            <rect id="Rectangle" fill="#27272A" transform="translate(4591.8982, 2657.4598) scale(-1, 1) rotate(360) translate(-4591.8982, -2657.4598)" x="4521.60598" y="2649.75087" width="140.584389" height="15.4179191" rx="5.44197633"></rect>
            <rect id="Rectangle" fill="#27272A" transform="translate(4591.8982, 2657.4598) scale(-1, 1) rotate(360) translate(-4591.8982, -2657.4598)" x="4521.60598" y="2649.75087" width="140.584389" height="15.4179191" rx="5.44197655"></rect>
            <rect id="Rectangle" fill="#27272A" transform="translate(4414.8982, 2657.4598) scale(-1, 1) rotate(360) translate(-4414.8982, -2657.4598)" x="4344.60598" y="2649.75087" width="140.584389" height="15.4179191" rx="5.44197655"></rect>
            <rect id="Rectangle" fill="#27272A" transform="translate(4237.8982, 2657.4598) scale(-1, 1) rotate(360) translate(-4237.8982, -2657.4598)" x="4167.60598" y="2649.75087" width="140.584389" height="15.4179191" rx="5.44197655"></rect>
            <rect id="Rectangle" fill="#27272A" transform="translate(4060.8982, 2657.4598) scale(-1, 1) rotate(360) translate(-4060.8982, -2657.4598)" x="3990.60598" y="2649.75087" width="140.584389" height="15.4179191" rx="5.44197655"></rect>
            <rect id="Rectangle" fill="#27272A" transform="translate(3883.8982, 2657.4598) scale(-1, 1) rotate(360) translate(-3883.8982, -2657.4598)" x="3813.60598" y="2649.75087" width="140.584389" height="15.4179191" rx="5.44197655"></rect>
            <rect id="Rectangle" fill="#27272A" transform="translate(3706.8982, 2657.4598) scale(-1, 1) rotate(360) translate(-3706.8982, -2657.4598)" x="3636.60598" y="2649.75087" width="140.584389" height="15.4179191" rx="5.44197655"></rect>
            <rect id="Rectangle" fill="#27272A" transform="translate(4945.7624, 2657.4598) scale(-1, 1) rotate(360) translate(-4945.7624, -2657.4598)" x="4875.47021" y="2649.75087" width="140.584389" height="15.4179191" rx="5.44197633"></rect>
            <rect id="Rectangle" fill="#27272A" transform="translate(5122.6266, 2657.4598) scale(-1, 1) rotate(360) translate(-5122.6266, -2657.4598)" x="5052.33444" y="2649.75087" width="140.584389" height="15.4179191" rx="5.44197633"></rect>
            <rect id="Rectangle" fill="#27272A" transform="translate(5299.4909, 2657.4598) scale(-1, 1) rotate(360) translate(-5299.4909, -2657.4598)" x="5229.19867" y="2649.75087" width="140.584389" height="15.4179191" rx="5.44197633"></rect>
            <rect id="Rectangle" fill="#27272A" transform="translate(5476.3551, 2657.4598) scale(-1, 1) rotate(360) translate(-5476.3551, -2657.4598)" x="5406.0629" y="2649.75087" width="140.584389" height="15.4179191" rx="5.44197633"></rect>
            <rect id="Rectangle" fill="#27272A" transform="translate(5653.2193, 2657.4598) scale(-1, 1) rotate(360) translate(-5653.2193, -2657.4598)" x="5582.92713" y="2649.75087" width="140.584389" height="15.4179191" rx="5.44197633"></rect>
            <rect id="Rectangle" fill="#27272A" transform="translate(5830.0836, 2657.4598) scale(-1, 1) rotate(360) translate(-5830.0836, -2657.4598)" x="5759.79136" y="2649.75087" width="140.584389" height="15.4179191" rx="5.44197633"></rect>
            <rect id="Rectangle" fill="#27272A" transform="translate(6006.9478, 2657.4598) scale(-1, 1) rotate(360) translate(-6006.9478, -2657.4598)" x="5936.65559" y="2649.75087" width="140.584389" height="15.4179191" rx="5.44197633"></rect>
            <rect id="Rectangle" fill="#27272A" transform="translate(6183.812, 2657.4598) scale(-1, 1) rotate(360) translate(-6183.812, -2657.4598)" x="6113.51983" y="2649.75087" width="140.584389" height="15.4179191" rx="5.44197633"></rect>
            <rect id="Rectangle" fill="#27272A" transform="translate(6360.6763, 2657.4598) scale(-1, 1) rotate(360) translate(-6360.6763, -2657.4598)" x="6290.38406" y="2649.75087" width="140.584389" height="15.4179191" rx="5.44197633"></rect>
            <ellipse id="Oval" stroke="#E26701" stroke-width="9.06996056" transform="translate(3559.0578, 2657.4598) scale(-1, 1) rotate(180) translate(-3559.0578, -2657.4598)" cx="3559.05782" cy="2657.45983" rx="36.7333403" ry="36.7306267"></ellipse>
            <ellipse id="Oval" stroke="#E26701" stroke-width="9.06996056" transform="translate(5387.4695, 2411.6801) scale(-1, 1) rotate(180) translate(-5387.4695, -2411.6801)" cx="5387.46948" cy="2411.68006" rx="36.7333403" ry="36.7306267"></ellipse>
            <ellipse id="Oval" fill="#E26701" transform="translate(41.2683, 1795.8702) scale(-1, 1) rotate(180) translate(-41.2683, -1795.8702)" cx="41.2683205" cy="1795.87023" rx="41.2683205" ry="41.2656069"></ellipse>
            <rect id="Rectangle" fill="#27272A" transform="translate(4617.4298, 1795.8702) scale(-1, 1) rotate(180) translate(-4617.4298, -1795.8702)" x="4547.13764" y="1788.16127" width="140.584389" height="15.4179191" rx="5.44197633"></rect>
            <rect id="Rectangle" fill="#27272A" transform="translate(4440.5656, 1795.8702) scale(-1, 1) rotate(180) translate(-4440.5656, -1795.8702)" x="4370.27341" y="1788.16127" width="140.584389" height="15.4179191" rx="5.44197633"></rect>
            <rect id="Rectangle" fill="#27272A" transform="translate(4263.7014, 1795.8702) scale(-1, 1) rotate(180) translate(-4263.7014, -1795.8702)" x="4193.40918" y="1788.16127" width="140.584389" height="15.4179191" rx="5.44197633"></rect>
            <rect id="Rectangle" fill="#27272A" transform="translate(4086.8371, 1795.8702) scale(-1, 1) rotate(180) translate(-4086.8371, -1795.8702)" x="4016.54494" y="1788.16127" width="140.584389" height="15.4179191" rx="5.44197633"></rect>
            <rect id="Rectangle" fill="#27272A" transform="translate(3909.9729, 1795.8702) scale(-1, 1) rotate(180) translate(-3909.9729, -1795.8702)" x="3839.68071" y="1788.16127" width="140.584389" height="15.4179191" rx="5.44197633"></rect>
            <rect id="Rectangle" fill="#27272A" transform="translate(3733.1087, 1795.8702) scale(-1, 1) rotate(180) translate(-3733.1087, -1795.8702)" x="3662.81648" y="1788.16127" width="140.584389" height="15.4179191" rx="5.44197633"></rect>
            <rect id="Rectangle" fill="#27272A" transform="translate(3551.8371, 1795.8702) scale(-1, 1) rotate(180) translate(-3551.8371, -1795.8702)" x="3481.54494" y="1788.16127" width="140.584389" height="15.4179191" rx="5.44197633"></rect>
            <rect id="Rectangle" fill="#27272A" transform="translate(3374.9729, 1795.8702) scale(-1, 1) rotate(180) translate(-3374.9729, -1795.8702)" x="3304.68071" y="1788.16127" width="140.584389" height="15.4179191" rx="5.44197633"></rect>
            <rect id="Rectangle" fill="#27272A" transform="translate(3198.1087, 1795.8702) scale(-1, 1) rotate(180) translate(-3198.1087, -1795.8702)" x="3127.81648" y="1788.16127" width="140.584389" height="15.4179191" rx="5.44197633"></rect>
            <rect id="Rectangle-Copy-2" fill="#27272A" transform="translate(3021.1087, 1795.8702) scale(-1, 1) rotate(180) translate(-3021.1087, -1795.8702)" x="2950.81648" y="1788.16127" width="140.584389" height="15.4179191" rx="5.44197655"></rect>
            <rect id="Rectangle-Copy-2" fill="#27272A" transform="translate(2844.1087, 1795.8702) scale(-1, 1) rotate(180) translate(-2844.1087, -1795.8702)" x="2773.81648" y="1788.16127" width="140.584389" height="15.4179191" rx="5.44197655"></rect>
            <rect id="Rectangle-Copy-2" fill="#27272A" transform="translate(2667.1087, 1795.8702) scale(-1, 1) rotate(180) translate(-2667.1087, -1795.8702)" x="2596.81648" y="1788.16127" width="140.584389" height="15.4179191" rx="5.44197655"></rect>
            <rect id="Rectangle-Copy-2" fill="#27272A" transform="translate(2490.1087, 1795.8702) scale(-1, 1) rotate(180) translate(-2490.1087, -1795.8702)" x="2419.81648" y="1788.16127" width="140.584389" height="15.4179191" rx="5.44197655"></rect>
            <rect id="Rectangle-Copy-2" fill="#27272A" transform="translate(2313.1087, 1795.8702) scale(-1, 1) rotate(180) translate(-2313.1087, -1795.8702)" x="2242.81648" y="1788.16127" width="140.584389" height="15.4179191" rx="5.44197655"></rect>
            <rect id="Rectangle-Copy-2" fill="#27272A" transform="translate(2136.1087, 1795.8702) scale(-1, 1) rotate(180) translate(-2136.1087, -1795.8702)" x="2065.81648" y="1788.16127" width="140.584389" height="15.4179191" rx="5.44197655"></rect>
            <rect id="Rectangle-Copy-2" fill="#27272A" transform="translate(1959.1087, 1795.8702) scale(-1, 1) rotate(180) translate(-1959.1087, -1795.8702)" x="1888.81648" y="1788.16127" width="140.584389" height="15.4179191" rx="5.44197655"></rect>
            <rect id="Rectangle-Copy-2" fill="#27272A" transform="translate(1782.1087, 1795.8702) scale(-1, 1) rotate(180) translate(-1782.1087, -1795.8702)" x="1711.81648" y="1788.16127" width="140.584389" height="15.4179191" rx="5.44197655"></rect>
            <rect id="Rectangle-Copy-2" fill="#27272A" transform="translate(1605.1087, 1795.8702) scale(-1, 1) rotate(180) translate(-1605.1087, -1795.8702)" x="1534.81648" y="1788.16127" width="140.584389" height="15.4179191" rx="5.44197655"></rect>
            <rect id="Rectangle-Copy-2" fill="#27272A" transform="translate(1428.1087, 1795.8702) scale(-1, 1) rotate(180) translate(-1428.1087, -1795.8702)" x="1357.81648" y="1788.16127" width="140.584389" height="15.4179191" rx="5.44197655"></rect>
            <rect id="Rectangle-Copy-2" fill="#27272A" transform="translate(1251.1087, 1795.8702) scale(-1, 1) rotate(180) translate(-1251.1087, -1795.8702)" x="1180.81648" y="1788.16127" width="140.584389" height="15.4179191" rx="5.44197655"></rect>
            <rect id="Rectangle-Copy-2" fill="#27272A" transform="translate(1074.1087, 1795.8702) scale(-1, 1) rotate(180) translate(-1074.1087, -1795.8702)" x="1003.81648" y="1788.16127" width="140.584389" height="15.4179191" rx="5.44197655"></rect>
            <rect id="Rectangle-Copy-2" fill="#27272A" transform="translate(897.1087, 1795.8702) scale(-1, 1) rotate(180) translate(-897.1087, -1795.8702)" x="826.816483" y="1788.16127" width="140.584389" height="15.4179191" rx="5.44197655"></rect>
            <rect id="Rectangle-Copy-2" fill="#27272A" transform="translate(720.1087, 1795.8702) scale(-1, 1) rotate(180) translate(-720.1087, -1795.8702)" x="649.816483" y="1788.16127" width="140.584389" height="15.4179191" rx="5.44197655"></rect>
            <rect id="Rectangle-Copy-2" fill="#27272A" transform="translate(543.1087, 1795.8702) scale(-1, 1) rotate(180) translate(-543.1087, -1795.8702)" x="472.816483" y="1788.16127" width="140.584389" height="15.4179191" rx="5.44197655"></rect>
            <rect id="Rectangle-Copy-2" fill="#27272A" transform="translate(366.1087, 1795.8702) scale(-1, 1) rotate(180) translate(-366.1087, -1795.8702)" x="295.816483" y="1788.16127" width="140.584389" height="15.4179191" rx="5.44197655"></rect>
            <rect id="Rectangle-Copy-2" fill="#27272A" transform="translate(189.1087, 1795.8702) scale(-1, 1) rotate(180) translate(-189.1087, -1795.8702)" x="118.816483" y="1788.16127" width="140.584389" height="15.4179191" rx="5.44197655"></rect>
            <rect id="Rectangle" fill="#27272A" transform="translate(5148.0225, 1795.8702) scale(-1, 1) rotate(180) translate(-5148.0225, -1795.8702)" x="5077.73033" y="1788.16127" width="140.584389" height="15.4179191" rx="5.44197633"></rect>
            <rect id="Rectangle" fill="#27272A" transform="translate(4971.1583, 1795.8702) scale(-1, 1) rotate(180) translate(-4971.1583, -1795.8702)" x="4900.8661" y="1788.16127" width="140.584389" height="15.4179191" rx="5.44197633"></rect>
            <rect id="Rectangle" fill="#27272A" transform="translate(4794.2941, 1795.8702) scale(-1, 1) rotate(180) translate(-4794.2941, -1795.8702)" x="4724.00187" y="1788.16127" width="140.584389" height="15.4179191" rx="5.44197633"></rect>
            <rect id="Rectangle" fill="#27272A" transform="translate(5324.8868, 1795.8702) scale(-1, 1) rotate(180) translate(-5324.8868, -1795.8702)" x="5254.59456" y="1788.16127" width="140.584389" height="15.4179191" rx="5.44197633"></rect>
            <path d="M5322.62389,2079.28735 L5452.31508,2079.28735 C5455.3206,2079.28735 5457.75706,2081.72381 5457.75706,2084.72933 L5457.75706,2089.26431 C5457.75706,2092.26983 5455.3206,2094.70629 5452.31508,2094.70629 L5322.62389,2094.70629 C5319.61837,2094.70629 5317.18191,2092.26983 5317.18191,2089.26431 L5317.18191,2084.72933 C5317.18191,2081.72381 5319.61837,2079.28735 5322.62389,2079.28735 Z" id="Rectangle" fill="#27272A" transform="translate(5387.4695, 2086.9968) scale(-1, 1) rotate(270) translate(-5387.4695, -2086.9968)"></path>
            <path d="M5322.62389,2256.13996 L5452.31508,2256.13996 C5455.3206,2256.13996 5457.75706,2258.57641 5457.75706,2261.58193 L5457.75706,2266.11691 C5457.75706,2269.12243 5455.3206,2271.55889 5452.31508,2271.55889 L5322.62389,2271.55889 C5319.61837,2271.55889 5317.18191,2269.12243 5317.18191,2266.11691 L5317.18191,2261.58193 C5317.18191,2258.57641 5319.61837,2256.13996 5322.62389,2256.13996 Z" id="Rectangle" fill="#27272A" transform="translate(5387.4695, 2263.8494) scale(-1, 1) rotate(270) translate(-5387.4695, -2263.8494)"></path>
            <path d="M5322.62389,1902.43475 L5452.31508,1902.43475 C5455.3206,1902.43475 5457.75706,1904.87121 5457.75706,1907.87673 L5457.75706,1912.41171 C5457.75706,1915.41723 5455.3206,1917.85369 5452.31508,1917.85369 L5322.62389,1917.85369 C5319.61837,1917.85369 5317.18191,1915.41723 5317.18191,1912.41171 L5317.18191,1907.87673 C5317.18191,1904.87121 5319.61837,1902.43475 5322.62389,1902.43475 Z" id="Rectangle" fill="#27272A" transform="translate(5387.4695, 1910.1442) scale(-1, 1) rotate(270) translate(-5387.4695, -1910.1442)"></path>
            <ellipse id="Oval" stroke="#E26701" stroke-width="9.06996056" transform="translate(6776.9874, 3447.4014) scale(-1, 1) rotate(180) translate(-6776.9874, -3447.4014)" cx="6776.98744" cy="3447.40145" rx="36.7333403" ry="36.7306267"></ellipse>
            <ellipse id="Oval" fill="#E26701" transform="translate(5767.5008, 1685.224) scale(-1, 1) rotate(180) translate(-5767.5008, -1685.224)" cx="5767.50083" cy="1685.22399" rx="41.2683205" ry="41.2656069"></ellipse>
            <rect id="Rectangle" fill="#27272A" transform="translate(6183.812, 2301.0338) scale(-1, 1) rotate(180) translate(-6183.812, -2301.0338)" x="6113.51983" y="2293.32486" width="140.584389" height="15.4179191" rx="5.44197633"></rect>
            <rect id="Rectangle" fill="#27272A" transform="translate(6006.9478, 2301.0338) scale(-1, 1) rotate(180) translate(-6006.9478, -2301.0338)" x="5936.65559" y="2293.32486" width="140.584389" height="15.4179191" rx="5.44197633"></rect>
            <rect id="Rectangle" fill="#27272A" transform="translate(5830.0836, 2301.0338) scale(-1, 1) rotate(180) translate(-5830.0836, -2301.0338)" x="5759.79136" y="2293.32486" width="140.584389" height="15.4179191" rx="5.44197633"></rect>
            <rect id="Rectangle" fill="#27272A" transform="translate(6714.4047, 2301.0338) scale(-1, 1) rotate(180) translate(-6714.4047, -2301.0338)" x="6644.11252" y="2293.32486" width="140.584389" height="15.4179191" rx="5.44197633"></rect>
            <rect id="Rectangle" fill="#27272A" transform="translate(6537.5405, 2301.0338) scale(-1, 1) rotate(180) translate(-6537.5405, -2301.0338)" x="6467.24829" y="2293.32486" width="140.584389" height="15.4179191" rx="5.44197633"></rect>
            <rect id="Rectangle" fill="#27272A" transform="translate(6360.6763, 2301.0338) scale(-1, 1) rotate(180) translate(-6360.6763, -2301.0338)" x="6290.38406" y="2293.32486" width="140.584389" height="15.4179191" rx="5.44197633"></rect>
            <path d="M6712.14184,2407.59834 L6841.83304,2407.59834 C6844.83856,2407.59834 6847.27501,2410.03479 6847.27501,2413.04031 L6847.27501,2417.57529 C6847.27501,2420.58081 6844.83856,2423.01727 6841.83304,2423.01727 L6712.14184,2423.01727 C6709.13632,2423.01727 6706.69987,2420.58081 6706.69987,2417.57529 L6706.69987,2413.04031 C6706.69987,2410.03479 6709.13632,2407.59834 6712.14184,2407.59834 Z" id="Rectangle" fill="#27272A" transform="translate(6776.9874, 2415.3078) scale(-1, 1) rotate(270) translate(-6776.9874, -2415.3078)"></path>
            <path d="M6712.14184,2584.45094 L6841.83304,2584.45094 C6844.83856,2584.45094 6847.27501,2586.88739 6847.27501,2589.89291 L6847.27501,2594.42789 C6847.27501,2597.43342 6844.83856,2599.86987 6841.83304,2599.86987 L6712.14184,2599.86987 C6709.13632,2599.86987 6706.69987,2597.43342 6706.69987,2594.42789 L6706.69987,2589.89291 C6706.69987,2586.88739 6709.13632,2584.45094 6712.14184,2584.45094 Z" id="Rectangle" fill="#27272A" transform="translate(6776.9874, 2592.1604) scale(-1, 1) rotate(270) translate(-6776.9874, -2592.1604)"></path>
            <path d="M6712.14184,2761.30354 L6841.83304,2761.30354 C6844.83856,2761.30354 6847.27501,2763.74 6847.27501,2766.74552 L6847.27501,2771.2805 C6847.27501,2774.28602 6844.83856,2776.72247 6841.83304,2776.72247 L6712.14184,2776.72247 C6709.13632,2776.72247 6706.69987,2774.28602 6706.69987,2771.2805 L6706.69987,2766.74552 C6706.69987,2763.74 6709.13632,2761.30354 6712.14184,2761.30354 Z" id="Rectangle" fill="#27272A" transform="translate(6776.9874, 2769.013) scale(-1, 1) rotate(270) translate(-6776.9874, -2769.013)"></path>
            <path d="M6712.14184,2938.15614 L6841.83304,2938.15614 C6844.83856,2938.15614 6847.27501,2940.5926 6847.27501,2943.59812 L6847.27501,2948.1331 C6847.27501,2951.13862 6844.83856,2953.57507 6841.83304,2953.57507 L6712.14184,2953.57507 C6709.13632,2953.57507 6706.69987,2951.13862 6706.69987,2948.1331 L6706.69987,2943.59812 C6706.69987,2940.5926 6709.13632,2938.15614 6712.14184,2938.15614 Z" id="Rectangle" fill="#27272A" transform="translate(6776.9874, 2945.8656) scale(-1, 1) rotate(270) translate(-6776.9874, -2945.8656)"></path>
            <path d="M6712.14184,3115.00874 L6841.83304,3115.00874 C6844.83856,3115.00874 6847.27501,3117.4452 6847.27501,3120.45072 L6847.27501,3124.9857 C6847.27501,3127.99122 6844.83856,3130.42767 6841.83304,3130.42767 L6712.14184,3130.42767 C6709.13632,3130.42767 6706.69987,3127.99122 6706.69987,3124.9857 L6706.69987,3120.45072 C6706.69987,3117.4452 6709.13632,3115.00874 6712.14184,3115.00874 Z" id="Rectangle" fill="#27272A" transform="translate(6776.9874, 3122.7182) scale(-1, 1) rotate(270) translate(-6776.9874, -3122.7182)"></path>
            <path d="M6712.14184,3291.86134 L6841.83304,3291.86134 C6844.83856,3291.86134 6847.27501,3294.2978 6847.27501,3297.30332 L6847.27501,3301.8383 C6847.27501,3304.84382 6844.83856,3307.28028 6841.83304,3307.28028 L6712.14184,3307.28028 C6709.13632,3307.28028 6706.69987,3304.84382 6706.69987,3301.8383 L6706.69987,3297.30332 C6706.69987,3294.2978 6709.13632,3291.86134 6712.14184,3291.86134 Z" id="Rectangle" fill="#27272A" transform="translate(6776.9874, 3299.5708) scale(-1, 1) rotate(270) translate(-6776.9874, -3299.5708)"></path>
            <path d="M5702.65523,1825.34516 L5832.34643,1825.34516 C5835.35195,1825.34516 5837.7884,1827.78161 5837.7884,1830.78713 L5837.7884,1835.32211 C5837.7884,1838.32763 5835.35195,1840.76409 5832.34643,1840.76409 L5702.65523,1840.76409 C5699.64971,1840.76409 5697.21326,1838.32763 5697.21326,1835.32211 L5697.21326,1830.78713 C5697.21326,1827.78161 5699.64971,1825.34516 5702.65523,1825.34516 Z" id="Rectangle" fill="#27272A" transform="translate(5767.5008, 1833.0546) scale(-1, 1) rotate(270) translate(-5767.5008, -1833.0546)"></path>
            <path d="M5702.65523,2002.19776 L5832.34643,2002.19776 C5835.35195,2002.19776 5837.7884,2004.63421 5837.7884,2007.63974 L5837.7884,2012.17472 C5837.7884,2015.18024 5835.35195,2017.61669 5832.34643,2017.61669 L5702.65523,2017.61669 C5699.64971,2017.61669 5697.21326,2015.18024 5697.21326,2012.17472 L5697.21326,2007.63974 C5697.21326,2004.63421 5699.64971,2002.19776 5702.65523,2002.19776 Z" id="Rectangle" fill="#27272A" transform="translate(5767.5008, 2009.9072) scale(-1, 1) rotate(270) translate(-5767.5008, -2009.9072)"></path>
            <path d="M5702.65523,2179.05036 L5832.34643,2179.05036 C5835.35195,2179.05036 5837.7884,2181.48682 5837.7884,2184.49234 L5837.7884,2189.02732 C5837.7884,2192.03284 5835.35195,2194.46929 5832.34643,2194.46929 L5702.65523,2194.46929 C5699.64971,2194.46929 5697.21326,2192.03284 5697.21326,2189.02732 L5697.21326,2184.49234 C5697.21326,2181.48682 5699.64971,2179.05036 5702.65523,2179.05036 Z" id="Rectangle" fill="#27272A" transform="translate(5767.5008, 2186.7598) scale(-1, 1) rotate(270) translate(-5767.5008, -2186.7598)"></path>
            <ellipse id="Oval-Copy-2" stroke="#E26701" stroke-width="9.06996056" transform="translate(6181.091, 3509.9801) scale(-1, 1) rotate(180) translate(-6181.091, -3509.9801)" cx="6181.09103" cy="3509.98006" rx="36.7333403" ry="36.7306267"></ellipse>
            <ellipse id="Oval-Copy" fill="#E26701" transform="translate(3054.4965, 2453.3991) scale(-1, 1) rotate(180) translate(-3054.4965, -2453.3991)" cx="3054.49647" cy="2453.39913" rx="41.2683205" ry="41.2656069"></ellipse>
            <rect id="Rectangle" fill="#27272A" transform="translate(5502.658, 3514.5147) scale(-1, 1) rotate(180) translate(-5502.658, -3514.5147)" x="5432.36579" y="3506.80578" width="140.584389" height="15.4179191" rx="5.44197633"></rect>
            <rect id="Rectangle" fill="#27272A" transform="translate(5325.7938, 3514.5147) scale(-1, 1) rotate(180) translate(-5325.7938, -3514.5147)" x="5255.50156" y="3506.80578" width="140.584389" height="15.4179191" rx="5.44197633"></rect>
            <rect id="Rectangle" fill="#27272A" transform="translate(5148.9295, 3514.5147) scale(-1, 1) rotate(180) translate(-5148.9295, -3514.5147)" x="5078.63733" y="3506.80578" width="140.584389" height="15.4179191" rx="5.44197633"></rect>
            <rect id="Rectangle" fill="#27272A" transform="translate(6033.2507, 3514.5147) scale(-1, 1) rotate(180) translate(-6033.2507, -3514.5147)" x="5962.95848" y="3506.80578" width="140.584389" height="15.4179191" rx="5.44197633"></rect>
            <rect id="Rectangle" fill="#27272A" transform="translate(5856.3864, 3514.5147) scale(-1, 1) rotate(180) translate(-5856.3864, -3514.5147)" x="5786.09425" y="3506.80578" width="140.584389" height="15.4179191" rx="5.44197633"></rect>
            <rect id="Rectangle" fill="#27272A" transform="translate(5679.5222, 3514.5147) scale(-1, 1) rotate(180) translate(-5679.5222, -3514.5147)" x="5609.23002" y="3506.80578" width="140.584389" height="15.4179191" rx="5.44197633"></rect>
            <path d="M4969.80242,2559.96365 L5099.49361,2559.96365 C5102.49913,2559.96365 5104.93559,2562.40011 5104.93559,2565.40563 L5104.93559,2569.94061 C5104.93559,2572.94613 5102.49913,2575.38259 5099.49361,2575.38259 L4969.80242,2575.38259 C4966.7969,2575.38259 4964.36045,2572.94613 4964.36045,2569.94061 L4964.36045,2565.40563 C4964.36045,2562.40011 4966.7969,2559.96365 4969.80242,2559.96365 Z" id="Rectangle" fill="#27272A" transform="translate(5034.648, 2567.6731) scale(-1, 1) rotate(270) translate(-5034.648, -2567.6731)"></path>
            <path d="M4969.80242,2736.81626 L5099.49361,2736.81626 C5102.49913,2736.81626 5104.93559,2739.25271 5104.93559,2742.25823 L5104.93559,2746.79321 C5104.93559,2749.79873 5102.49913,2752.23519 5099.49361,2752.23519 L4969.80242,2752.23519 C4966.7969,2752.23519 4964.36045,2749.79873 4964.36045,2746.79321 L4964.36045,2742.25823 C4964.36045,2739.25271 4966.7969,2736.81626 4969.80242,2736.81626 Z" id="Rectangle" fill="#27272A" transform="translate(5034.648, 2744.5257) scale(-1, 1) rotate(270) translate(-5034.648, -2744.5257)"></path>
            <path d="M4969.80242,2913.66886 L5099.49361,2913.66886 C5102.49913,2913.66886 5104.93559,2916.10531 5104.93559,2919.11083 L5104.93559,2923.64581 C5104.93559,2926.65133 5102.49913,2929.08779 5099.49361,2929.08779 L4969.80242,2929.08779 C4966.7969,2929.08779 4964.36045,2926.65133 4964.36045,2923.64581 L4964.36045,2919.11083 C4964.36045,2916.10531 4966.7969,2913.66886 4969.80242,2913.66886 Z" id="Rectangle" fill="#27272A" transform="translate(5034.648, 2921.3783) scale(-1, 1) rotate(270) translate(-5034.648, -2921.3783)"></path>
            <path d="M4969.80242,3090.52146 L5099.49361,3090.52146 C5102.49913,3090.52146 5104.93559,3092.95791 5104.93559,3095.96343 L5104.93559,3100.49841 C5104.93559,3103.50394 5102.49913,3105.94039 5099.49361,3105.94039 L4969.80242,3105.94039 C4966.7969,3105.94039 4964.36045,3103.50394 4964.36045,3100.49841 L4964.36045,3095.96343 C4964.36045,3092.95791 4966.7969,3090.52146 4969.80242,3090.52146 Z" id="Rectangle" fill="#27272A" transform="translate(5034.648, 3098.2309) scale(-1, 1) rotate(270) translate(-5034.648, -3098.2309)"></path>
            <path d="M4969.80242,3267.37406 L5099.49361,3267.37406 C5102.49913,3267.37406 5104.93559,3269.81052 5104.93559,3272.81604 L5104.93559,3277.35102 C5104.93559,3280.35654 5102.49913,3282.79299 5099.49361,3282.79299 L4969.80242,3282.79299 C4966.7969,3282.79299 4964.36045,3280.35654 4964.36045,3277.35102 L4964.36045,3272.81604 C4964.36045,3269.81052 4966.7969,3267.37406 4969.80242,3267.37406 Z" id="Rectangle" fill="#27272A" transform="translate(5034.648, 3275.0835) scale(-1, 1) rotate(270) translate(-5034.648, -3275.0835)"></path>
            <path d="M4969.80242,3444.22666 L5099.49361,3444.22666 C5102.49913,3444.22666 5104.93559,3446.66312 5104.93559,3449.66864 L5104.93559,3454.20362 C5104.93559,3457.20914 5102.49913,3459.64559 5099.49361,3459.64559 L4969.80242,3459.64559 C4966.7969,3459.64559 4964.36045,3457.20914 4964.36045,3454.20362 L4964.36045,3449.66864 C4964.36045,3446.66312 4966.7969,3444.22666 4969.80242,3444.22666 Z" id="Rectangle" fill="#27272A" transform="translate(5034.648, 3451.9361) scale(-1, 1) rotate(270) translate(-5034.648, -3451.9361)"></path>
            <rect id="Rectangle" fill="#27272A" transform="translate(4972.0653, 2453.3991) scale(-1, 1) rotate(180) translate(-4972.0653, -2453.3991)" x="4901.7731" y="2445.69017" width="140.584389" height="15.4179191" rx="5.44197633"></rect>
            <rect id="Rectangle" fill="#27272A" transform="translate(4795.2011, 2453.3991) scale(-1, 1) rotate(180) translate(-4795.2011, -2453.3991)" x="4724.90886" y="2445.69017" width="140.584389" height="15.4179191" rx="5.44197633"></rect>
            <rect id="Rectangle" fill="#27272A" transform="translate(4618.3368, 2453.3991) scale(-1, 1) rotate(180) translate(-4618.3368, -2453.3991)" x="4548.04463" y="2445.69017" width="140.584389" height="15.4179191" rx="5.44197633"></rect>
            <rect id="Rectangle" fill="#27272A" transform="translate(4441.3368, 2453.3991) scale(-1, 1) rotate(180) translate(-4441.3368, -2453.3991)" x="4371.04463" y="2445.69017" width="140.584389" height="15.4179191" rx="5.44197633"></rect>
            <rect id="Rectangle" fill="#27272A" transform="translate(4264.3368, 2453.3991) scale(-1, 1) rotate(180) translate(-4264.3368, -2453.3991)" x="4194.04463" y="2445.69017" width="140.584389" height="15.4179191" rx="5.44197633"></rect>
            <rect id="Rectangle" fill="#27272A" transform="translate(4087.3368, 2453.3991) scale(-1, 1) rotate(180) translate(-4087.3368, -2453.3991)" x="4017.04463" y="2445.69017" width="140.584389" height="15.4179191" rx="5.44197633"></rect>
            <rect id="Rectangle" fill="#27272A" transform="translate(3910.3368, 2453.3991) scale(-1, 1) rotate(180) translate(-3910.3368, -2453.3991)" x="3840.04463" y="2445.69017" width="140.584389" height="15.4179191" rx="5.44197633"></rect>
            <rect id="Rectangle" fill="#27272A" transform="translate(3733.3368, 2453.3991) scale(-1, 1) rotate(180) translate(-3733.3368, -2453.3991)" x="3663.04463" y="2445.69017" width="140.584389" height="15.4179191" rx="5.44197633"></rect>
            <rect id="Rectangle" fill="#27272A" transform="translate(3556.3368, 2453.3991) scale(-1, 1) rotate(180) translate(-3556.3368, -2453.3991)" x="3486.04463" y="2445.69017" width="140.584389" height="15.4179191" rx="5.44197633"></rect>
            <rect id="Rectangle" fill="#27272A" transform="translate(3379.3368, 2453.3991) scale(-1, 1) rotate(180) translate(-3379.3368, -2453.3991)" x="3309.04463" y="2445.69017" width="140.584389" height="15.4179191" rx="5.44197633"></rect>
            <rect id="Rectangle" fill="#27272A" transform="translate(3202.3368, 2453.3991) scale(-1, 1) rotate(180) translate(-3202.3368, -2453.3991)" x="3132.04463" y="2445.69017" width="140.584389" height="15.4179191" rx="5.44197633"></rect>
            <ellipse id="Oval-Copy-2" stroke="#E26701" stroke-width="9.06996056" transform="translate(4090.4651, 2297.4061) rotate(180) translate(-4090.4651, -2297.4061)" cx="4090.46512" cy="2297.40607" rx="36.7333403" ry="36.7306267"></ellipse>
            <ellipse id="Oval-Copy" fill="#E26701" transform="translate(5801.0597, 1240.8251) rotate(180) translate(-5801.0597, -1240.8251)" cx="5801.05968" cy="1240.82514" rx="41.2683205" ry="41.2656069"></ellipse>
            <rect id="Rectangle" fill="#27272A" transform="translate(4768.8982, 2301.9408) rotate(180) translate(-4768.8982, -2301.9408)" x="4698.60598" y="2294.23179" width="140.584389" height="15.4179191" rx="5.44197633"></rect>
            <rect id="Rectangle" fill="#27272A" transform="translate(4945.7624, 2301.9408) rotate(180) translate(-4945.7624, -2301.9408)" x="4875.47021" y="2294.23179" width="140.584389" height="15.4179191" rx="5.44197633"></rect>
            <rect id="Rectangle" fill="#27272A" transform="translate(5122.6266, 2301.9408) rotate(180) translate(-5122.6266, -2301.9408)" x="5052.33444" y="2294.23179" width="140.584389" height="15.4179191" rx="5.44197633"></rect>
            <rect id="Rectangle" fill="#27272A" transform="translate(4238.3055, 2301.9408) rotate(180) translate(-4238.3055, -2301.9408)" x="4168.01329" y="2294.23179" width="140.584389" height="15.4179191" rx="5.44197633"></rect>
            <rect id="Rectangle" fill="#27272A" transform="translate(4415.1697, 2301.9408) rotate(180) translate(-4415.1697, -2301.9408)" x="4344.87752" y="2294.23179" width="140.584389" height="15.4179191" rx="5.44197633"></rect>
            <rect id="Rectangle" fill="#27272A" transform="translate(4592.0339, 2301.9408) rotate(180) translate(-4592.0339, -2301.9408)" x="4521.74175" y="2294.23179" width="140.584389" height="15.4179191" rx="5.44197633"></rect>
            <path d="M5172.06254,1347.38967 L5301.75373,1347.38967 C5304.75925,1347.38967 5307.19571,1349.82612 5307.19571,1352.83164 L5307.19571,1357.36662 C5307.19571,1360.37214 5304.75925,1362.8086 5301.75373,1362.8086 L5172.06254,1362.8086 C5169.05702,1362.8086 5166.62057,1360.37214 5166.62057,1357.36662 L5166.62057,1352.83164 C5166.62057,1349.82612 5169.05702,1347.38967 5172.06254,1347.38967 Z" id="Rectangle" fill="#27272A" transform="translate(5236.9081, 1355.0991) rotate(270) translate(-5236.9081, -1355.0991)"></path>
            <path d="M5172.06254,1524.24227 L5301.75373,1524.24227 C5304.75925,1524.24227 5307.19571,1526.67872 5307.19571,1529.68424 L5307.19571,1534.21922 C5307.19571,1537.22474 5304.75925,1539.6612 5301.75373,1539.6612 L5172.06254,1539.6612 C5169.05702,1539.6612 5166.62057,1537.22474 5166.62057,1534.21922 L5166.62057,1529.68424 C5166.62057,1526.67872 5169.05702,1524.24227 5172.06254,1524.24227 Z" id="Rectangle" fill="#27272A" transform="translate(5236.9081, 1531.9517) rotate(270) translate(-5236.9081, -1531.9517)"></path>
            <path d="M5172.06254,1701.09487 L5301.75373,1701.09487 C5304.75925,1701.09487 5307.19571,1703.53132 5307.19571,1706.53685 L5307.19571,1711.07183 C5307.19571,1714.07735 5304.75925,1716.5138 5301.75373,1716.5138 L5172.06254,1716.5138 C5169.05702,1716.5138 5166.62057,1714.07735 5166.62057,1711.07183 L5166.62057,1706.53685 C5166.62057,1703.53132 5169.05702,1701.09487 5172.06254,1701.09487 Z" id="Rectangle" fill="#27272A" transform="translate(5236.9081, 1708.8043) rotate(270) translate(-5236.9081, -1708.8043)"></path>
            <path d="M5172.06254,1877.94747 L5301.75373,1877.94747 C5304.75925,1877.94747 5307.19571,1880.38393 5307.19571,1883.38945 L5307.19571,1887.92443 C5307.19571,1890.92995 5304.75925,1893.3664 5301.75373,1893.3664 L5172.06254,1893.3664 C5169.05702,1893.3664 5166.62057,1890.92995 5166.62057,1887.92443 L5166.62057,1883.38945 C5166.62057,1880.38393 5169.05702,1877.94747 5172.06254,1877.94747 Z" id="Rectangle" fill="#27272A" transform="translate(5236.9081, 1885.6569) rotate(270) translate(-5236.9081, -1885.6569)"></path>
            <path d="M5172.06254,2054.80007 L5301.75373,2054.80007 C5304.75925,2054.80007 5307.19571,2057.23653 5307.19571,2060.24205 L5307.19571,2064.77703 C5307.19571,2067.78255 5304.75925,2070.219 5301.75373,2070.219 L5172.06254,2070.219 C5169.05702,2070.219 5166.62057,2067.78255 5166.62057,2064.77703 L5166.62057,2060.24205 C5166.62057,2057.23653 5169.05702,2054.80007 5172.06254,2054.80007 Z" id="Rectangle" fill="#27272A" transform="translate(5236.9081, 2062.5095) rotate(270) translate(-5236.9081, -2062.5095)"></path>
            <path d="M5172.06254,2231.65267 L5301.75373,2231.65267 C5304.75925,2231.65267 5307.19571,2234.08913 5307.19571,2237.09465 L5307.19571,2241.62963 C5307.19571,2244.63515 5304.75925,2247.07161 5301.75373,2247.07161 L5172.06254,2247.07161 C5169.05702,2247.07161 5166.62057,2244.63515 5166.62057,2241.62963 L5166.62057,2237.09465 C5166.62057,2234.08913 5169.05702,2231.65267 5172.06254,2231.65267 Z" id="Rectangle" fill="#27272A" transform="translate(5236.9081, 2239.3621) rotate(270) translate(-5236.9081, -2239.3621)"></path>
            <rect id="Rectangle" fill="#27272A" transform="translate(5299.4909, 1240.8251) rotate(180) translate(-5299.4909, -1240.8251)" x="5229.19867" y="1233.11618" width="140.584389" height="15.4179191" rx="5.44197633"></rect>
            <rect id="Rectangle" fill="#27272A" transform="translate(5476.3551, 1240.8251) rotate(180) translate(-5476.3551, -1240.8251)" x="5406.0629" y="1233.11618" width="140.584389" height="15.4179191" rx="5.44197633"></rect>
            <rect id="Rectangle" fill="#27272A" transform="translate(5653.2193, 1240.8251) rotate(180) translate(-5653.2193, -1240.8251)" x="5582.92713" y="1233.11618" width="140.584389" height="15.4179191" rx="5.44197633"></rect>
            <ellipse id="Oval" fill="#E26701" transform="translate(6422.352, 3804.7344) scale(-1, 1) rotate(180) translate(-6422.352, -3804.7344)" cx="6422.35198" cy="3804.73439" rx="41.2683205" ry="41.2656069"></ellipse>
            <rect id="Rectangle" fill="#27272A" transform="translate(5274.095, 1092.0876) rotate(360) translate(-5274.095, -1092.0876)" x="5203.80278" y="1084.37861" width="140.584389" height="15.4179191" rx="5.44197633"></rect>
            <rect id="Rectangle-Copy" fill="#27272A" transform="translate(5450.9592, 1092.0876) rotate(360) translate(-5450.9592, -1092.0876)" x="5380.66701" y="1084.37861" width="140.584389" height="15.4179191" rx="5.44197633"></rect>
            <rect id="Rectangle" fill="#27272A" transform="translate(4566.6381, 1092.0876) rotate(360) translate(-4566.6381, -1092.0876)" x="4496.34586" y="1084.37861" width="140.584389" height="15.4179191" rx="5.44197633"></rect>
            <rect id="Rectangle" fill="#27272A" transform="translate(4389.6381, 1092.0876) rotate(360) translate(-4389.6381, -1092.0876)" x="4319.34586" y="1084.37861" width="140.584389" height="15.4179191" rx="5.44197633"></rect>
            <rect id="Rectangle" fill="#27272A" transform="translate(4212.6381, 1092.0876) rotate(360) translate(-4212.6381, -1092.0876)" x="4142.34586" y="1084.37861" width="140.584389" height="15.4179191" rx="5.44197633"></rect>
            <rect id="Rectangle" fill="#27272A" transform="translate(4035.6381, 1092.0876) rotate(360) translate(-4035.6381, -1092.0876)" x="3965.34586" y="1084.37861" width="140.584389" height="15.4179191" rx="5.44197633"></rect>
            <rect id="Rectangle" fill="#27272A" transform="translate(3858.6381, 1092.0876) rotate(360) translate(-3858.6381, -1092.0876)" x="3788.34586" y="1084.37861" width="140.584389" height="15.4179191" rx="5.44197633"></rect>
            <rect id="Rectangle" fill="#27272A" transform="translate(3681.6381, 1092.0876) rotate(360) translate(-3681.6381, -1092.0876)" x="3611.34586" y="1084.37861" width="140.584389" height="15.4179191" rx="5.44197633"></rect>
            <rect id="Rectangle-Copy" fill="#27272A" transform="translate(4743.5023, 1092.0876) rotate(360) translate(-4743.5023, -1092.0876)" x="4673.21009" y="1084.37861" width="140.584389" height="15.4179191" rx="5.44197633"></rect>
            <rect id="Rectangle" fill="#27272A" transform="translate(4920.3665, 1092.0876) rotate(360) translate(-4920.3665, -1092.0876)" x="4850.07432" y="1084.37861" width="140.584389" height="15.4179191" rx="5.44197633"></rect>
            <rect id="Rectangle-Copy" fill="#27272A" transform="translate(5097.2307, 1092.0876) rotate(360) translate(-5097.2307, -1092.0876)" x="5026.93855" y="1084.37861" width="140.584389" height="15.4179191" rx="5.44197633"></rect>
            <path d="M5500.84861,2738.17666 L5630.5398,2738.17666 C5633.54532,2738.17666 5635.98178,2740.61312 5635.98178,2743.61864 L5635.98178,2748.15362 C5635.98178,2751.15914 5633.54532,2753.59559 5630.5398,2753.59559 L5500.84861,2753.59559 C5497.84309,2753.59559 5495.40664,2751.15914 5495.40664,2748.15362 L5495.40664,2743.61864 C5495.40664,2740.61312 5497.84309,2738.17666 5500.84861,2738.17666 Z" id="Rectangle" fill="#27272A" transform="translate(5565.6942, 2745.8861) rotate(450) translate(-5565.6942, -2745.8861)"></path>
            <path d="M5500.84861,2561.32406 L5630.5398,2561.32406 C5633.54532,2561.32406 5635.98178,2563.76052 5635.98178,2566.76604 L5635.98178,2571.30102 C5635.98178,2574.30654 5633.54532,2576.74299 5630.5398,2576.74299 L5500.84861,2576.74299 C5497.84309,2576.74299 5495.40664,2574.30654 5495.40664,2571.30102 L5495.40664,2566.76604 C5495.40664,2563.76052 5497.84309,2561.32406 5500.84861,2561.32406 Z" id="Rectangle" fill="#27272A" transform="translate(5565.6942, 2569.0335) rotate(450) translate(-5565.6942, -2569.0335)"></path>
            <path d="M5500.84861,2384.47146 L5630.5398,2384.47146 C5633.54532,2384.47146 5635.98178,2386.90791 5635.98178,2389.91343 L5635.98178,2394.44841 C5635.98178,2397.45394 5633.54532,2399.89039 5630.5398,2399.89039 L5500.84861,2399.89039 C5497.84309,2399.89039 5495.40664,2397.45394 5495.40664,2394.44841 L5495.40664,2389.91343 C5495.40664,2386.90791 5497.84309,2384.47146 5500.84861,2384.47146 Z" id="Rectangle" fill="#27272A" transform="translate(5565.6942, 2392.1809) rotate(450) translate(-5565.6942, -2392.1809)"></path>
            <path d="M5500.84861,2207.61886 L5630.5398,2207.61886 C5633.54532,2207.61886 5635.98178,2210.05531 5635.98178,2213.06083 L5635.98178,2217.59581 C5635.98178,2220.60133 5633.54532,2223.03779 5630.5398,2223.03779 L5500.84861,2223.03779 C5497.84309,2223.03779 5495.40664,2220.60133 5495.40664,2217.59581 L5495.40664,2213.06083 C5495.40664,2210.05531 5497.84309,2207.61886 5500.84861,2207.61886 Z" id="Rectangle" fill="#27272A" transform="translate(5565.6942, 2215.3283) rotate(450) translate(-5565.6942, -2215.3283)"></path>
            <path d="M5500.84861,2030.76626 L5630.5398,2030.76626 C5633.54532,2030.76626 5635.98178,2033.20271 5635.98178,2036.20823 L5635.98178,2040.74321 C5635.98178,2043.74873 5633.54532,2046.18519 5630.5398,2046.18519 L5500.84861,2046.18519 C5497.84309,2046.18519 5495.40664,2043.74873 5495.40664,2040.74321 L5495.40664,2036.20823 C5495.40664,2033.20271 5497.84309,2030.76626 5500.84861,2030.76626 Z" id="Rectangle" fill="#27272A" transform="translate(5565.6942, 2038.4757) rotate(450) translate(-5565.6942, -2038.4757)"></path>
            <path d="M5500.84861,1853.91365 L5630.5398,1853.91365 C5633.54532,1853.91365 5635.98178,1856.35011 5635.98178,1859.35563 L5635.98178,1863.89061 C5635.98178,1866.89613 5633.54532,1869.33259 5630.5398,1869.33259 L5500.84861,1869.33259 C5497.84309,1869.33259 5495.40664,1866.89613 5495.40664,1863.89061 L5495.40664,1859.35563 C5495.40664,1856.35011 5497.84309,1853.91365 5500.84861,1853.91365 Z" id="Rectangle" fill="#27272A" transform="translate(5565.6942, 1861.6231) rotate(450) translate(-5565.6942, -1861.6231)"></path>
            <path d="M5500.84861,1677.06105 L5630.5398,1677.06105 C5633.54532,1677.06105 5635.98178,1679.49751 5635.98178,1682.50303 L5635.98178,1687.03801 C5635.98178,1690.04353 5633.54532,1692.47999 5630.5398,1692.47999 L5500.84861,1692.47999 C5497.84309,1692.47999 5495.40664,1690.04353 5495.40664,1687.03801 L5495.40664,1682.50303 C5495.40664,1679.49751 5497.84309,1677.06105 5500.84861,1677.06105 Z" id="Rectangle" fill="#27272A" transform="translate(5565.6942, 1684.7705) rotate(450) translate(-5565.6942, -1684.7705)"></path>
            <path d="M5500.84861,1500.20845 L5630.5398,1500.20845 C5633.54532,1500.20845 5635.98178,1502.64491 5635.98178,1505.65043 L5635.98178,1510.18541 C5635.98178,1513.19093 5633.54532,1515.62739 5630.5398,1515.62739 L5500.84861,1515.62739 C5497.84309,1515.62739 5495.40664,1513.19093 5495.40664,1510.18541 L5495.40664,1505.65043 C5495.40664,1502.64491 5497.84309,1500.20845 5500.84861,1500.20845 Z" id="Rectangle" fill="#27272A" transform="translate(5565.6942, 1507.9179) rotate(450) translate(-5565.6942, -1507.9179)"></path>
            <path d="M5500.84861,1323.35585 L5630.5398,1323.35585 C5633.54532,1323.35585 5635.98178,1325.79231 5635.98178,1328.79783 L5635.98178,1333.33281 C5635.98178,1336.33833 5633.54532,1338.77478 5630.5398,1338.77478 L5500.84861,1338.77478 C5497.84309,1338.77478 5495.40664,1336.33833 5495.40664,1333.33281 L5495.40664,1328.79783 C5495.40664,1325.79231 5497.84309,1323.35585 5500.84861,1323.35585 Z" id="Rectangle" fill="#27272A" transform="translate(5565.6942, 1331.0653) rotate(450) translate(-5565.6942, -1331.0653)"></path>
            <path d="M5500.84861,1146.50325 L5630.5398,1146.50325 C5633.54532,1146.50325 5635.98178,1148.93971 5635.98178,1151.94523 L5635.98178,1156.48021 C5635.98178,1159.48573 5633.54532,1161.92218 5630.5398,1161.92218 L5500.84861,1161.92218 C5497.84309,1161.92218 5495.40664,1159.48573 5495.40664,1156.48021 L5495.40664,1151.94523 C5495.40664,1148.93971 5497.84309,1146.50325 5500.84861,1146.50325 Z" id="Rectangle" fill="#27272A" transform="translate(5565.6942, 1154.2127) rotate(450) translate(-5565.6942, -1154.2127)"></path>
            <ellipse id="Oval" stroke="#E26701" stroke-width="9.06996056" transform="translate(5565.6942, 2893.7168) rotate(270) translate(-5565.6942, -2893.7168)" cx="5565.69421" cy="2893.71676" rx="36.7306267" ry="36.7333403"></ellipse>
            <ellipse id="Oval" fill="#E26701" transform="translate(3533.3442, 1092.541) rotate(270) translate(-3533.3442, -1092.541)" cx="3533.3442" cy="1092.54104" rx="41.2656069" ry="41.2683205"></ellipse>
        </g>
    </g>
</svg>