<?xml version="1.0" encoding="UTF-8"?>
<svg width="859px" height="1013px" viewBox="0 0 859 1013" version="1.1" xmlns="http://www.w3.org/2000/svg" xmlns:xlink="http://www.w3.org/1999/xlink">
    <title>cv</title>
    <g id="Page-1" stroke="none" stroke-width="1" fill="none" fill-rule="evenodd">
        <g id="cv" transform="translate(0, 0)" fill-rule="nonzero">
            <rect id="Rectangle" fill="#3F3F46" x="107.752132" y="0.00201166691" width="751.247868" height="1012.99783" rx="36.2047165"></rect>
            <rect id="Rectangle" fill="#D9D9DA" x="59.371425" y="0.00201166691" width="751.247868" height="1012.99783" rx="36.2047165"></rect>
            <path d="M755.234696,36.2112957 L755.234696,335.90778 L810.619456,335.90778 L810.619456,36.2112957 C810.64821,26.5804537 806.82826,17.3372922 800.008945,10.5373543 C793.189629,3.73741642 783.936323,-0.05552958 774.306824,0 L716.443929,0 C736.960322,-0.205896118 754.028841,15.7267312 755.234696,36.2112957 L755.234696,36.2112957 Z" id="Path" fill="#FFFFFF"></path>
            <path d="M755.234858,813.417713 L755.234858,976.790554 C755.263429,986.402634 751.458241,995.629313 744.662302,1002.42611 C737.866362,1009.22291 728.640847,1013.02857 719.02998,1013 L555.893251,1013 C560.989862,1010.69099 565.6262,1007.47801 569.577772,1003.51645 C760.083542,812.878885 750.278098,824.517583 755.234858,813.417713 L755.234858,813.417713 Z" id="Path" fill="#C5C5C8"></path>
            <path d="M755.234858,876.78396 L755.234858,976.790554 C755.263429,986.402634 751.458241,995.629313 744.662302,1002.42611 C737.866362,1009.22291 728.640847,1013.02857 719.02998,1013 L619.251505,1013 L755.234858,876.78396 Z" id="Path" fill="#3F3F46"></path>
            <path d="M751.247868,813.417713 C746.506774,824.194286 756.41997,812.555588 569.362268,999.529123 C560.8367,1008.05307 549.306702,1012.89009 537.252132,1012.99984 L39.1140241,1012.99984 C17.553955,1012.99984 0.0593941295,995.551353 0,973.988646 L0,39.0132046 C0.0593941295,17.4504974 17.553955,0.00201166691 39.1140241,0.00201166691 L716.443929,0.00201166691 C726.789035,0.00201166691 736.710433,4.11210769 744.025528,11.4281255 C751.340623,18.7441434 755.450201,28.6667929 755.450201,39.0132046 C755.450201,856.308472 757.389739,800.485826 751.247868,813.417713 Z" id="Path" fill="#ECECED"></path>
            <path d="M379.718515,94.2970221 L379.718515,590.558192 C379.718515,606.883475 392.919483,620.134402 409.242599,620.193768 L516.994732,620.193768 C524.828199,620.193768 532.344005,617.096717 537.898645,611.572508 L682.286503,467.274201 C687.928909,461.53359 691.034011,453.769855 690.906673,445.721055 L690.906673,94.2970221 C690.906725,86.4184718 687.770022,78.8641697 682.189648,73.3033131 C676.609274,67.7424566 669.044589,64.6327981 661.167085,64.6612512 L409.242599,64.6612512 C392.919483,64.7208121 379.718515,77.9717391 379.718515,94.2970221 L379.718515,94.2970221 Z" id="Path" fill="#FFFFFF"></path>
            <path d="M337.04867,0.00201166691 L337.04867,1012.99984 L39.1140241,1012.99984 C17.553955,1012.99984 0.0593941295,995.551353 0,973.988646 L0,39.0132046 C0.0593941295,17.4504974 17.553955,0.00201166691 39.1140241,0.00201166691 L337.04867,0.00201166691 Z" id="Path" fill="#E26701"></path>
            <path d="M337.04867,699.832638 L337.04867,1012.99984 L39.1140241,1012.99984 C17.553955,1012.99984 0.0593941295,995.551353 0,973.988646 L0,660.821445 C0.0593941295,682.384152 17.553955,699.83272 39.1140241,699.832638 L337.04867,699.832638 Z" id="Path" fill="#AF5000"></path>
            <path d="M337.04867,0.00201166691 L337.04867,1012.99984 L148.482439,1012.99984 C126.939869,1012.99984 109.476167,995.533932 109.476167,973.988646 L109.476167,39.0132046 C109.476167,17.4679177 126.939869,0.00201166691 148.482439,0.00201166691 L337.04867,0.00201166691 Z" id="Path" fill="#FF7400"></path>
            <rect id="Rectangle" fill="#FFA961" x="174.127446" y="586.032031" width="98.2699448" height="362.416137" rx="18.8566232"></rect>
            <path d="M751.247868,813.417713 C746.506774,824.194286 756.41997,812.555588 569.362268,999.529123 C565.535479,1003.48581 560.95596,1006.63691 555.893251,1008.79698 L555.893251,852.428906 C555.893251,830.883619 573.356954,813.417713 594.899523,813.417713 L751.247868,813.417713 Z" id="Path" fill="#FFFFFF"></path>
            <path d="M278.000502,74.4681285 L278.000502,321.467173 C278.000502,335.233226 266.873948,346.409485 253.109759,346.468822 L75.8575013,346.468822 C62.0512138,346.468822 50.8590065,335.275202 50.8590065,321.467173 L50.8590065,74.4681285 C50.8590065,67.8471462 53.4961406,61.4989033 58.1873911,56.8272844 C62.8786415,52.1556656 69.2374162,49.5455835 75.8575013,49.5740122 L253.109759,49.5740122 C266.856537,49.5740122 278.000502,60.7196167 278.000502,74.4681285 Z" id="Path" fill="#FFFFFF"></path>
            <ellipse id="Oval" fill="#3F3F46" cx="164.429754" cy="169.625265" rx="59.0481686" ry="59.055618"></ellipse>
            <path d="M253.002007,346.468822 L75.8575013,346.468822 C62.0512138,346.468822 50.8582074,335.275202 50.8582074,321.467173 C50.8266034,312.783715 52.7412654,304.203475 56.4621174,296.357759 C76.637104,255.255743 118.43238,229.210383 164.21425,229.210383 C209.99612,229.210383 251.791396,255.255743 271.966382,296.357759 C275.839676,304.167417 277.902208,312.750104 278.000502,321.467173 C277.941478,335.250677 266.783772,346.409791 253.002007,346.468822 Z" id="Path" fill="#3F3F46"></path>
            <path d="M472.600853,194.626913 C439.891836,194.47327 411.716737,171.529828 404.936623,139.526831 C398.15651,107.523833 414.606607,75.1237709 444.44254,61.716092 C474.278473,48.3084132 509.424327,57.522275 528.847466,83.8437467 C531.19573,86.943076 531.712351,91.0599164 530.202724,94.6434939 C528.693097,98.2270713 525.386569,100.732955 521.528677,101.217203 C517.670786,101.701451 513.847637,100.090495 511.499373,96.9911653 C499.065819,80.2717948 477.243253,73.5220624 457.543046,80.3024421 C437.84284,87.0828217 424.79498,105.834191 425.282195,126.66523 C425.769409,147.496269 439.679664,165.616959 459.675321,171.468663 C479.670977,177.320367 501.15411,169.557508 512.792398,152.274983 C514.803516,148.764335 518.611346,146.676118 522.652311,146.867799 C526.693276,147.05948 530.286401,149.498758 531.95627,153.184011 C533.62614,156.869264 533.091351,161.179463 530.5715,164.344744 C517.540319,183.513934 495.776517,194.882707 472.600853,194.626913 L472.600853,194.626913 Z" id="Path" fill="#3F3F46"></path>
            <path d="M566.883969,188.484267 L536.174611,123.824831 C533.646568,118.438457 535.961904,112.022237 541.346713,109.49199 C546.703458,106.949093 553.107885,109.212597 555.677747,114.556979 L576.581661,158.417629 L597.485575,114.556979 C600.280331,109.64322 606.396554,107.724516 611.496735,110.161576 C616.596915,112.598637 618.947264,118.56299 616.880958,123.824831 L586.279353,188.484267 C584.478961,192.20208 580.712043,194.56344 576.581661,194.56344 C572.451278,194.56344 568.684361,192.20208 566.883969,188.484267 L566.883969,188.484267 Z" id="Path" fill="#3F3F46"></path>
            <rect id="Rectangle" fill="#3F3F46" x="50.8590065" y="630.108213" width="227.141495" height="69.7244249" rx="19.0721274"></rect>
            <rect id="Rectangle" fill="#3F3F46" x="50.8590065" y="756.086347" width="227.141495" height="69.7244249" rx="19.0721274"></rect>
            <rect id="Rectangle" fill="#3F3F46" x="50.8590065" y="881.956715" width="79.9520823" height="69.7244249" rx="19.0721274"></rect>
            <rect id="Rectangle" fill="#3F3F46" x="198.048419" y="881.956715" width="79.9520823" height="69.7244249" rx="19.0721274"></rect>
            <g id="Group" transform="translate(40.0838, 258.6398)" fill="#3F3F46">
                <path d="M237.916708,174.041648 L10.7752132,174.041648 C4.82422729,174.041648 0,169.216812 0,163.265075 C0,157.313339 4.82422729,152.488503 10.7752132,152.488503 L237.916708,152.488503 C243.867694,152.488503 248.691922,157.313339 248.691922,163.265075 C248.691922,169.216812 243.867694,174.041648 237.916708,174.041648 Z" id="Path"></path>
                <path d="M237.916708,229.648763 L10.7752132,229.648763 C4.82422729,229.648763 0,224.823927 0,218.87219 C0,212.920453 4.82422729,208.095617 10.7752132,208.095617 L237.916708,208.095617 C243.867694,208.095617 248.691922,212.920453 248.691922,218.87219 C248.691922,224.823927 243.867694,229.648763 237.916708,229.648763 Z" id="Path"></path>
                <path d="M176.929002,285.363643 L10.7752132,285.363643 C4.82422729,285.363643 0,280.538807 0,274.58707 C0,268.635334 4.82422729,263.810498 10.7752132,263.810498 L176.929002,263.810498 C182.879987,263.810498 187.704215,268.635334 187.704215,274.58707 C187.704215,280.538807 182.879987,285.363643 176.929002,285.363643 Z" id="Path"></path>
                <path d="M631.10424,21.5531453 L374.330908,21.5531453 C368.379922,21.5531453 363.555695,16.7283093 363.555695,10.7765726 C363.555695,4.82483591 368.379922,0 374.330908,0 L631.10424,0 C637.055226,0 641.879453,4.82483591 641.879453,10.7765726 C641.879453,16.7283093 637.055226,21.5531453 631.10424,21.5531453 Z" id="Path"></path>
                <path d="M631.10424,73.7117568 L374.330908,73.7117568 C368.379922,73.7117568 363.555695,68.8869208 363.555695,62.9351841 C363.555695,56.9834474 368.379922,52.1586115 374.330908,52.1586115 L631.10424,52.1586115 C637.055226,52.1586115 641.879453,56.9834474 641.879453,62.9351841 C641.879453,68.8869208 637.055226,73.7117568 631.10424,73.7117568 Z" id="Path"></path>
                <path d="M631.10424,126.0859 L374.330908,126.0859 C368.379922,126.0859 363.555695,121.261064 363.555695,115.309327 C363.555695,109.35759 368.379922,104.532754 374.330908,104.532754 L631.10424,104.532754 C637.055226,104.532754 641.879453,109.35759 641.879453,115.309327 C641.879453,121.261064 637.055226,126.0859 631.10424,126.0859 Z" id="Path"></path>
                <path d="M465.489212,178.352277 L374.330908,178.352277 C368.379922,178.352277 363.555695,173.527441 363.555695,167.575704 C363.555695,161.623968 368.379922,156.799132 374.330908,156.799132 L465.489212,156.799132 C471.440198,156.799132 476.264425,161.623968 476.264425,167.575704 C476.264425,173.527441 471.440198,178.352277 465.489212,178.352277 Z" id="Path"></path>
                <path d="M551.044405,178.352277 L523.675364,178.352277 C517.724378,178.352277 512.900151,173.527441 512.900151,167.575704 C512.900151,161.623968 517.724378,156.799132 523.675364,156.799132 L551.044405,156.799132 C556.995391,156.799132 561.819619,161.623968 561.819619,167.575704 C561.819619,173.527441 556.995391,178.352277 551.044405,178.352277 Z" id="Path"></path>
            </g>
            <path d="M434.995359,548.421793 L414.414701,548.421793 C408.463716,548.421793 403.639488,543.596957 403.639488,537.64522 C403.639488,531.693483 408.463716,526.868647 414.414701,526.868647 L434.995359,526.868647 C440.946345,526.868647 445.770572,531.693483 445.770572,537.64522 C445.770572,543.596957 440.946345,548.421793 434.995359,548.421793 Z" id="Path" fill="#3F3F46"></path>
            <path d="M434.995359,620.086001 L414.414701,620.086001 C408.463716,620.086001 403.639488,615.261165 403.639488,609.309428 C403.639488,603.357691 408.463716,598.532855 414.414701,598.532855 L434.995359,598.532855 C440.946345,598.532855 445.770572,603.357691 445.770572,609.309428 C445.770572,615.261165 440.946345,620.086001 434.995359,620.086001 Z" id="Path" fill="#3F3F46"></path>
            <path d="M434.995359,691.750208 L414.414701,691.750208 C408.463716,691.750208 403.639488,686.925373 403.639488,680.973636 C403.639488,675.021899 408.463716,670.197063 414.414701,670.197063 L434.995359,670.197063 C440.946345,670.197063 445.770572,675.021899 445.770572,680.973636 C445.770572,686.925373 440.946345,691.750208 434.995359,691.750208 Z" id="Path" fill="#3F3F46"></path>
            <path d="M434.995359,763.414416 L414.414701,763.414416 C408.463716,763.414416 403.639488,758.589581 403.639488,752.637844 C403.639488,746.686107 408.463716,741.861271 414.414701,741.861271 L434.995359,741.861271 C440.946345,741.861271 445.770572,746.686107 445.770572,752.637844 C445.770572,758.589581 440.946345,763.414416 434.995359,763.414416 Z" id="Path" fill="#3F3F46"></path>
            <path d="M671.188033,548.421793 L494.69004,548.421793 C488.739054,548.421793 483.914827,543.596957 483.914827,537.64522 C483.914827,531.693483 488.739054,526.868647 494.69004,526.868647 L671.188033,526.868647 C677.139019,526.868647 681.963246,531.693483 681.963246,537.64522 C681.963246,543.596957 677.139019,548.421793 671.188033,548.421793 Z" id="Path" fill="#3F3F46"></path>
            <path d="M671.188033,620.086001 L494.69004,620.086001 C488.739054,620.086001 483.914827,615.261165 483.914827,609.309428 C483.914827,603.357691 488.739054,598.532855 494.69004,598.532855 L671.188033,598.532855 C677.139019,598.532855 681.963246,603.357691 681.963246,609.309428 C681.963246,615.261165 677.139019,620.086001 671.188033,620.086001 Z" id="Path" fill="#3F3F46"></path>
            <path d="M671.188033,691.750208 L494.69004,691.750208 C488.739054,691.750208 483.914827,686.925373 483.914827,680.973636 C483.914827,675.021899 488.739054,670.197063 494.69004,670.197063 L671.188033,670.197063 C677.139019,670.197063 681.963246,675.021899 681.963246,680.973636 C681.963246,686.925373 677.139019,691.750208 671.188033,691.750208 Z" id="Path" fill="#3F3F46"></path>
            <path d="M671.188033,763.414416 L494.69004,763.414416 C488.739054,763.414416 483.914827,758.589581 483.914827,752.637844 C483.914827,746.686107 488.739054,741.861271 494.69004,741.861271 L671.188033,741.861271 C677.139019,741.861271 681.963246,746.686107 681.963246,752.637844 C681.963246,758.589581 677.139019,763.414416 671.188033,763.414416 Z" id="Path" fill="#3F3F46"></path>
            <path d="M483.376066,870.74908 L414.414701,870.74908 C408.463716,870.74908 403.639488,865.924244 403.639488,859.972507 C403.639488,854.02077 408.463716,849.195935 414.414701,849.195935 L483.376066,849.195935 C489.327052,849.195935 494.151279,854.02077 494.151279,859.972507 C494.151279,865.924244 489.327052,870.74908 483.376066,870.74908 Z" id="Path" fill="#3F3F46"></path>
            <path d="M483.376066,921.9378 L414.414701,921.9378 C408.463716,921.9378 403.639488,917.112964 403.639488,911.161227 C403.639488,905.20949 408.463716,900.384655 414.414701,900.384655 L483.376066,900.384655 C489.327052,900.384655 494.151279,905.20949 494.151279,911.161227 C494.151279,917.112964 489.327052,921.9378 483.376066,921.9378 Z" id="Path" fill="#3F3F46"></path>
            <path d="M483.376066,973.12652 L414.414701,973.12652 C408.463716,973.12652 403.639488,968.301684 403.639488,962.349947 C403.639488,956.39821 408.463716,951.573374 414.414701,951.573374 L483.376066,951.573374 C489.327052,951.573374 494.151279,956.39821 494.151279,962.349947 C494.151279,968.301684 489.327052,973.12652 483.376066,973.12652 Z" id="Path" fill="#3F3F46"></path>
        </g>
    </g>
</svg>