<?xml version="1.0" encoding="UTF-8"?>
<svg width="194px" height="188px" viewBox="0 0 194 188" version="1.1" xmlns="http://www.w3.org/2000/svg" xmlns:xlink="http://www.w3.org/1999/xlink">
    <title>down-arrow-2</title>
    <g id="Page-1" stroke="none" stroke-width="1" fill="none" fill-rule="evenodd">
        <g id="Artboard" transform="translate(-4830, -2281)" fill-rule="nonzero">
            <g id="down-arrow-2" transform="translate(4927, 2375) rotate(-90) translate(-4927, -2375)translate(4833, 2278)">
                <path d="M181.093428,6.90555541 C190.302191,16.1112161 190.302191,31.0383234 181.093428,40.2492235 L147.738526,73.5928917 L127.355557,93.9689956 L94.0006551,127.312664 L60.645753,93.9689956 L40.2627841,73.5928917 L6.90788199,40.2492235 C2.30088027,35.6437735 1.13900089e-13,29.6079618 1.13900089e-13,23.5773895 C1.13900089e-13,17.5415778 2.30088027,11.5057661 6.90788199,6.90555541 C16.1166442,-2.30010533 31.0540218,-2.30010533 40.2627841,6.90555541 L94.0006551,60.6253275 L147.738526,6.90555541 C152.345528,2.30534475 158.378132,3.64357529e-12 164.415977,3.64357529e-12 C170.453823,3.64357529e-12 176.486427,2.30534475 181.093428,6.90555541 L181.093428,6.90555541 Z" id="Path" fill="#FFA961"></path>
                <path d="M181.093428,73.5928917 C190.302191,82.7985524 190.302191,97.7256597 181.093428,106.93656 L127.355557,160.656332 L94.0006551,194 L60.645753,160.656332 L6.90788199,106.93656 C2.30088027,102.33111 1.13900089e-13,96.295298 1.13900089e-13,90.2647257 C1.13900089e-13,84.228914 2.30088027,78.1931023 6.90788199,73.5928917 C16.1166442,64.3819915 31.0540218,64.3819915 40.2627841,73.5928917 L60.645753,93.9689956 L94.0006551,127.312664 L127.355557,93.9689956 L147.738526,73.5928917 C152.345528,68.9874416 158.378132,66.6873363 164.415977,66.6873363 C170.453823,66.6873363 176.486427,68.9874416 181.093428,73.5928917 L181.093428,73.5928917 Z" id="Path" fill="#FF7400"></path>
            </g>
        </g>
    </g>
</svg>