<?xml version="1.0" encoding="UTF-8"?>
<svg width="859px" height="898px" viewBox="0 0 859 898" version="1.1" xmlns="http://www.w3.org/2000/svg" xmlns:xlink="http://www.w3.org/1999/xlink">
    <title>man-2</title>
    <g id="Page-1" stroke="none" stroke-width="1" fill="none" fill-rule="evenodd">
        <g id="man-2" fill-rule="nonzero">
            <path d="M55.1418656,679.022999 L803.859887,679.022999 C838.952237,616.755805 859,544.868432 859,468.289359 C859,230.966494 666.707316,38.5787185 429.501753,38.5787185 C192.29619,38.5787185 0.00350607952,230.966494 0.00350607952,468.289359 C0.00350607952,544.870186 20.0477627,616.755805 55.1418656,679.022999 Z" id="Path" fill="#E26701"></path>
            <path d="M392.318027,604.778376 C392.318027,604.778376 418.348914,616.203324 429.5,632.591828 C440.651086,616.203324 466.681973,604.778376 466.681973,604.778376 L571.49622,551.442074 C562.704726,548.727027 553.760717,546.29962 544.618615,544.187916 C526.821755,526.382256 522.309431,492.624814 521.497773,469.006707 C512.210169,479.830065 502.463268,488.883731 493.149368,496.118596 C475.0019,510.218252 452.60857,517.875808 429.545579,517.875808 C406.482588,517.875808 384.089258,510.218252 365.943544,496.118596 C356.629643,488.881977 346.882742,479.828311 337.593385,469.006707 C336.781727,492.624814 332.269403,526.382256 314.472543,544.187916 C305.309404,546.303128 296.347865,548.73755 287.537087,551.459613 L392.318027,604.778376 Z" id="Path" fill="#FFAA7B"></path>
            <path d="M425.191028,517.782851 C403.675971,516.883097 382.944523,509.327267 365.943544,496.118596 C356.629643,488.881977 346.880989,479.828311 337.593385,469.004953 C336.88691,489.548462 333.370312,517.753035 320.757191,536.468973 C338.696047,572.694161 361.939601,603.003422 385.447864,587.14986 C414.437882,567.599062 423.036542,538.540337 425.191028,517.782851 L425.191028,517.782851 Z" id="Path" fill="#FC9460"></path>
            <path d="M396.004669,599.218492 L349.500031,575.553029 C329.711718,581.574191 302.690363,597.294456 301.736709,638.328857 C288.373287,640.644013 221.086362,655.452247 221.086362,718.349094 L221.086362,844.072632 C282.805633,878.419386 353.861594,898 429.5,898 C431.000602,898 432.490686,897.957906 433.987782,897.943875 C433.987782,802.185833 433.987782,651.665563 433.987782,637.220388 C433.987782,615.880605 396.004669,599.218492 396.004669,599.218492 Z" id="Path" fill="#B2B2B5"></path>
            <path d="M223.714169,845.516097 C223.714169,812.560191 223.714169,760.756803 223.714169,718.349094 C223.714169,650.397488 304.33822,640.58438 304.33822,640.58438 C304.33822,597.443538 333.293178,582.447636 352.799251,577.233272 L296.751064,548.711242 C176.743222,587.8637 119.425834,603.520825 89.5400118,624.864115 C120.652961,646.109186 169.583807,690.240986 169.583807,757.761131 L169.583807,810.3871 C186.665427,823.399334 204.762056,835.143493 223.714169,845.516097 L223.714169,845.516097 Z" id="Path" fill="#8C8C90"></path>
            <path d="M562.248936,548.711242 L462.995331,599.218492 C462.995331,599.218492 425.012218,615.880605 425.012218,637.220388 L425.012218,897.943875 C426.509314,897.95966 427.999398,898 429.5,898 C449.645933,898 469.462294,896.589859 488.870198,893.904628 L488.857926,893.895858 L611.188547,857.735565 L611.188547,857.739073 C639.0163,844.718069 665.225997,828.813644 689.41444,810.385346 C689.41444,792.08333 689.41444,774.232068 689.41444,757.761131 C689.41444,690.240986 738.347039,646.11094 769.458235,624.864115 C739.574166,603.520825 682.258532,587.8637 562.248936,548.711242 L562.248936,548.711242 Z" id="Path" fill="#D9D9DA"></path>
            <path d="M531.558469,503.590239 C529.54072,502.476508 527.03212,503.641102 526.572824,505.900134 C523.573373,520.597872 510.558805,566.899254 462.229252,594.379463 C457.469749,597.085741 456.330274,603.438391 459.929264,607.565334 L508.765446,663.527234 C518.905028,675.21176 537.573148,673.108826 544.892089,659.477463 C557.265044,636.43113 574.502684,601.352996 587.261307,563.640495 C589.545518,556.887954 587.922203,549.421574 583.106603,544.166869 C568.253097,527.95551 550.848918,514.243468 531.558469,503.590239 L531.558469,503.590239 Z" id="Path" fill="#FFFFFF"></path>
            <path d="M396.798796,594.381217 C385.170884,587.768989 375.604546,580.062323 367.712361,571.97506 C355.95297,572.973032 304.806282,580.521847 301.878706,635.613809 C306.235009,644.485069 310.407244,652.537254 314.13596,659.480971 C321.454901,673.112333 340.123021,675.215268 350.262603,663.530741 L399.097031,607.568841 C402.697775,603.440145 401.556546,597.085741 396.798796,594.381217 L396.798796,594.381217 Z" id="Path" fill="#D9D9DA"></path>
            <path d="M332.455225,505.901888 C331.994176,503.642856 329.485576,502.476508 327.46958,503.591993 C308.17913,514.245222 290.774952,527.957264 275.921446,544.168623 C271.107599,549.423328 269.482531,556.889708 271.766742,563.642249 C281.411966,592.152002 293.613123,619.144625 304.339973,640.582627 C304.341726,575.547767 370.173628,574.449822 370.173628,574.449822 L370.175382,574.44456 C343.320565,548.36923 334.806051,517.425054 332.455225,505.901888 Z" id="Path" fill="#B2B2B5"></path>
            <path d="M685.90836,813.044269 C733.969698,777.20494 774.263317,731.534965 803.858134,679.022999 C800.551901,669.183583 796.972194,660.154471 793.085705,652.225059 C787.486496,640.800111 779.715271,631.841156 767.729738,623.653919 C736.741254,644.413159 685.90836,688.950111 685.90836,757.759377 L685.90836,813.044269 Z" id="Path" fill="#FFFFFF"></path>
            <path d="M91.268509,623.653919 C79.2829761,631.84291 71.5099978,640.800111 65.9125419,652.225059 C62.0278058,660.154471 58.4480986,669.183583 55.1401126,679.022999 C84.7349298,731.534965 125.028549,777.206694 173.089887,813.044269 C173.089887,793.810928 173.089887,775.030096 173.089887,757.759377 C173.09164,688.950111 122.256993,644.413159 91.268509,623.653919 Z" id="Path" fill="#B2B2B5"></path>
            <path d="M590.15207,737.736778 L508.635721,737.736778 C497.065658,737.736778 487.599244,747.207874 487.599244,758.783658 L487.599244,886.818845 C487.599244,889.302377 488.056787,891.67892 488.857926,893.895858 C532.016012,887.92556 573.121288,875.544733 611.188547,857.735565 L611.188547,758.783658 C611.188547,747.207874 601.722132,737.736778 590.15207,737.736778 Z" id="Path" fill="#FFFFFF"></path>
            <path d="M723.11137,154.704879 C682.335665,184.86155 631.600942,235.700289 653.108986,299.396917 C686.416742,398.043643 535.655323,460.252959 703.947139,531.750964 C771.235818,560.339643 810.333863,590.166579 833.049752,615.677152 C849.829849,569.705504 859,520.0717 859,468.289359 C859,344.584568 806.731367,233.108015 723.11137,154.704879 L723.11137,154.704879 Z" id="Path" fill="#FF7400"></path>
            <path d="M135.88863,154.704879 C176.664335,184.86155 227.399058,235.700289 205.891014,299.396917 C172.583258,398.043643 323.344677,460.252959 155.052861,531.750964 C87.7641825,560.339643 48.6643837,590.166579 25.9502475,615.677152 C9.17015098,569.705504 0,520.0717 0,468.289359 C0,344.584568 52.2686334,233.108015 135.88863,154.704879 Z" id="Path" fill="#FF7400"></path>
            <path d="M591.030342,276.197993 C591.60008,253.037656 595.460274,191.73511 619.653976,148.066342 C623.018059,141.992563 623.619352,134.776991 621.27729,128.240181 C612.498067,103.752136 586.276099,46.5046227 529.088436,31.2351113 C526.041653,30.4212986 525.237007,26.4785164 527.715806,24.5299261 L536.286417,17.7931706 C540.171153,14.7378652 538.679316,8.5325434 533.826902,7.59771115 C491.632988,-0.543923587 351.503755,-20.0263188 307.975778,69.5228938 C305.377773,74.8670474 300.481533,78.7151186 294.731562,80.2041854 C282.06585,83.4839908 259.285099,93.3690088 244.436852,122.990738 C241.532065,128.783892 241.037708,135.503109 243.118566,141.640028 C250.334078,162.91667 267.915313,220.048425 269.748993,276.197993 L591.030342,276.197993 Z" id="Path" fill="#4F4F57"></path>
            <path d="M451.95118,0.0313577987 C397.51579,0.736428278 334.6325,14.6834941 307.975778,69.5228938 C305.377773,74.8670474 300.481533,78.7151186 294.731562,80.2041854 C282.06585,83.4839908 259.285099,93.3690088 244.436852,122.990738 C241.532065,128.783892 241.037708,135.503109 243.118566,141.640028 C250.334078,162.91667 267.915313,220.048425 269.748993,276.197993 L344.533669,276.197993 C391.865742,237.838301 443.999392,181.143268 413.507018,134.65071 C362.192038,56.4106875 451.95118,0.0313577987 451.95118,0.0313577987 Z" id="Path" fill="#3F3F46"></path>
            <path d="M603.501467,266.830378 C596.308745,260.235689 580.228111,263.578635 574.032869,267.616128 C575.389722,276.071712 575.466856,284.72198 574.294072,293.263505 L566.983896,346.533159 C566.983896,350.826722 566.848912,355.039606 566.59998,359.178826 C584.426642,364.558057 595.034285,348.546643 596.526122,337.558418 C597.167735,332.828132 598.217805,328.166248 599.674582,323.616614 C604.416554,308.803118 621.522716,283.353933 603.501467,266.830378 L603.501467,266.830378 Z" id="Path" fill="#FFAA7B"></path>
            <path d="M255.500286,266.830378 C262.693008,260.235689 278.773642,263.578635 284.968884,267.616128 C283.612031,276.071712 283.534898,284.72198 284.707681,293.263505 L292.017857,346.533159 C292.017857,350.826722 292.152841,355.039606 292.401773,359.178826 C274.575111,364.558057 263.967468,348.546643 262.475631,337.558418 C261.834018,332.828132 260.783948,328.166248 259.327172,323.616614 C254.585199,308.803118 237.479037,283.353933 255.500286,266.830378 L255.500286,266.830378 Z" id="Path" fill="#FC9460"></path>
            <path d="M571.385779,251.159222 C569.739675,246.863904 567.665829,242.514216 565.052046,238.411828 C560.625621,231.46285 558.677994,223.244043 559.272274,215.049791 C560.977982,191.480794 560.062895,145.382865 529.137521,131.460354 C502.864714,119.632007 470.635078,126.481013 450.08244,133.317741 C437.227399,137.595519 423.339818,137.741094 410.407644,133.779018 C386.990539,151.760069 386.440084,192.245497 388.023079,213.802764 C388.627878,222.042617 386.601364,230.284225 382.150396,237.271789 C379.585699,241.298759 377.532889,245.560752 375.892044,249.778897 C370.568062,263.462877 369.014869,278.304435 371.009828,292.837306 L378.418174,346.824307 C378.418174,424.438185 419.82848,477.192189 455.052308,504.560149 C460.251823,508.599396 465.814219,512.073885 471.622039,515.039741 C479.233738,511.663471 486.454509,507.373415 493.102035,502.20816 C527.866567,475.199752 568.735183,423.133278 568.735183,346.533159 L576.045359,293.263505 C577.996492,279.062123 576.518679,264.559069 571.385779,251.159222 Z" id="Path" fill="#FFC7AB"></path>
            <path d="M455.302992,502.20816 C420.538461,475.199752 379.669845,423.133278 379.669845,346.533159 L372.357916,293.251228 C370.389252,278.909533 371.921409,264.260905 377.175269,250.755823 C378.795078,246.592049 380.819839,242.386181 383.352981,238.411828 C387.746099,231.515467 389.746317,223.382602 389.150284,215.249737 C387.537487,193.297841 388.165076,151.461905 413.507018,134.648956 C411.966096,134.259589 410.435693,133.821112 408.919313,133.315987 C388.364922,126.479259 356.137039,119.630253 329.864232,131.4586 C298.849453,145.419697 298.018512,191.742126 299.745256,215.249737 C300.343043,223.382602 298.341071,231.515467 293.947954,238.411828 C291.416564,242.386181 289.39005,246.592049 287.770242,250.755823 C282.516381,264.260905 280.984225,278.909533 282.952888,293.251228 L290.264817,346.533159 C290.264817,423.133278 331.135186,475.197998 365.897965,502.20816 C384.043679,516.306062 406.437009,523.963619 429.5,523.963619 C445.075758,523.963619 460.339475,520.457559 474.202514,513.848839 C467.53921,510.67076 461.194959,506.785857 455.302992,502.20816 L455.302992,502.20816 Z" id="Path" fill="#FFAA7B"></path>
        </g>
    </g>
</svg>