<?xml version="1.0" encoding="UTF-8"?>
<svg width="357px" height="357px" viewBox="0 0 357 357" version="1.1" xmlns="http://www.w3.org/2000/svg" xmlns:xlink="http://www.w3.org/1999/xlink">
    <title>menu-2</title>
    <g id="Page-1" stroke="none" stroke-width="1" fill="none" fill-rule="evenodd">
        <g id="menu-2" fill-rule="nonzero">
            <g id="Group" transform="translate(44.5217, 33.3954)" fill="#C5C5C8">
                <path d="M111.304348,50.0828255 C111.267545,73.0682668 100.327157,94.6729592 81.8209145,108.305672 C63.3146719,121.938384 39.4378182,125.98198 17.4747826,119.202826 C6.21307607,106.187597 0.0103461738,89.554799 0,72.3436951 C0.0368030743,49.3582538 10.9771907,27.7535614 29.4834333,14.1208489 C47.9896759,0.488136402 71.8665297,-3.5554594 93.8295652,3.22369508 C105.091272,16.2389236 111.294002,32.8717216 111.304348,50.0828255 Z" id="Path"></path>
                <path d="M267.130435,33.3871733 L267.130435,100.169782 C267.130435,112.464121 257.163904,122.430652 244.869565,122.430652 L155.826087,122.430652 L155.826087,33.3871733 C155.826087,21.0928346 165.792618,11.1263038 178.086957,11.1263038 L244.869565,11.1263038 C257.163904,11.1263038 267.130435,21.0928346 267.130435,33.3871733 Z" id="Path"></path>
                <path d="M111.304348,189.21326 L111.304348,261.115869 C111.304348,270.58251 103.630119,278.256739 94.1634783,278.256739 L33.3913043,278.256739 L33.3913043,206.35413 C33.3913043,196.887489 41.0655331,189.21326 50.5321739,189.21326 L111.304348,189.21326 Z" id="Path"></path>
                <path d="M300.521739,189.21326 L300.521739,289.387173 C300.521739,301.681512 290.555208,311.648043 278.26087,311.648043 L178.086957,311.648043 C165.792618,311.648043 155.826087,301.681512 155.826087,289.387173 L155.826087,166.952391 L278.26087,166.952391 C290.555208,166.952391 300.521739,176.918922 300.521739,189.21326 Z" id="Path"></path>
            </g>
            <circle id="Oval" fill="#ECECED" cx="283.826087" cy="72.3478261" r="72.3478261"></circle>
            <rect id="Rectangle" fill="#ECECED" x="244.869565" y="278.26087" width="55.6521739" height="22.2608696" rx="11.1304348"></rect>
            <path d="M83.4782609,0 C37.3744904,0 -1.42108547e-14,37.3744904 -1.42108547e-14,83.4782609 C-1.42108547e-14,129.582031 37.3744904,166.956522 83.4782609,166.956522 C129.582031,166.956522 166.956522,129.582031 166.956522,83.4782609 C166.956522,37.3744904 129.582031,0 83.4782609,0 L83.4782609,0 Z M83.4782609,144.695652 C49.6688292,144.695652 22.2608696,117.287693 22.2608696,83.4782609 C22.2608696,49.6688292 49.6688292,22.2608696 83.4782609,22.2608696 C117.287693,22.2608696 144.695652,49.6688292 144.695652,83.4782609 C144.634394,117.262286 117.262286,144.634394 83.4782609,144.695652 Z" id="Shape" fill="#27272A"></path>
            <path d="M289.391304,33.3913043 L222.608696,33.3913043 C204.167187,33.3913043 189.217391,48.3411005 189.217391,66.7826087 L189.217391,166.956522 L289.391304,166.956522 C307.832813,166.956522 322.782609,152.006726 322.782609,133.565217 L322.782609,66.7826087 C322.782609,48.3411005 307.832813,33.3913043 289.391304,33.3913043 Z M300.521739,133.565217 C300.521739,139.712387 295.538474,144.695652 289.391304,144.695652 L211.478261,144.695652 L211.478261,66.7826087 C211.478261,60.6354393 216.461526,55.6521739 222.608696,55.6521739 L289.391304,55.6521739 C295.538474,55.6521739 300.521739,60.6354393 300.521739,66.7826087 L300.521739,133.565217 Z" id="Shape" fill="#27272A"></path>
            <path d="M61.6626087,189.217391 C46.0487984,189.217391 33.3913043,201.874885 33.3913043,217.488696 L33.3913043,294.511304 C33.3913043,310.125115 46.0487984,322.782609 61.6626087,322.782609 L138.685217,322.782609 C154.299028,322.782609 166.956522,310.125115 166.956522,294.511304 L166.956522,189.217391 L61.6626087,189.217391 Z M144.695652,294.511304 C144.695652,297.830776 142.004689,300.521739 138.685217,300.521739 L61.6626087,300.521739 C58.3431372,300.521739 55.6521739,297.830776 55.6521739,294.511304 L55.6521739,217.488696 C55.6521739,214.169224 58.3431372,211.478261 61.6626087,211.478261 L144.695652,211.478261 L144.695652,294.511304 Z" id="Shape" fill="#27272A"></path>
            <path d="M322.782609,189.217391 L189.217391,189.217391 L189.217391,322.782609 C189.217391,341.224117 204.167187,356.173913 222.608696,356.173913 L322.782609,356.173913 C341.224117,356.173913 356.173913,341.224117 356.173913,322.782609 L356.173913,222.608696 C356.173913,204.167187 341.224117,189.217391 322.782609,189.217391 Z M333.913043,322.782609 C333.913043,328.929778 328.929778,333.913043 322.782609,333.913043 L222.608696,333.913043 C216.461526,333.913043 211.478261,328.929778 211.478261,322.782609 L211.478261,211.478261 L322.782609,211.478261 C328.929778,211.478261 333.913043,216.461526 333.913043,222.608696 L333.913043,322.782609 Z" id="Shape" fill="#27272A"></path>
        </g>
    </g>
</svg>