<?xml version="1.0" encoding="UTF-8"?>
<svg width="2077px" height="1922px" viewBox="0 0 2077 1922" version="1.1" xmlns="http://www.w3.org/2000/svg" xmlns:xlink="http://www.w3.org/1999/xlink">
    <title>Artboard</title>
    <g id="Artboard" stroke="none" stroke-width="1" fill="none" fill-rule="evenodd">
        <g id="Group">
            <rect id="Rectangle" fill="#27272A" transform="translate(1382, 1602) scale(1, -1) rotate(-90) translate(-1382, -1602)" x="1304.5" y="1593.5" width="155" height="17" rx="6"></rect>
            <rect id="Rectangle-Copy" fill="#27272A" transform="translate(1382, 1797) scale(1, -1) rotate(-90) translate(-1382, -1797)" x="1304.5" y="1788.5" width="155" height="17" rx="6"></rect>
            <rect id="Rectangle" fill="#27272A" transform="translate(1508, 1866) scale(1, -1) translate(-1508, -1866)" x="1430.5" y="1857.5" width="155" height="17" rx="6"></rect>
            <rect id="Rectangle-Copy" fill="#27272A" transform="translate(1703, 1866) scale(1, -1) translate(-1703, -1866)" x="1625.5" y="1857.5" width="155" height="17" rx="6"></rect>
            <rect id="Rectangle" fill="#27272A" transform="translate(1382, 822) scale(1, -1) rotate(-90) translate(-1382, -822)" x="1304.5" y="813.5" width="155" height="17" rx="6"></rect>
            <rect id="Rectangle" fill="#27272A" transform="translate(1256, 753) scale(1, -1) translate(-1256, -753)" x="1178.5" y="744.5" width="155" height="17" rx="6"></rect>
            <rect id="Rectangle" fill="#27272A" transform="translate(1061, 753) scale(1, -1) translate(-1061, -753)" x="983.5" y="744.5" width="155" height="17" rx="6"></rect>
            <rect id="Rectangle" fill="#27272A" transform="translate(866, 753) scale(1, -1) translate(-866, -753)" x="788.5" y="744.5" width="155" height="17" rx="6"></rect>
            <rect id="Rectangle" fill="#27272A" transform="translate(671, 753) scale(1, -1) translate(-671, -753)" x="593.5" y="744.5" width="155" height="17" rx="6"></rect>
            <rect id="Rectangle" fill="#27272A" transform="translate(476, 753) scale(1, -1) translate(-476, -753)" x="398.5" y="744.5" width="155" height="17" rx="6"></rect>
            <rect id="Rectangle" fill="#27272A" transform="translate(407, 627) scale(1, -1) rotate(-90) translate(-407, -627)" x="329.5" y="618.5" width="155" height="17" rx="6"></rect>
            <rect id="Rectangle" fill="#27272A" transform="translate(407, 432) scale(1, -1) rotate(-90) translate(-407, -432)" x="329.5" y="423.5" width="155" height="17" rx="6"></rect>
            <rect id="Rectangle" fill="#27272A" transform="translate(407, 237) scale(1, -1) rotate(-90) translate(-407, -237)" x="329.5" y="228.5" width="155" height="17" rx="6"></rect>
            <rect id="Rectangle-Copy" fill="#27272A" transform="translate(1382, 1017) scale(1, -1) rotate(-90) translate(-1382, -1017)" x="1304.5" y="1008.5" width="155" height="17" rx="6"></rect>
            <circle id="Oval" fill="#E26701" transform="translate(1866, 1866) scale(1, -1) rotate(-90) translate(-1866, -1866)" cx="1866" cy="1866" r="45.5"></circle>
            <rect id="Rectangle" fill="#27272A" transform="translate(1382, 1212) scale(1, -1) rotate(-90) translate(-1382, -1212)" x="1304.5" y="1203.5" width="155" height="17" rx="6"></rect>
            <rect id="Rectangle-Copy" fill="#27272A" transform="translate(1382, 1407) scale(1, -1) rotate(-90) translate(-1382, -1407)" x="1304.5" y="1398.5" width="155" height="17" rx="6"></rect>
            <circle id="Oval-Copy-3" stroke="#E26701" stroke-width="10" transform="translate(407, 74) scale(1, -1) rotate(-90) translate(-407, -74)" cx="407" cy="74" r="40.5"></circle>
            <rect id="Rectangle" fill="#27272A" transform="translate(45, 989) scale(1, -1) rotate(-90) translate(-45, -989)" x="-32.5" y="980.5" width="155" height="17" rx="6"></rect>
            <rect id="Rectangle-Copy" fill="#27272A" transform="translate(45, 1184) scale(1, -1) rotate(-90) translate(-45, -1184)" x="-32.5" y="1175.5" width="155" height="17" rx="6"></rect>
            <rect id="Rectangle" fill="#27272A" transform="translate(45, 209) scale(1, -1) rotate(-90) translate(-45, -209)" x="-32.5" y="200.5" width="155" height="17" rx="6"></rect>
            <rect id="Rectangle-Copy" fill="#27272A" transform="translate(45, 404) scale(1, -1) rotate(-90) translate(-45, -404)" x="-32.5" y="395.5" width="155" height="17" rx="6"></rect>
            <rect id="Rectangle" fill="#27272A" transform="translate(45, 599) scale(1, -1) rotate(-90) translate(-45, -599)" x="-32.5" y="590.5" width="155" height="17" rx="6"></rect>
            <rect id="Rectangle-Copy" fill="#27272A" transform="translate(45, 794) scale(1, -1) rotate(-90) translate(-45, -794)" x="-32.5" y="785.5" width="155" height="17" rx="6"></rect>
            <rect id="Rectangle" fill="#27272A" transform="translate(1868.5, 1310.5) scale(1, -1) translate(-1868.5, -1310.5)" x="1791" y="1302" width="155" height="17" rx="6"></rect>
            <rect id="Rectangle" fill="#27272A" transform="translate(1673.5, 1310.5) scale(1, -1) translate(-1673.5, -1310.5)" x="1596" y="1302" width="155" height="17" rx="6"></rect>
            <rect id="Rectangle" fill="#27272A" transform="translate(1478.5, 1310.5) scale(1, -1) translate(-1478.5, -1310.5)" x="1401" y="1302" width="155" height="17" rx="6"></rect>
            <rect id="Rectangle" fill="#27272A" transform="translate(1283.5, 1310.5) scale(1, -1) translate(-1283.5, -1310.5)" x="1206" y="1302" width="155" height="17" rx="6"></rect>
            <rect id="Rectangle" fill="#27272A" transform="translate(1088.5, 1310.5) scale(1, -1) translate(-1088.5, -1310.5)" x="1011" y="1302" width="155" height="17" rx="6"></rect>
            <rect id="Rectangle" fill="#27272A" transform="translate(893.5, 1310.5) scale(1, -1) translate(-893.5, -1310.5)" x="816" y="1302" width="155" height="17" rx="6"></rect>
            <rect id="Rectangle" fill="#27272A" transform="translate(698.5, 1310.5) scale(1, -1) translate(-698.5, -1310.5)" x="621" y="1302" width="155" height="17" rx="6"></rect>
            <rect id="Rectangle" fill="#27272A" transform="translate(503.5, 1310.5) scale(1, -1) translate(-503.5, -1310.5)" x="426" y="1302" width="155" height="17" rx="6"></rect>
            <rect id="Rectangle" fill="#27272A" transform="translate(308.5, 1310.5) scale(1, -1) translate(-308.5, -1310.5)" x="231" y="1302" width="155" height="17" rx="6"></rect>
            <rect id="Rectangle" fill="#27272A" transform="translate(113.5, 1310.5) scale(1, -1) translate(-113.5, -1310.5)" x="36" y="1302" width="155" height="17" rx="6"></rect>
            <circle id="Oval" stroke="#E26701" stroke-width="10" transform="translate(2031.5, 1310.5) scale(1, -1) rotate(-180) translate(-2031.5, -1310.5)" cx="2031.5" cy="1310.5" r="40.5"></circle>
            <circle id="Oval" fill="#E26701" transform="translate(45.5, 45.5) scale(1, -1) rotate(-180) translate(-45.5, -45.5)" cx="45.5" cy="45.5" r="45.5"></circle>
        </g>
    </g>
</svg>