<?xml version="1.0" encoding="UTF-8"?>
<svg width="170px" height="110px" viewBox="0 0 170 110" version="1.1" xmlns="http://www.w3.org/2000/svg" xmlns:xlink="http://www.w3.org/1999/xlink">
    <title>Group 3</title>
    <g id="Page-1" stroke="none" stroke-width="1" fill="none" fill-rule="evenodd">
        <g id="Group-3">
            <g id="Group-2">
                <g id="Group">
                    <rect id="Rectangle" fill="#EEEEEE" x="0" y="0" width="5" height="5"></rect>
                    <rect id="Rectangle" fill="#E0E0E0" x="15" y="0" width="5" height="5"></rect>
                    <rect id="Rectangle" fill="#D6D6D6" x="30" y="0" width="5" height="5"></rect>
                </g>
                <g id="Group" transform="translate(0, 15)">
                    <rect id="Rectangle" fill="#EEEEEE" x="0" y="0" width="5" height="5"></rect>
                    <rect id="Rectangle" fill="#E0E0E0" x="15" y="0" width="5" height="5"></rect>
                    <rect id="Rectangle" fill="#D6D6D6" x="30" y="0" width="5" height="5"></rect>
                </g>
            </g>
            <g id="Group-2" transform="translate(0, 30)">
                <g id="Group">
                    <rect id="Rectangle" fill="#EEEEEE" x="0" y="0" width="5" height="5"></rect>
                    <rect id="Rectangle" fill="#E0E0E0" x="15" y="0" width="5" height="5"></rect>
                    <rect id="Rectangle" fill="#D6D6D6" x="30" y="0" width="5" height="5"></rect>
                </g>
                <g id="Group" transform="translate(0, 15)">
                    <rect id="Rectangle" fill="#EEEEEE" x="0" y="0" width="5" height="5"></rect>
                    <rect id="Rectangle" fill="#E0E0E0" x="15" y="0" width="5" height="5"></rect>
                    <rect id="Rectangle" fill="#D6D6D6" x="30" y="0" width="5" height="5"></rect>
                </g>
            </g>
            <g id="Group-2" transform="translate(45, 0)">
                <g id="Group">
                    <rect id="Rectangle" fill="#EEEEEE" x="0" y="0" width="5" height="5"></rect>
                    <rect id="Rectangle" fill="#E0E0E0" x="15" y="0" width="5" height="5"></rect>
                    <rect id="Rectangle" fill="#D6D6D6" x="30" y="0" width="5" height="5"></rect>
                </g>
                <g id="Group" transform="translate(0, 15)">
                    <rect id="Rectangle" fill="#EEEEEE" x="0" y="0" width="5" height="5"></rect>
                    <rect id="Rectangle" fill="#E0E0E0" x="15" y="0" width="5" height="5"></rect>
                    <rect id="Rectangle" fill="#D6D6D6" x="30" y="0" width="5" height="5"></rect>
                </g>
            </g>
            <g id="Group-2" transform="translate(45, 30)">
                <g id="Group">
                    <rect id="Rectangle" fill="#EEEEEE" x="0" y="0" width="5" height="5"></rect>
                    <rect id="Rectangle" fill="#E0E0E0" x="15" y="0" width="5" height="5"></rect>
                    <rect id="Rectangle" fill="#D6D6D6" x="30" y="0" width="5" height="5"></rect>
                </g>
                <g id="Group" transform="translate(0, 15)">
                    <rect id="Rectangle" fill="#EEEEEE" x="0" y="0" width="5" height="5"></rect>
                    <rect id="Rectangle" fill="#E0E0E0" x="15" y="0" width="5" height="5"></rect>
                    <rect id="Rectangle" fill="#D6D6D6" x="30" y="0" width="5" height="5"></rect>
                </g>
            </g>
            <g id="Group-2" transform="translate(90, 0)">
                <g id="Group">
                    <rect id="Rectangle" fill="#EEEEEE" x="0" y="0" width="5" height="5"></rect>
                    <rect id="Rectangle" fill="#E0E0E0" x="15" y="0" width="5" height="5"></rect>
                    <rect id="Rectangle" fill="#D6D6D6" x="30" y="0" width="5" height="5"></rect>
                </g>
                <g id="Group" transform="translate(0, 15)">
                    <rect id="Rectangle" fill="#EEEEEE" x="0" y="0" width="5" height="5"></rect>
                    <rect id="Rectangle" fill="#E0E0E0" x="15" y="0" width="5" height="5"></rect>
                    <rect id="Rectangle" fill="#D6D6D6" x="30" y="0" width="5" height="5"></rect>
                </g>
            </g>
            <g id="Group-2" transform="translate(90, 30)">
                <g id="Group">
                    <rect id="Rectangle" fill="#EEEEEE" x="0" y="0" width="5" height="5"></rect>
                    <rect id="Rectangle" fill="#E0E0E0" x="15" y="0" width="5" height="5"></rect>
                    <rect id="Rectangle" fill="#D6D6D6" x="30" y="0" width="5" height="5"></rect>
                </g>
                <g id="Group" transform="translate(0, 15)">
                    <rect id="Rectangle" fill="#EEEEEE" x="0" y="0" width="5" height="5"></rect>
                    <rect id="Rectangle" fill="#E0E0E0" x="15" y="0" width="5" height="5"></rect>
                    <rect id="Rectangle" fill="#D6D6D6" x="30" y="0" width="5" height="5"></rect>
                </g>
            </g>
            <g id="Group-2" transform="translate(135, 0)">
                <g id="Group">
                    <rect id="Rectangle" fill="#EEEEEE" x="0" y="0" width="5" height="5"></rect>
                    <rect id="Rectangle" fill="#E0E0E0" x="15" y="0" width="5" height="5"></rect>
                    <rect id="Rectangle" fill="#D6D6D6" x="30" y="0" width="5" height="5"></rect>
                </g>
                <g id="Group" transform="translate(0, 15)">
                    <rect id="Rectangle" fill="#EEEEEE" x="0" y="0" width="5" height="5"></rect>
                    <rect id="Rectangle" fill="#E0E0E0" x="15" y="0" width="5" height="5"></rect>
                    <rect id="Rectangle" fill="#D6D6D6" x="30" y="0" width="5" height="5"></rect>
                </g>
            </g>
            <g id="Group-2" transform="translate(135, 30)">
                <g id="Group">
                    <rect id="Rectangle" fill="#EEEEEE" x="0" y="0" width="5" height="5"></rect>
                    <rect id="Rectangle" fill="#E0E0E0" x="15" y="0" width="5" height="5"></rect>
                    <rect id="Rectangle" fill="#D6D6D6" x="30" y="0" width="5" height="5"></rect>
                </g>
                <g id="Group" transform="translate(0, 15)">
                    <rect id="Rectangle" fill="#EEEEEE" x="0" y="0" width="5" height="5"></rect>
                    <rect id="Rectangle" fill="#E0E0E0" x="15" y="0" width="5" height="5"></rect>
                    <rect id="Rectangle" fill="#D6D6D6" x="30" y="0" width="5" height="5"></rect>
                </g>
            </g>
            <g id="Group-2">
                <g id="Group">
                    <rect id="Rectangle" fill="#EEEEEE" x="0" y="0" width="5" height="5"></rect>
                    <rect id="Rectangle" fill="#E0E0E0" x="15" y="0" width="5" height="5"></rect>
                    <rect id="Rectangle" fill="#D6D6D6" x="30" y="0" width="5" height="5"></rect>
                </g>
                <g id="Group" transform="translate(0, 15)">
                    <rect id="Rectangle" fill="#EEEEEE" x="0" y="0" width="5" height="5"></rect>
                    <rect id="Rectangle" fill="#E0E0E0" x="15" y="0" width="5" height="5"></rect>
                    <rect id="Rectangle" fill="#D6D6D6" x="30" y="0" width="5" height="5"></rect>
                </g>
            </g>
            <g id="Group-2" transform="translate(0, 30)">
                <g id="Group">
                    <rect id="Rectangle" fill="#EEEEEE" x="0" y="0" width="5" height="5"></rect>
                    <rect id="Rectangle" fill="#E0E0E0" x="15" y="0" width="5" height="5"></rect>
                    <rect id="Rectangle" fill="#D6D6D6" x="30" y="0" width="5" height="5"></rect>
                </g>
                <g id="Group" transform="translate(0, 15)">
                    <rect id="Rectangle" fill="#EEEEEE" x="0" y="0" width="5" height="5"></rect>
                    <rect id="Rectangle" fill="#E0E0E0" x="15" y="0" width="5" height="5"></rect>
                    <rect id="Rectangle" fill="#D6D6D6" x="30" y="0" width="5" height="5"></rect>
                </g>
            </g>
            <g id="Group-2" transform="translate(45, 0)">
                <g id="Group">
                    <rect id="Rectangle" fill="#EEEEEE" x="0" y="0" width="5" height="5"></rect>
                    <rect id="Rectangle" fill="#E0E0E0" x="15" y="0" width="5" height="5"></rect>
                    <rect id="Rectangle" fill="#D6D6D6" x="30" y="0" width="5" height="5"></rect>
                </g>
                <g id="Group" transform="translate(0, 15)">
                    <rect id="Rectangle" fill="#EEEEEE" x="0" y="0" width="5" height="5"></rect>
                    <rect id="Rectangle" fill="#E0E0E0" x="15" y="0" width="5" height="5"></rect>
                    <rect id="Rectangle" fill="#D6D6D6" x="30" y="0" width="5" height="5"></rect>
                </g>
            </g>
            <g id="Group-2" transform="translate(45, 30)">
                <g id="Group">
                    <rect id="Rectangle" fill="#EEEEEE" x="0" y="0" width="5" height="5"></rect>
                    <rect id="Rectangle" fill="#E0E0E0" x="15" y="0" width="5" height="5"></rect>
                    <rect id="Rectangle" fill="#D6D6D6" x="30" y="0" width="5" height="5"></rect>
                </g>
                <g id="Group" transform="translate(0, 15)">
                    <rect id="Rectangle" fill="#EEEEEE" x="0" y="0" width="5" height="5"></rect>
                    <rect id="Rectangle" fill="#E0E0E0" x="15" y="0" width="5" height="5"></rect>
                    <rect id="Rectangle" fill="#D6D6D6" x="30" y="0" width="5" height="5"></rect>
                </g>
            </g>
            <g id="Group-2" transform="translate(90, 0)">
                <g id="Group">
                    <rect id="Rectangle" fill="#EEEEEE" x="0" y="0" width="5" height="5"></rect>
                    <rect id="Rectangle" fill="#E0E0E0" x="15" y="0" width="5" height="5"></rect>
                    <rect id="Rectangle" fill="#D6D6D6" x="30" y="0" width="5" height="5"></rect>
                </g>
                <g id="Group" transform="translate(0, 15)">
                    <rect id="Rectangle" fill="#EEEEEE" x="0" y="0" width="5" height="5"></rect>
                    <rect id="Rectangle" fill="#E0E0E0" x="15" y="0" width="5" height="5"></rect>
                    <rect id="Rectangle" fill="#D6D6D6" x="30" y="0" width="5" height="5"></rect>
                </g>
            </g>
            <g id="Group-2" transform="translate(90, 30)">
                <g id="Group">
                    <rect id="Rectangle" fill="#EEEEEE" x="0" y="0" width="5" height="5"></rect>
                    <rect id="Rectangle" fill="#E0E0E0" x="15" y="0" width="5" height="5"></rect>
                    <rect id="Rectangle" fill="#D6D6D6" x="30" y="0" width="5" height="5"></rect>
                </g>
                <g id="Group" transform="translate(0, 15)">
                    <rect id="Rectangle" fill="#EEEEEE" x="0" y="0" width="5" height="5"></rect>
                    <rect id="Rectangle" fill="#E0E0E0" x="15" y="0" width="5" height="5"></rect>
                    <rect id="Rectangle" fill="#D6D6D6" x="30" y="0" width="5" height="5"></rect>
                </g>
            </g>
            <g id="Group-2" transform="translate(135, 0)">
                <g id="Group">
                    <rect id="Rectangle" fill="#EEEEEE" x="0" y="0" width="5" height="5"></rect>
                    <rect id="Rectangle" fill="#E0E0E0" x="15" y="0" width="5" height="5"></rect>
                    <rect id="Rectangle" fill="#D6D6D6" x="30" y="0" width="5" height="5"></rect>
                </g>
                <g id="Group" transform="translate(0, 15)">
                    <rect id="Rectangle" fill="#EEEEEE" x="0" y="0" width="5" height="5"></rect>
                    <rect id="Rectangle" fill="#E0E0E0" x="15" y="0" width="5" height="5"></rect>
                    <rect id="Rectangle" fill="#D6D6D6" x="30" y="0" width="5" height="5"></rect>
                </g>
            </g>
            <g id="Group-2" transform="translate(135, 30)">
                <g id="Group">
                    <rect id="Rectangle" fill="#EEEEEE" x="0" y="0" width="5" height="5"></rect>
                    <rect id="Rectangle" fill="#E0E0E0" x="15" y="0" width="5" height="5"></rect>
                    <rect id="Rectangle" fill="#D6D6D6" x="30" y="0" width="5" height="5"></rect>
                </g>
                <g id="Group" transform="translate(0, 15)">
                    <rect id="Rectangle" fill="#EEEEEE" x="0" y="0" width="5" height="5"></rect>
                    <rect id="Rectangle" fill="#E0E0E0" x="15" y="0" width="5" height="5"></rect>
                    <rect id="Rectangle" fill="#D6D6D6" x="30" y="0" width="5" height="5"></rect>
                </g>
            </g>
            <g id="Group-2" transform="translate(0, 60)">
                <g id="Group">
                    <rect id="Rectangle" fill="#EEEEEE" x="0" y="0" width="5" height="5"></rect>
                    <rect id="Rectangle" fill="#E0E0E0" x="15" y="0" width="5" height="5"></rect>
                    <rect id="Rectangle" fill="#D6D6D6" x="30" y="0" width="5" height="5"></rect>
                </g>
                <g id="Group" transform="translate(0, 15)">
                    <rect id="Rectangle" fill="#EEEEEE" x="0" y="0" width="5" height="5"></rect>
                    <rect id="Rectangle" fill="#E0E0E0" x="15" y="0" width="5" height="5"></rect>
                    <rect id="Rectangle" fill="#D6D6D6" x="30" y="0" width="5" height="5"></rect>
                </g>
            </g>
            <g id="Group-2" transform="translate(0, 90)">
                <g id="Group">
                    <rect id="Rectangle" fill="#EEEEEE" x="0" y="0" width="5" height="5"></rect>
                    <rect id="Rectangle" fill="#E0E0E0" x="15" y="0" width="5" height="5"></rect>
                    <rect id="Rectangle" fill="#D6D6D6" x="30" y="0" width="5" height="5"></rect>
                </g>
                <g id="Group" transform="translate(0, 15)">
                    <rect id="Rectangle" fill="#EEEEEE" x="0" y="0" width="5" height="5"></rect>
                    <rect id="Rectangle" fill="#E0E0E0" x="15" y="0" width="5" height="5"></rect>
                    <rect id="Rectangle" fill="#D6D6D6" x="30" y="0" width="5" height="5"></rect>
                </g>
            </g>
            <g id="Group-2" transform="translate(45, 60)">
                <g id="Group">
                    <rect id="Rectangle" fill="#EEEEEE" x="0" y="0" width="5" height="5"></rect>
                    <rect id="Rectangle" fill="#E0E0E0" x="15" y="0" width="5" height="5"></rect>
                    <rect id="Rectangle" fill="#D6D6D6" x="30" y="0" width="5" height="5"></rect>
                </g>
                <g id="Group" transform="translate(0, 15)">
                    <rect id="Rectangle" fill="#EEEEEE" x="0" y="0" width="5" height="5"></rect>
                    <rect id="Rectangle" fill="#E0E0E0" x="15" y="0" width="5" height="5"></rect>
                    <rect id="Rectangle" fill="#D6D6D6" x="30" y="0" width="5" height="5"></rect>
                </g>
            </g>
            <g id="Group-2" transform="translate(45, 90)">
                <g id="Group">
                    <rect id="Rectangle" fill="#EEEEEE" x="0" y="0" width="5" height="5"></rect>
                    <rect id="Rectangle" fill="#E0E0E0" x="15" y="0" width="5" height="5"></rect>
                    <rect id="Rectangle" fill="#D6D6D6" x="30" y="0" width="5" height="5"></rect>
                </g>
                <g id="Group" transform="translate(0, 15)">
                    <rect id="Rectangle" fill="#EEEEEE" x="0" y="0" width="5" height="5"></rect>
                    <rect id="Rectangle" fill="#E0E0E0" x="15" y="0" width="5" height="5"></rect>
                    <rect id="Rectangle" fill="#D6D6D6" x="30" y="0" width="5" height="5"></rect>
                </g>
            </g>
            <g id="Group-2" transform="translate(90, 60)">
                <g id="Group">
                    <rect id="Rectangle" fill="#EEEEEE" x="0" y="0" width="5" height="5"></rect>
                    <rect id="Rectangle" fill="#E0E0E0" x="15" y="0" width="5" height="5"></rect>
                    <rect id="Rectangle" fill="#D6D6D6" x="30" y="0" width="5" height="5"></rect>
                </g>
                <g id="Group" transform="translate(0, 15)">
                    <rect id="Rectangle" fill="#EEEEEE" x="0" y="0" width="5" height="5"></rect>
                    <rect id="Rectangle" fill="#E0E0E0" x="15" y="0" width="5" height="5"></rect>
                    <rect id="Rectangle" fill="#D6D6D6" x="30" y="0" width="5" height="5"></rect>
                </g>
            </g>
            <g id="Group-2" transform="translate(90, 90)">
                <g id="Group">
                    <rect id="Rectangle" fill="#EEEEEE" x="0" y="0" width="5" height="5"></rect>
                    <rect id="Rectangle" fill="#E0E0E0" x="15" y="0" width="5" height="5"></rect>
                    <rect id="Rectangle" fill="#D6D6D6" x="30" y="0" width="5" height="5"></rect>
                </g>
                <g id="Group" transform="translate(0, 15)">
                    <rect id="Rectangle" fill="#EEEEEE" x="0" y="0" width="5" height="5"></rect>
                    <rect id="Rectangle" fill="#E0E0E0" x="15" y="0" width="5" height="5"></rect>
                    <rect id="Rectangle" fill="#D6D6D6" x="30" y="0" width="5" height="5"></rect>
                </g>
            </g>
            <g id="Group-2" transform="translate(135, 60)">
                <g id="Group">
                    <rect id="Rectangle" fill="#EEEEEE" x="0" y="0" width="5" height="5"></rect>
                    <rect id="Rectangle" fill="#E0E0E0" x="15" y="0" width="5" height="5"></rect>
                    <rect id="Rectangle" fill="#D6D6D6" x="30" y="0" width="5" height="5"></rect>
                </g>
                <g id="Group" transform="translate(0, 15)">
                    <rect id="Rectangle" fill="#EEEEEE" x="0" y="0" width="5" height="5"></rect>
                    <rect id="Rectangle" fill="#E0E0E0" x="15" y="0" width="5" height="5"></rect>
                    <rect id="Rectangle" fill="#D6D6D6" x="30" y="0" width="5" height="5"></rect>
                </g>
            </g>
            <g id="Group-2" transform="translate(135, 90)">
                <g id="Group">
                    <rect id="Rectangle" fill="#EEEEEE" x="0" y="0" width="5" height="5"></rect>
                    <rect id="Rectangle" fill="#E0E0E0" x="15" y="0" width="5" height="5"></rect>
                    <rect id="Rectangle" fill="#D6D6D6" x="30" y="0" width="5" height="5"></rect>
                </g>
                <g id="Group" transform="translate(0, 15)">
                    <rect id="Rectangle" fill="#EEEEEE" x="0" y="0" width="5" height="5"></rect>
                    <rect id="Rectangle" fill="#E0E0E0" x="15" y="0" width="5" height="5"></rect>
                    <rect id="Rectangle" fill="#D6D6D6" x="30" y="0" width="5" height="5"></rect>
                </g>
            </g>
            <g id="Group-2" transform="translate(0, 60)">
                <g id="Group">
                    <rect id="Rectangle" fill="#EEEEEE" x="0" y="0" width="5" height="5"></rect>
                    <rect id="Rectangle" fill="#E0E0E0" x="15" y="0" width="5" height="5"></rect>
                    <rect id="Rectangle" fill="#D6D6D6" x="30" y="0" width="5" height="5"></rect>
                </g>
                <g id="Group" transform="translate(0, 15)">
                    <rect id="Rectangle" fill="#EEEEEE" x="0" y="0" width="5" height="5"></rect>
                    <rect id="Rectangle" fill="#E0E0E0" x="15" y="0" width="5" height="5"></rect>
                    <rect id="Rectangle" fill="#D6D6D6" x="30" y="0" width="5" height="5"></rect>
                </g>
            </g>
            <g id="Group-2" transform="translate(0, 90)">
                <g id="Group">
                    <rect id="Rectangle" fill="#EEEEEE" x="0" y="0" width="5" height="5"></rect>
                    <rect id="Rectangle" fill="#E0E0E0" x="15" y="0" width="5" height="5"></rect>
                    <rect id="Rectangle" fill="#D6D6D6" x="30" y="0" width="5" height="5"></rect>
                </g>
                <g id="Group" transform="translate(0, 15)">
                    <rect id="Rectangle" fill="#EEEEEE" x="0" y="0" width="5" height="5"></rect>
                    <rect id="Rectangle" fill="#E0E0E0" x="15" y="0" width="5" height="5"></rect>
                    <rect id="Rectangle" fill="#D6D6D6" x="30" y="0" width="5" height="5"></rect>
                </g>
            </g>
            <g id="Group-2" transform="translate(45, 60)">
                <g id="Group">
                    <rect id="Rectangle" fill="#EEEEEE" x="0" y="0" width="5" height="5"></rect>
                    <rect id="Rectangle" fill="#E0E0E0" x="15" y="0" width="5" height="5"></rect>
                    <rect id="Rectangle" fill="#D6D6D6" x="30" y="0" width="5" height="5"></rect>
                </g>
                <g id="Group" transform="translate(0, 15)">
                    <rect id="Rectangle" fill="#EEEEEE" x="0" y="0" width="5" height="5"></rect>
                    <rect id="Rectangle" fill="#E0E0E0" x="15" y="0" width="5" height="5"></rect>
                    <rect id="Rectangle" fill="#D6D6D6" x="30" y="0" width="5" height="5"></rect>
                </g>
            </g>
            <g id="Group-2" transform="translate(45, 90)">
                <g id="Group">
                    <rect id="Rectangle" fill="#EEEEEE" x="0" y="0" width="5" height="5"></rect>
                    <rect id="Rectangle" fill="#E0E0E0" x="15" y="0" width="5" height="5"></rect>
                    <rect id="Rectangle" fill="#D6D6D6" x="30" y="0" width="5" height="5"></rect>
                </g>
                <g id="Group" transform="translate(0, 15)">
                    <rect id="Rectangle" fill="#EEEEEE" x="0" y="0" width="5" height="5"></rect>
                    <rect id="Rectangle" fill="#E0E0E0" x="15" y="0" width="5" height="5"></rect>
                    <rect id="Rectangle" fill="#D6D6D6" x="30" y="0" width="5" height="5"></rect>
                </g>
            </g>
            <g id="Group-2" transform="translate(90, 60)">
                <g id="Group">
                    <rect id="Rectangle" fill="#EEEEEE" x="0" y="0" width="5" height="5"></rect>
                    <rect id="Rectangle" fill="#E0E0E0" x="15" y="0" width="5" height="5"></rect>
                    <rect id="Rectangle" fill="#D6D6D6" x="30" y="0" width="5" height="5"></rect>
                </g>
                <g id="Group" transform="translate(0, 15)">
                    <rect id="Rectangle" fill="#EEEEEE" x="0" y="0" width="5" height="5"></rect>
                    <rect id="Rectangle" fill="#E0E0E0" x="15" y="0" width="5" height="5"></rect>
                    <rect id="Rectangle" fill="#D6D6D6" x="30" y="0" width="5" height="5"></rect>
                </g>
            </g>
            <g id="Group-2" transform="translate(90, 90)">
                <g id="Group">
                    <rect id="Rectangle" fill="#EEEEEE" x="0" y="0" width="5" height="5"></rect>
                    <rect id="Rectangle" fill="#E0E0E0" x="15" y="0" width="5" height="5"></rect>
                    <rect id="Rectangle" fill="#D6D6D6" x="30" y="0" width="5" height="5"></rect>
                </g>
                <g id="Group" transform="translate(0, 15)">
                    <rect id="Rectangle" fill="#EEEEEE" x="0" y="0" width="5" height="5"></rect>
                    <rect id="Rectangle" fill="#E0E0E0" x="15" y="0" width="5" height="5"></rect>
                    <rect id="Rectangle" fill="#D6D6D6" x="30" y="0" width="5" height="5"></rect>
                </g>
            </g>
            <g id="Group-2" transform="translate(135, 60)">
                <g id="Group">
                    <rect id="Rectangle" fill="#EEEEEE" x="0" y="0" width="5" height="5"></rect>
                    <rect id="Rectangle" fill="#E0E0E0" x="15" y="0" width="5" height="5"></rect>
                    <rect id="Rectangle" fill="#D6D6D6" x="30" y="0" width="5" height="5"></rect>
                </g>
                <g id="Group" transform="translate(0, 15)">
                    <rect id="Rectangle" fill="#EEEEEE" x="0" y="0" width="5" height="5"></rect>
                    <rect id="Rectangle" fill="#E0E0E0" x="15" y="0" width="5" height="5"></rect>
                    <rect id="Rectangle" fill="#D6D6D6" x="30" y="0" width="5" height="5"></rect>
                </g>
            </g>
            <g id="Group-2" transform="translate(135, 90)">
                <g id="Group">
                    <rect id="Rectangle" fill="#EEEEEE" x="0" y="0" width="5" height="5"></rect>
                    <rect id="Rectangle" fill="#E0E0E0" x="15" y="0" width="5" height="5"></rect>
                    <rect id="Rectangle" fill="#D6D6D6" x="30" y="0" width="5" height="5"></rect>
                </g>
                <g id="Group" transform="translate(0, 15)">
                    <rect id="Rectangle" fill="#EEEEEE" x="0" y="0" width="5" height="5"></rect>
                    <rect id="Rectangle" fill="#E0E0E0" x="15" y="0" width="5" height="5"></rect>
                    <rect id="Rectangle" fill="#D6D6D6" x="30" y="0" width="5" height="5"></rect>
                </g>
            </g>
        </g>
    </g>
</svg>