<?xml version="1.0" encoding="UTF-8"?>
<svg width="859px" height="898px" viewBox="0 0 859 898" version="1.1" xmlns="http://www.w3.org/2000/svg" xmlns:xlink="http://www.w3.org/1999/xlink">
    <title>profile</title>
    <g id="Page-1" stroke="none" stroke-width="1" fill="none" fill-rule="evenodd">
        <g id="profile" fill-rule="nonzero">
            <g id="Group" transform="translate(0, 210.6915)" fill="#FF7400">
                <path d="M773.291084,0.00175390625 L771.538022,4.22866797 L771.538022,510.85852 L773.291084,515.201191 C827.110063,443.420824 859,354.238199 859,257.601473 C859,160.964746 827.110063,71.7821211 773.291084,0.00175390625 Z" id="Path"></path>
                <path d="M87.4619776,5.14069922 L85.7089163,0 C31.8899367,71.7821211 0,160.962992 0,257.601473 C0,354.239953 31.8899367,443.420824 85.7089163,515.201191 L87.4619776,510.060492 L87.4619776,5.14069922 Z" id="Path"></path>
            </g>
            <g id="Group" transform="translate(85.7089, 0)">
                <path d="M23.1246306,0 C10.3535796,0 0,10.3585703 0,23.1357773 L0,86.3746211 L5.72900408,87.9163047 L681.85141,87.9163047 L687.580414,86.3746211 L687.580414,23.1357773 C687.580414,10.3585703 677.228588,0 664.457537,0 L23.1246306,0 Z" id="Path" fill="#FF7400"></path>
                <path d="M96.5638714,0 L23.1246306,0 C10.3535796,0 0,10.3585703 0,23.1357773 L0,86.3746211 L5.72900408,87.9163047 L79.1664918,87.9163047 L73.4374878,86.3746211 L73.4374878,23.1357773 C73.4392408,10.3585703 83.7910673,0 96.5638714,0 Z" id="Path" fill="#E26701"></path>
                <path d="M0,725.892688 C78.3495653,830.388668 203.17629,898 343.791084,898 C484.405878,898 609.234355,830.388668 687.582167,725.892688 L687.582167,86.3746211 L0,86.3746211 L0,725.892688 Z" id="Path" fill="#FFFFFF"></path>
                <path d="M73.4392408,86.3746211 L0,86.3746211 L0,725.892688 C21.2541143,754.241074 45.9547469,779.846352 73.4374878,802.150777 L73.4374878,86.3746211 L73.4392408,86.3746211 Z" id="Path" fill="#ECECED"></path>
                <g transform="translate(34.5248, 31.672)" fill="#3F3F46">
                    <g id="Oval">
                        <ellipse cx="13.1479592" cy="13.1542969" rx="13.1479592" ry="13.1542969"></ellipse>
                        <ellipse cx="55.2214286" cy="13.1542969" rx="13.1479592" ry="13.1542969"></ellipse>
                        <ellipse cx="97.294898" cy="13.1542969" rx="13.1479592" ry="13.1542969"></ellipse>
                    </g>
                    <path d="M603.76831,26.3085938 L556.435657,26.3085938 C549.174478,26.3085938 543.287698,20.4189766 543.287698,13.1542969 C543.287698,5.88961719 549.174478,0 556.435657,0 L603.76831,0 C611.02949,0 616.916269,5.88961719 616.916269,13.1542969 C616.916269,20.4189766 611.02949,26.3085938 603.76831,26.3085938 Z" id="Path"></path>
                </g>
                <g transform="translate(214.2697, 740.1484)" id="Path">
                    <path d="M241.512233,83.1895273 L17.5306122,83.1895273 C7.8484551,83.1895273 0,75.3372891 0,65.6504648 L0,17.5390625 C0,7.85223828 7.8484551,0 17.5306122,0 L241.512233,0 C251.19439,0 259.042845,7.85223828 259.042845,17.5390625 L259.042845,65.6504648 C259.042845,75.3372891 251.19439,83.1895273 241.512233,83.1895273 Z" fill="#FF7400"></path>
                    <path d="M73.4234633,65.6504648 L73.4234633,17.5390625 C73.4234633,7.85223828 81.2719184,0 90.9540755,0 L17.5306122,0 C7.8484551,0 4.98249967e-14,7.85223828 4.98249967e-14,17.5390625 L4.98249967e-14,65.6504648 C4.98249967e-14,75.3372891 7.8484551,83.1895273 17.5306122,83.1895273 L90.9540755,83.1895273 C81.2719184,83.1895273 73.4234633,75.3372891 73.4234633,65.6504648 Z" fill="#E26701"></path>
                    <path d="M199.079386,54.7481836 L59.9652122,54.7481836 C52.7040327,54.7481836 46.8172531,48.8585664 46.8172531,41.5938867 C46.8172531,34.329207 52.7040327,28.4395898 59.9652122,28.4395898 L199.079386,28.4395898 C206.340565,28.4395898 212.227345,34.329207 212.227345,41.5938867 C212.227345,48.8585664 206.340565,54.7481836 199.079386,54.7481836 Z" fill="#FF8C2D"></path>
                </g>
                <g transform="translate(66.9494, 125.6446)">
                    <path d="M540.535392,229.866953 L368.5969,229.866953 C361.33572,229.866953 355.448941,223.977336 355.448941,216.712656 C355.448941,209.447977 361.33572,203.558359 368.5969,203.558359 L540.535392,203.558359 C547.796571,203.558359 553.683351,209.447977 553.683351,216.712656 C553.683351,223.977336 547.796571,229.866953 540.535392,229.866953 Z" id="Path" fill="#3F3F46"></path>
                    <path d="M540.535392,286.274332 L368.5969,286.274332 C361.33572,286.274332 355.448941,280.384715 355.448941,273.120035 C355.448941,265.855355 361.33572,259.965738 368.5969,259.965738 L540.535392,259.965738 C547.796571,259.965738 553.683351,265.855355 553.683351,273.120035 C553.683351,280.384715 547.796571,286.274332 540.535392,286.274332 Z" id="Path" fill="#3F3F46"></path>
                    <path d="M540.535392,342.685219 L368.5969,342.685219 C361.33572,342.685219 355.448941,336.795602 355.448941,329.530922 C355.448941,322.266242 361.33572,316.376625 368.5969,316.376625 L540.535392,316.376625 C547.796571,316.376625 553.683351,322.266242 553.683351,329.530922 C553.683351,336.795602 547.796571,342.685219 540.535392,342.685219 Z" id="Path" fill="#3F3F46"></path>
                    <path d="M321.266,229.866953 L223.131386,229.866953 C215.870206,229.866953 209.983427,223.977336 209.983427,216.712656 C209.983427,209.447977 215.870206,203.558359 223.131386,203.558359 L321.266,203.558359 C328.52718,203.558359 334.413959,209.447977 334.413959,216.712656 C334.413959,223.977336 328.52718,229.866953 321.266,229.866953 Z" id="Path" fill="#3F3F46"></path>
                    <path d="M321.266,286.274332 L223.131386,286.274332 C215.870206,286.274332 209.983427,280.384715 209.983427,273.120035 C209.983427,265.855355 215.870206,259.965738 223.131386,259.965738 L321.266,259.965738 C328.52718,259.965738 334.413959,265.855355 334.413959,273.120035 C334.413959,280.384715 328.52718,286.274332 321.266,286.274332 Z" id="Path" fill="#3F3F46"></path>
                    <path d="M321.266,342.685219 L223.131386,342.685219 C215.870206,342.685219 209.983427,336.795602 209.983427,329.530922 C209.983427,322.266242 215.870206,316.376625 223.131386,316.376625 L321.266,316.376625 C328.52718,316.376625 334.413959,322.266242 334.413959,329.530922 C334.413959,336.795602 328.52718,342.685219 321.266,342.685219 Z" id="Path" fill="#3F3F46"></path>
                    <path d="M540.535392,410.173777 L223.131386,410.173777 C215.870206,410.173777 209.983427,404.28416 209.983427,397.01948 C209.983427,389.754801 215.870206,383.865184 223.131386,383.865184 L540.535392,383.865184 C547.796571,383.865184 553.683351,389.754801 553.683351,397.01948 C553.683351,404.28416 547.796571,410.173777 540.535392,410.173777 Z" id="Path" fill="#3F3F46"></path>
                    <path d="M540.535392,466.58291 L223.131386,466.58291 C215.870206,466.58291 209.983427,460.693293 209.983427,453.428613 C209.983427,446.163934 215.870206,440.274316 223.131386,440.274316 L540.535392,440.274316 C547.796571,440.274316 553.683351,446.163934 553.683351,453.428613 C553.683351,460.693293 547.796571,466.58291 540.535392,466.58291 Z" id="Path" fill="#3F3F46"></path>
                    <g transform="translate(2.8575, 126.5724)">
                        <path d="M158.418884,130.47484 L118.852292,107.619688 C108.993076,115.086066 96.7234,119.523449 83.4351959,119.523449 C70.1452388,119.523449 57.8755633,115.084313 48.0163469,107.619688 L8.4497551,130.47484 C3.22212653,133.495066 0.00175306122,139.074242 0.00175306122,145.112941 L0.00175306122,199.206918 C0.00175306122,208.542961 7.56621224,216.111066 16.8977571,216.111066 L149.970882,216.111066 C159.302427,216.111066 166.866886,208.542961 166.866886,199.206918 L166.866886,145.112941 C166.865133,139.074242 163.644759,133.495066 158.418884,130.47484 L158.418884,130.47484 Z" id="Path" fill="#4F4F57"></path>
                        <path d="M57.5687776,199.208672 L57.5687776,145.114695 C57.5687776,139.075996 60.789151,133.495066 66.0167796,130.476594 L85.0445061,119.484863 C84.5080694,119.498895 83.9733857,119.525203 83.4334429,119.525203 C70.1434857,119.525203 57.8738102,115.086066 48.0145939,107.621441 L8.44800204,130.476594 C3.22037347,133.49682 0,139.075996 0,145.114695 L0,199.208672 C0,208.544715 7.56445918,216.11282 16.8960041,216.11282 L74.4630286,216.11282 C65.1332367,216.11282 57.5687776,208.544715 57.5687776,199.208672 Z" id="Path" fill="#3F3F46"></path>
                        <ellipse id="Oval" fill="#4F4F57" cx="83.4334429" cy="60.6886641" rx="60.6594245" ry="60.6886641"></ellipse>
                        <path d="M71.4670469,60.6886641 C71.4670469,35.8375664 86.4048816,14.4872656 107.779957,5.10211328 C100.325941,1.82932422 92.0953184,0 83.4334429,0 C49.9324429,0 22.7740184,27.1715156 22.7740184,60.6886641 C22.7740184,94.2058125 49.9324429,121.377328 83.4334429,121.377328 C92.0953184,121.377328 100.325941,119.548004 107.779957,116.275215 C86.4048816,106.890063 71.4670469,85.5397617 71.4670469,60.6886641 Z" id="Path" fill="#3F3F46"></path>
                    </g>
                    <path d="M45.5603082,98.7379063 L8.76530612,98.7379063 C3.92510408,98.7379063 0,94.8109102 0,89.968375 L0,53.1556367 C0,48.3131016 3.92510408,44.3861055 8.76530612,44.3861055 L45.5603082,44.3861055 C50.4005102,44.3861055 54.3256143,48.3131016 54.3256143,53.1556367 L54.3256143,89.968375 C54.3256143,94.8126641 50.4005102,98.7379063 45.5603082,98.7379063 Z" id="Path" fill="#4F4F57"></path>
                    <path d="M22.647798,89.968375 L22.647798,53.1556367 C22.647798,48.3131016 26.572902,44.3861055 31.4131041,44.3861055 L8.76530612,44.3861055 C3.92510408,44.3861055 2.48689958e-14,48.3131016 2.48689958e-14,53.1556367 L2.48689958e-14,89.968375 C2.48689958e-14,94.8109102 3.92510408,98.7379063 8.76530612,98.7379063 L31.4131041,98.7379063 C26.572902,98.7379063 22.647798,94.8126641 22.647798,89.968375 Z" id="Path" fill="#3F3F46"></path>
                    <path d="M114.385492,98.7379063 L77.5904898,98.7379063 C72.7502878,98.7379063 68.8251837,94.8109102 68.8251837,89.968375 L68.8251837,53.1556367 C68.8251837,48.3131016 72.7502878,44.3861055 77.5904898,44.3861055 L114.385492,44.3861055 C119.225694,44.3861055 123.150798,48.3131016 123.150798,53.1556367 L123.150798,89.968375 C123.150798,94.8126641 119.225694,98.7379063 114.385492,98.7379063 Z" id="Path" fill="#4F4F57"></path>
                    <path d="M91.4729816,89.968375 L91.4729816,53.1556367 C91.4729816,48.3131016 95.3980857,44.3861055 100.238288,44.3861055 L77.5904898,44.3861055 C72.7502878,44.3861055 68.8251837,48.3131016 68.8251837,53.1556367 L68.8251837,89.968375 C68.8251837,94.8109102 72.7502878,98.7379063 77.5904898,98.7379063 L100.238288,98.7379063 C95.3980857,98.7379063 91.4729816,94.8126641 91.4729816,89.968375 Z" id="Path" fill="#3F3F46"></path>
                    <path d="M183.210676,98.7379063 L146.415673,98.7379063 C141.575471,98.7379063 137.650367,94.8109102 137.650367,89.968375 L137.650367,53.1556367 C137.650367,48.3131016 141.575471,44.3861055 146.415673,44.3861055 L183.210676,44.3861055 C188.050878,44.3861055 191.975982,48.3131016 191.975982,53.1556367 L191.975982,89.968375 C191.975982,94.8126641 188.050878,98.7379063 183.210676,98.7379063 Z" id="Path" fill="#ECECED"></path>
                    <path d="M160.298165,89.968375 L160.298165,53.1556367 C160.298165,48.3131016 164.223269,44.3861055 169.063471,44.3861055 L146.415673,44.3861055 C141.575471,44.3861055 137.650367,48.3131016 137.650367,53.1556367 L137.650367,89.968375 C137.650367,94.8109102 141.575471,98.7379063 146.415673,98.7379063 L169.063471,98.7379063 C164.223269,98.7379063 160.298165,94.8126641 160.298165,89.968375 Z" id="Path" fill="#D9D9DA"></path>
                    <path d="M547.728202,45.7997539 L513.860812,45.7997539 C510.572069,45.7997539 507.905663,43.1320625 507.905663,39.8417344 L507.905663,5.95801953 C507.905663,2.66769141 505.239257,0 501.950514,0 L462.361133,0 C459.07239,0 456.405984,2.66769141 456.405984,5.95801953 L456.405984,39.8417344 C456.405984,43.1320625 453.739578,45.7997539 450.450835,45.7997539 L416.583445,45.7997539 C413.294702,45.7997539 410.628296,48.4674453 410.628296,51.7577734 L410.628296,91.3662383 C410.628296,94.6565664 413.294702,97.3242578 416.583445,97.3242578 L450.450835,97.3242578 C453.739578,97.3242578 456.405984,99.9919492 456.405984,103.282277 L456.405984,137.165992 C456.405984,140.45632 459.07239,143.124012 462.361133,143.124012 L501.950514,143.124012 C505.239257,143.124012 507.905663,140.45632 507.905663,137.165992 L507.905663,103.282277 C507.905663,99.9919492 510.572069,97.3242578 513.860812,97.3242578 L547.728202,97.3242578 C551.016945,97.3242578 553.683351,94.6565664 553.683351,91.3662383 L553.683351,51.7577734 C553.683351,48.4674453 551.016945,45.7997539 547.728202,45.7997539 Z" id="Path" fill="#4F4F57"></path>
                    <path d="M489.857898,115.699934 C486.569155,115.699934 483.902749,113.032242 483.902749,109.741914 L483.902749,75.8581992 C483.902749,72.5678711 481.236343,69.9001797 477.9476,69.9001797 L444.08021,69.9001797 C440.791467,69.9001797 438.125061,67.2324883 438.125061,63.9421602 L438.125061,45.7997539 L416.583445,45.7997539 C413.294702,45.7997539 410.628296,48.4674453 410.628296,51.7577734 L410.628296,91.3662383 C410.628296,94.6565664 413.294702,97.3242578 416.583445,97.3242578 L450.450835,97.3242578 C453.739578,97.3242578 456.405984,99.9919492 456.405984,103.282277 L456.405984,137.165992 C456.405984,140.45632 459.07239,143.124012 462.361133,143.124012 L501.950514,143.124012 C505.239257,143.124012 507.905663,140.45632 507.905663,137.165992 L507.905663,115.699934 L489.857898,115.699934 Z" id="Path" fill="#3F3F46"></path>
                    <ellipse id="Oval" fill="#FF7400" cx="13.1479592" cy="401.488434" rx="13.1479592" ry="13.1542969"></ellipse>
                    <ellipse id="Oval" fill="#3F3F46" cx="60.0037796" cy="401.488434" rx="13.1479592" ry="13.1542969"></ellipse>
                    <ellipse id="Oval" fill="#3F3F46" cx="106.8596" cy="401.488434" rx="13.1479592" ry="13.1542969"></ellipse>
                    <ellipse id="Oval" fill="#FF7400" cx="153.71542" cy="401.488434" rx="13.1479592" ry="13.1542969"></ellipse>
                    <ellipse id="Oval" fill="#3F3F46" cx="13.1479592" cy="447.882762" rx="13.1479592" ry="13.1542969"></ellipse>
                    <ellipse id="Oval" fill="#FF7400" cx="60.0037796" cy="447.882762" rx="13.1479592" ry="13.1542969"></ellipse>
                    <ellipse id="Oval" fill="#3F3F46" cx="106.8596" cy="447.882762" rx="13.1479592" ry="13.1542969"></ellipse>
                    <ellipse id="Oval" fill="#3F3F46" cx="153.71542" cy="447.882762" rx="13.1479592" ry="13.1542969"></ellipse>
                </g>
                <path d="M608.571698,679.638672 L79.0104694,679.638672 C71.7492898,679.638672 65.8625102,673.749055 65.8625102,666.484375 C65.8625102,659.219695 71.7492898,653.330078 79.0104694,653.330078 L608.573451,653.330078 C615.834631,653.330078 621.72141,659.219695 621.72141,666.484375 C621.72141,673.749055 615.832878,679.638672 608.571698,679.638672 L608.571698,679.638672 Z" id="Path" fill="#3F3F46"></path>
            </g>
        </g>
    </g>
</svg>