<?xml version="1.0" encoding="UTF-8"?>
<svg width="859px" height="859px" viewBox="0 0 859 859" version="1.1" xmlns="http://www.w3.org/2000/svg" xmlns:xlink="http://www.w3.org/1999/xlink">
    <title>loupe</title>
    <g id="Page-1" stroke="none" stroke-width="1" fill="none" fill-rule="evenodd">
        <g id="loupe" fill-rule="nonzero">
            <path d="M437.618492,858.923941 C435.648831,858.960851 433.677493,858.984339 431.701122,859 C326.866195,859.521214 230.7773,822.81241 156.002345,761.1792 C152.289518,758.119015 159.493711,745.564536 155.888259,742.381876 C141.994938,730.122679 128.903575,716.975961 116.704767,703.023931 C113.983481,699.911736 100.442485,706.194847 97.8117968,703.003799 C37.8579497,630.302582 1.41755345,537.346092 0.0401333122,435.438895 C-3.20125,195.511292 190.317051,0 429.499934,0 C431.853796,0 434.204302,0.0184550661 436.549775,0.0570429315 C444.95187,0.192939327 451.726562,6.96427084 451.726562,15.3663591 L451.726562,844.629653 C451.726562,852.451246 445.438413,858.779656 437.618492,858.923941 Z" id="Path" fill="#FF7400"></path>
            <path d="M859,429.499719 C859,664.46291 670.318608,855.323525 436.210872,858.913874 L436.210872,0.0855643972 C670.318608,3.67591361 859,194.536529 859,429.499719 Z" id="Path" fill="#FFFFFF"></path>
            <path d="M549.358974,772.284117 L688.287146,772.284117 C676.366841,781.295222 663.963349,789.698988 651.12029,797.450116 L549.358974,797.450116 C542.409797,797.450116 536.775964,791.816287 536.775964,784.867116 C536.775964,777.917945 542.409797,772.284117 549.358974,772.284117 Z M536.775964,619.352017 C536.775964,626.301189 542.409797,631.935017 549.358974,631.935017 L808.389457,631.935017 C812.796866,623.70238 816.944226,615.310358 820.821471,606.769018 L549.358974,606.769018 C542.409797,606.769018 536.775964,612.401168 536.775964,619.352017 Z M536.192112,729.501918 C536.192112,736.451089 541.825945,742.084918 548.775122,742.084918 L724.027926,742.084918 C732.569273,734.035153 740.781785,725.639776 748.641971,716.918918 L548.775122,716.918918 C541.825945,716.918918 536.192112,722.552747 536.192112,729.501918 L536.192112,729.501918 Z M591.298984,674.13672 C591.298984,681.085891 596.932817,686.719719 603.881994,686.719719 L773.477477,686.719719 C779.596175,678.550836 785.431336,670.157136 790.967861,661.55372 L603.881994,661.55372 C596.932817,661.55372 591.298984,667.187549 591.298984,674.13672 Z M548.969739,440.673423 C542.020563,440.673423 536.38673,446.307251 536.38673,453.256423 C536.38673,460.205594 542.020563,465.839422 548.969739,465.839422 L857.483328,465.839422 C858.181265,457.516187 858.640965,449.124166 858.857393,440.673423 L548.969739,440.673423 Z M536.581347,508.621621 C536.581347,515.570792 542.21518,521.20462 549.164357,521.20462 L849.18693,521.20462 C850.992173,512.903196 852.557499,504.511174 853.876198,496.038621 L549.164357,496.038621 C542.21518,496.038621 536.581347,501.670772 536.581347,508.621621 Z M536.192112,563.986819 C536.192112,570.93599 541.825945,576.569819 548.775122,576.569819 L833.157853,576.569819 C836.172743,568.296916 838.941005,559.904894 841.452573,551.403819 L548.775122,551.403819 C541.825945,551.403819 536.192112,557.03597 536.192112,563.986819 L536.192112,563.986819 Z" id="Shape" fill="#3F3F46"></path>
            <path d="M757.597719,101.402199 C876.023973,219.828358 876.023973,411.836543 757.597719,530.262702 C639.171464,648.688861 447.163124,648.688861 328.736869,530.262702 C210.310615,411.836543 210.310615,219.828358 328.736869,101.402199 C447.163124,-17.0239596 639.169786,-17.0239596 757.597719,101.402199 Z" id="Path" fill="#EDEDED"></path>
            <path d="M591.298984,615.260026 C498.547103,630.091188 400.231853,601.759306 328.735192,530.262702 C210.308937,411.836543 210.308937,219.828358 328.735192,101.402199 C400.231853,29.9055957 498.547103,1.57539155 591.298984,16.4065537 C530.41735,26.1407622 471.93152,54.4726441 425.001927,101.403877 C306.575673,219.830036 306.575673,411.838221 425.001927,530.26438 C471.93152,577.193935 530.41735,605.525817 591.298984,615.260026 Z" id="Path" fill="#FAC59A"></path>
            <path d="M436.210872,599.672206 C397.020669,584.931641 360.269892,561.797377 328.735192,530.26438 C210.308937,411.838221 210.308937,219.830036 328.735192,101.403877 C360.268214,69.8708801 397.020669,46.736616 436.210872,31.9960514 L436.210872,599.672206 Z" id="Path" fill="#FF8B29"></path>
            <path d="M436.210872,540.924697 L436.210872,599.672206 C397.020669,584.931641 360.269892,561.797377 328.735192,530.26438 C210.308937,411.838221 210.308937,219.830036 328.735192,101.403877 C360.268214,69.8708801 397.020669,46.736616 436.210872,31.9960514 L436.210872,90.7435599 C432.407448,94.1845908 428.669455,97.7363522 425.001927,101.403877 C306.575673,219.830036 306.575673,411.838221 425.001927,530.26438 C428.669455,533.930227 432.407448,537.483666 436.210872,540.924697 Z" id="Path" fill="#FFA961"></path>
            <path d="M721.294897,146.15909 C721.294897,153.108261 715.661064,158.74209 708.711887,158.74209 L532.811477,158.74209 C525.8623,158.74209 520.228467,153.108261 520.228467,146.15909 C520.228467,139.209919 525.8623,133.57609 532.811477,133.57609 L708.713565,133.57609 C715.661064,133.57609 721.294897,139.209919 721.294897,146.15909 Z M532.922208,105.054625 L622.620612,105.054625 C629.569789,105.054625 635.203622,99.4207964 635.203622,92.4716251 C635.203622,85.5224539 629.569789,79.8886255 622.620612,79.8886255 L532.922208,79.8886255 C525.973031,79.8886255 520.339198,85.5224539 520.339198,92.4716251 C520.339198,99.4207964 525.973031,105.054625 532.922208,105.054625 Z M532.811477,24.5234273 C525.8623,24.5234273 520.228467,30.1572557 520.228467,37.1064269 C520.228467,44.0555982 525.8623,49.6894265 532.811477,49.6894265 L688.684769,49.6894265 C669.127416,38.9854882 648.640598,30.5951441 627.625294,24.5234273 L532.811477,24.5234273 Z M548.775122,551.403819 C541.825945,551.403819 536.192112,557.037648 536.192112,563.986819 C536.192112,570.93599 541.825945,576.569819 548.775122,576.569819 L698.153903,576.569819 C710.61276,569.15256 722.653862,560.763893 734.169832,551.403819 L548.775122,551.403819 Z M549.164357,496.038621 C542.21518,496.038621 536.581347,501.67245 536.581347,508.621621 C536.581347,515.570792 542.21518,521.20462 549.164357,521.20462 L766.293417,521.20462 C773.755981,513.109557 780.695091,504.705791 787.115782,496.038621 L549.164357,496.038621 Z M548.969739,440.673423 C542.020563,440.673423 536.38673,446.307251 536.38673,453.256423 C536.38673,460.205594 542.020563,465.839422 548.969739,465.839422 L806.803998,465.839422 C811.491588,457.613496 815.761423,449.214763 819.616857,440.673423 L548.969739,440.673423 Z" id="Shape" fill="#4F4F57"></path>
            <path d="M766.494746,92.5051798 C706.842891,32.8533731 627.527986,0 543.166455,0 C458.804925,0 379.491698,32.8533731 319.838165,92.5051798 C202.683633,209.659617 196.987724,396.7101 302.745405,520.662713 L181.629741,641.778278 L217.219526,677.368034 L338.326801,556.260857 C395.42011,605.061085 467.248963,631.66658 543.166455,631.66658 C627.527986,631.66658 706.842891,598.813206 766.494746,539.1614 C889.637112,416.017455 889.637112,215.649125 766.494746,92.5051798 Z M748.699014,521.365683 C693.800182,576.266149 620.806981,606.50058 543.166455,606.50058 C465.52593,606.50058 392.532729,576.266149 337.633896,521.365683 C224.302922,408.0348 224.302922,223.63178 337.633896,110.299219 C392.532729,55.4004306 465.52593,25.1659992 543.166455,25.1659992 C620.806981,25.1659992 693.800182,55.4004306 748.699014,110.300897 C862.029989,223.63178 862.029989,408.0348 748.699014,521.365683 Z" id="Shape" fill="#3F3F46"></path>
            <path d="M255.743669,603.255844 C271.796234,619.308396 271.796234,645.333395 255.743669,661.385947 L156.248972,760.880564 C135.072605,743.398583 115.600817,723.92681 98.1188222,702.750461 L197.613519,603.255844 C213.666084,587.203292 239.691104,587.203292 255.743669,603.255844 Z" id="Path" fill="#3F3F46"></path>
            <path d="M293.739325,623.390321 C282.450434,634.679204 273.983765,643.145865 268.339319,648.790306 C262.252299,654.877322 253.121768,664.007845 240.947727,676.181877 L182.817577,618.051774 L235.609175,565.260219 C251.66174,549.207667 277.68676,549.207667 293.739325,565.260219 C309.79189,581.312771 309.79189,607.339447 293.739325,623.390321 Z" id="Path" fill="#4F4F57"></path>
            <path d="M738.203106,234.882659 L738.203106,268.437325 C738.203106,277.703446 730.691888,285.214657 721.42576,285.214657 L637.539028,285.214657 C628.2729,285.214657 620.761682,277.703446 620.761682,268.437325 L620.761682,234.882659 C620.761682,225.616538 628.2729,218.105326 637.539028,218.105326 L721.42576,218.105326 C730.691888,218.105326 738.203106,225.616538 738.203106,234.882659 Z M402.65618,318.769323 L318.769448,318.769323 C309.50332,318.769323 301.992102,326.280535 301.992102,335.546656 L301.992102,369.101321 C301.992102,378.367442 309.50332,385.878654 318.769448,385.878654 L402.65618,385.878654 C411.922308,385.878654 419.433526,378.367442 419.433526,369.101321 L419.433526,335.546656 C419.433526,326.280535 411.922308,318.769323 402.65618,318.769323 Z" id="Shape" fill="#4F4F57"></path>
            <path d="M587.206989,234.882659 L587.206989,268.437325 C587.206989,277.703446 579.695771,285.214657 570.429643,285.214657 L402.65618,285.214657 C393.390051,285.214657 385.878833,277.703446 385.878833,268.437325 L385.878833,234.882659 C385.878833,225.616538 393.390051,218.105326 402.65618,218.105326 L570.429643,218.105326 C579.695771,218.105326 587.206989,225.616538 587.206989,234.882659 Z" id="Path" fill="#4F4F57"></path>
            <path d="M486.542911,318.769323 L687.871067,318.769323 C697.137196,318.769323 704.648414,326.280535 704.648414,335.546656 L704.648414,369.101321 C704.648414,378.367442 697.137196,385.878654 687.871067,385.878654 L486.542911,385.878654 C477.276783,385.878654 469.765565,378.367442 469.765565,369.101321 L469.765565,335.546656 C469.765565,326.280535 477.276783,318.769323 486.542911,318.769323 Z" id="Path" fill="#4F4F57"></path>
        </g>
    </g>
</svg>