<?xml version="1.0" encoding="UTF-8"?>
<svg width="1288px" height="1392px" viewBox="0 0 1288 1392" version="1.1" xmlns="http://www.w3.org/2000/svg" xmlns:xlink="http://www.w3.org/1999/xlink">
    <title>Tawtheef Icon</title>
    <g id="Page-1" stroke="none" stroke-width="1" fill="none" fill-rule="evenodd">
        <g id="Tawtheef-Icon" fill="#E26701" fill-rule="nonzero">
            <path d="M722.556163,678.274683 C722.556163,777.024683 723.176163,875.784683 722.266163,974.524683 C721.876163,1016.59468 736.096163,1049.99468 766.906163,1079.13468 C865.126163,1172.03468 831.896163,1334.12468 706.176163,1380.07468 C625.066163,1409.72468 535.736163,1378.84468 490.096163,1305.37468 C444.856163,1232.55468 457.206163,1138.42468 520.606163,1078.86468 C538.886163,1061.68468 553.686163,1042.98468 560.576163,1018.46468 C564.306163,1005.19468 564.836163,991.734683 564.836163,978.204683 C564.916163,775.534683 564.896163,572.874683 564.876163,370.204683 C564.876163,366.334683 564.966163,362.434683 564.556163,358.604683 C562.166163,336.354683 544.216163,326.034683 524.266163,336.474683 C503.136163,347.534683 482.736163,359.974683 462.026163,371.814683 C444.666163,381.734683 427.146163,391.374683 409.996163,401.644683 C383.296163,417.614683 366.036163,440.904683 357.826163,470.934683 C354.936163,481.494683 352.426163,492.224683 348.686163,502.484683 C323.116163,572.654683 249.106163,624.614683 163.616163,617.844683 C88.8461633,611.924683 24.3561633,556.614683 5.97616331,479.194683 C-9.41383669,414.334683 6.16616331,356.614683 53.9061633,310.624683 C105.116163,261.284683 166.706163,244.794683 235.956163,266.424683 C258.506163,273.464683 280.586163,278.644683 304.216163,273.104683 C316.896163,270.124683 328.906163,265.804683 340.186163,259.364683 C360.916163,247.544683 381.246163,234.954683 402.416163,224.004683 C439.236163,204.964683 461.016163,175.764683 470.556163,135.254683 C485.366163,72.3846831 526.136163,31.3146831 585.976163,9.97468313 C683.206163,-24.7053169 793.196163,34.4146831 817.856163,135.134683 C827.776163,175.654683 849.056163,204.924683 885.656163,224.154683 C905.626163,234.644683 925.096163,246.124683 944.486163,257.674683 C977.026163,277.064683 1011.22616,281.134683 1046.60616,267.874683 C1149.54616,229.284683 1291.46616,297.724683 1287.02616,451.364683 C1284.57616,536.024683 1206.80616,612.144683 1121.80616,618.094683 C1038.20616,623.944683 950.896163,569.314683 931.116163,476.164683 C924.166163,443.444683 905.976163,418.364683 877.296163,401.504683 C840.606163,379.934683 802.936163,360.004683 766.646163,337.804683 C743.636163,323.724683 721.836163,340.604683 722.156163,364.604683 C723.266163,446.554683 722.576163,528.534683 722.576163,610.504683 C722.576163,633.094683 722.576163,655.684683 722.576163,678.274683 L722.556163,678.274683 Z" id="Path"></path>
            <path d="M0.0661633073,950.024683 C2.90616331,847.144683 84.6761633,769.914683 187.856163,772.664683 C285.406163,775.254683 364.746163,860.044683 361.036163,959.024683 C357.146163,1062.64468 270.146163,1137.60468 172.096163,1133.43468 C75.8861633,1129.34468 -2.60383669,1046.86468 0.0661633073,950.024683 L0.0661633073,950.024683 Z" id="Path"></path>
            <path d="M1105.91616,1133.21468 C1005.62616,1132.78468 926.336163,1052.23468 926.85362,951.284683 C927.366163,851.554683 1008.80616,771.834683 1109.43616,772.574683 C1208.94616,773.294683 1288.45616,855.094683 1287.56616,955.814683 C1286.68616,1054.80468 1205.94616,1133.64468 1105.91616,1133.22635 L1105.91616,1133.21468 Z" id="Path"></path>
        </g>
    </g>
</svg>