<?xml version="1.0" encoding="UTF-8"?>
<svg width="859px" height="859px" viewBox="0 0 859 859" version="1.1" xmlns="http://www.w3.org/2000/svg" xmlns:xlink="http://www.w3.org/1999/xlink">
    <title>university</title>
    <g id="Page-1" stroke="none" stroke-width="1" fill="none" fill-rule="evenodd">
        <g id="university" fill-rule="nonzero">
            <path d="M859,429.499161 C859,494.748056 844.44901,556.612954 818.398828,612.010174 C807.669717,634.852572 794.960879,656.607796 780.532363,677.030897 C773.888535,686.444683 766.858828,695.578286 759.495252,704.413253 C757.146424,707.21843 754.779141,710.005152 752.359848,712.75832 C742.981313,723.433765 733.075969,733.654542 722.680727,743.34851 C717.543504,748.168651 712.285484,752.849539 706.903313,757.407952 C702.62509,761.036899 698.261303,764.59538 693.825373,768.048164 C683.639848,776.007352 673.086898,783.526972 662.20008,790.556692 C654.066424,795.8164 645.73815,800.812703 637.218615,805.510368 C632.029383,808.386011 626.769686,811.172733 621.441201,813.820203 C591.691615,828.721869 559.97908,840.239538 526.776717,847.916865 C521.605939,849.126514 516.398252,850.230465 511.15701,851.247174 C511.105,851.263952 511.051313,851.263952 510.999303,851.282407 C503.618949,852.701773 496.168131,853.929877 488.665303,854.963363 C469.329414,857.610833 449.572414,858.994967 429.5,858.994967 C424.661414,858.994967 419.841283,858.907724 415.03793,858.750017 C399.926576,858.25844 385.008162,856.980004 370.334697,854.963363 C362.813414,853.929877 355.364273,852.701773 347.98392,851.263952 C347.948688,851.263952 347.896678,851.263952 347.84299,851.247174 C342.601748,850.230465 337.377283,849.126514 332.206506,847.916865 C299.004143,840.23786 267.291607,828.703413 237.542021,813.801748 C232.213537,811.154278 226.95384,808.384333 221.764607,805.510368 C213.26185,800.794248 204.935254,795.8164 196.801598,790.556692 C189.630961,785.927814 182.601254,781.090897 175.747709,776.059361 C172.170779,773.447124 168.647537,770.764421 165.176305,768.048164 C156.129961,760.966434 147.365477,753.532378 138.933184,745.76613 C133.551012,740.821838 128.292992,735.756748 123.172547,730.532273 C117.493416,724.76421 111.970314,718.840119 106.64183,712.756642 C96.6492441,701.361448 87.2354766,689.441122 78.4709922,677.029219 C57.2761738,647.034625 39.8159922,614.182844 26.8085176,579.191948 C16.2203359,550.687185 8.55980078,520.763056 4.21111328,489.786986 C2.65082031,478.671974 1.51163867,467.41771 0.827123047,456.057748 C0.285214844,447.274792 0.00503320313,438.42137 0.00503320313,429.499161 C0.00503320313,423.43414 0.127507813,417.385895 0.390912109,411.372884 C1.00496289,396.244723 2.42432617,381.32628 4.58021484,366.652786 C6.78979102,351.470938 9.82145703,336.552495 13.5728711,321.932689 C61.3262246,136.790984 229.445275,0.00167773765 429.503355,0.00167773765 C582.316436,0.00167773765 716.478143,79.7999137 792.595273,200.008139 C818.313264,240.60939 837.402525,285.819386 848.359809,334.11642 C852.374627,351.840041 855.302273,369.983096 857.055506,388.478476 C858.350717,401.975875 859,415.667892 859,429.499161 Z" id="Path" fill="#E26701"></path>
            <g id="Group" transform="translate(0.005, 108.0262)" fill="#FF7400">
                <path d="M588.255615,67.0574962 L588.255615,67.0574962 C588.255615,54.7127026 578.24793,44.7049975 565.90316,44.7049975 L558.452342,44.7049975 C546.107572,44.7049975 536.099887,34.6972924 536.099887,22.3524987 L536.099887,22.3524987 C536.099887,10.0077051 526.092201,0 513.747432,0 L171.011465,0 C158.666695,0 148.65901,10.0077051 148.65901,22.3524987 L148.65901,22.3524987 C148.65901,34.6972924 158.666695,44.7049975 171.011465,44.7049975 L308.852443,44.7049975 C321.197213,44.7049975 331.204898,54.7127026 331.204898,67.0574962 L331.204898,67.0574962 C331.204898,79.4022898 321.197213,89.4099949 308.852443,89.4099949 L246.073301,89.4099949 C233.728531,89.4099949 223.720846,99.4177 223.720846,111.762494 L223.720846,111.762494 C223.720846,124.107287 233.728531,134.114992 246.073301,134.114992 L265.03841,134.114992 C277.38318,134.114992 287.390865,144.122698 287.390865,156.467491 L287.390865,156.467491 C287.390865,168.812285 277.38318,178.81999 265.03841,178.81999 L197.090168,178.81999 C184.745398,178.81999 174.737713,188.827695 174.737713,201.172489 L174.737713,201.172489 C174.737713,213.517282 184.745398,223.524987 197.090168,223.524987 L519.002096,223.524987 C531.346865,223.524987 541.354551,213.517282 541.354551,201.172489 L541.354551,201.172489 C541.354551,188.827695 551.362236,178.81999 563.707006,178.81999 L565.90316,178.81999 C578.24793,178.81999 588.255615,168.812285 588.255615,156.467491 L588.255615,156.467491 C588.255615,144.122698 578.24793,134.114992 565.90316,134.114992 L524.924498,134.114992 C512.579729,134.114992 502.572043,124.107287 502.572043,111.762494 L502.572043,111.762494 C502.572043,99.4177 512.579729,89.4099949 524.924498,89.4099949 L565.90316,89.4099949 C578.249607,89.4083172 588.255615,79.4022898 588.255615,67.0574962 Z" id="Path"></path>
                <path d="M254.876373,280.979113 C254.876373,293.320551 244.883787,303.329934 232.525596,303.329934 L226.319656,303.329934 C220.148949,303.329934 214.557061,305.836474 210.50701,309.886533 C206.475414,313.918137 203.968879,319.510036 203.968879,325.680755 C203.968879,338.022193 193.959516,348.031576 181.618102,348.031576 L0.823767578,348.031576 C0.280181641,339.24862 0,330.395198 0,321.472989 C0,315.407968 0.122474609,309.359723 0.385878906,303.346712 C0.614050781,303.329934 0.859,303.329934 1.08717188,303.329934 L7.29311133,303.329934 C13.4638184,303.329934 19.055707,300.823394 23.1057578,296.773335 C27.1373535,292.741732 29.6438887,287.149832 29.6438887,280.979113 C29.6438887,268.620898 19.6345254,258.628292 7.29311133,258.628292 L4.57518164,258.628292 C6.78475781,243.446444 9.81642383,228.528001 13.5678379,213.908195 L134.720393,213.908195 C147.078584,213.908195 157.089625,223.917578 157.089625,236.259016 C157.089625,248.618909 167.082211,258.628292 179.440402,258.628292 L232.52224,258.628292 C238.692947,258.628292 244.284836,261.118055 248.334887,265.166436 C252.369838,269.214817 254.876373,274.788261 254.876373,280.979113 Z" id="Path"></path>
                <path d="M848.354775,226.090248 L795.658816,226.090248 C789.488109,226.090248 783.896221,223.583708 779.864625,219.533649 C775.814574,215.502046 773.308039,209.910146 773.308039,203.739427 C773.308039,191.397989 763.298676,181.388606 750.957262,181.388606 L644.16108,181.388606 C637.973596,181.388606 632.398484,178.882066 628.348434,174.832007 C624.298383,170.800404 621.791848,165.208504 621.791848,159.037785 C621.791848,146.696347 631.801211,136.686964 644.16108,136.686964 L716.17615,136.686964 C722.363635,136.686964 727.938746,134.180424 731.988797,130.130365 C736.038848,126.098762 738.526928,120.506862 738.526928,114.336143 C738.526928,101.994705 748.536291,91.9853222 760.89616,91.9853222 L792.591918,91.9853222 C818.306553,132.58154 837.397492,177.793214 848.354775,226.090248 Z" id="Path"></path>
                <path d="M787.968082,398.435849 L787.968082,398.434171 C787.968082,386.089377 777.962074,376.08335 765.617305,376.08335 L553.266465,376.08335 C540.921695,376.08335 530.915687,386.089377 530.915687,398.434171 L530.915687,398.435849 C530.915687,410.780642 540.921695,420.78667 553.266465,420.78667 L588.656594,420.78667 C601.001363,420.78667 611.007371,430.792697 611.007371,443.137491 L611.007371,443.139168 C611.007371,455.483962 621.013379,465.489989 633.358148,465.489989 L810.315504,465.489989 C822.660273,465.489989 832.666281,455.483962 832.666281,443.139168 L832.666281,443.137491 C832.666281,430.792697 822.660273,420.78667 810.315504,420.78667 L810.315504,420.78667 C797.97409,420.78667 787.968082,410.778964 787.968082,398.435849 Z" id="Path"></path>
            </g>
            <path d="M693.827051,419.877336 L693.827051,768.049842 C683.641525,776.009029 673.088576,783.528649 662.201758,790.55837 C654.068102,795.818078 645.739828,800.81438 637.220293,805.512046 C632.031061,808.387688 626.771363,811.17441 621.442879,813.821881 C591.693293,828.723546 559.980758,840.241215 526.778395,847.918543 C521.607617,849.128192 516.39993,850.232143 511.158687,851.248852 C511.106678,851.265629 511.05299,851.265629 511.00098,851.284085 C503.620627,852.703451 496.169809,853.931555 488.66698,854.965041 C469.331092,857.612511 449.574092,858.996645 429.501678,858.996645 C424.663092,858.996645 419.842961,858.909402 415.039607,858.751695 C399.928254,858.260118 385.00984,856.981682 370.336375,854.965041 C362.815092,853.931555 355.365951,852.703451 347.985598,851.265629 C347.950365,851.265629 347.898355,851.265629 347.844668,851.248852 C342.603426,850.232143 337.378961,849.128192 332.208184,847.918543 C299.00582,840.239538 267.293285,828.705091 237.543699,813.803425 C232.215215,811.155955 226.955518,808.386011 221.766285,805.512046 C213.263527,800.795925 204.936932,795.818078 196.803275,790.55837 C189.632639,785.929492 182.602932,781.092574 175.749387,776.061039 C172.172457,773.448802 168.649215,770.766099 165.177982,768.049842 L165.177982,419.877336 L693.827051,419.877336 L693.827051,419.877336 Z" id="Path" fill="#8C8C90"></path>
            <rect id="Rectangle" fill="#79797E" x="128.148707" y="351.643745" width="620.545291" height="113.072807"></rect>
            <polygon id="Path" fill="#FFFFFF" points="429.496645 122.716443 0 380.574653 858.994967 380.574653"></polygon>
            <rect id="Rectangle" fill="#D9D9DA" x="57.4271699" y="380.56962" width="160.404828" height="60.4807646"></rect>
            <rect id="Rectangle" fill="#FFFFFF" x="104.759412" y="409.495495" width="113.072586" height="31.5548898"></rect>
            <path d="M196.803275,441.05374 L196.803275,790.560048 C189.632639,785.93117 182.602932,781.094252 175.749387,776.062717 C172.172457,773.450479 168.649215,770.767777 165.177982,768.05152 C156.131639,760.969789 147.367154,753.535733 138.934861,745.769486 C133.552689,740.825193 128.29467,735.760103 123.174225,730.535628 C117.495094,724.767566 111.971992,718.843474 106.643508,712.759998 C96.6509219,701.364803 87.2371543,689.444477 78.4726699,677.032574 L78.4726699,441.05374 L196.803275,441.05374 L196.803275,441.05374 Z" id="Path" fill="#B2B2B5"></path>
            <path d="M196.803275,485.75706 L196.803275,790.560048 C189.632639,785.93117 182.602932,781.094252 175.749387,776.062717 C172.172457,773.450479 168.649215,770.767777 165.177982,768.05152 C156.131639,760.969789 147.367154,753.535733 138.934861,745.769486 C133.552689,740.825193 128.29467,735.760103 123.174225,730.535628 L123.174225,485.75706 L196.803275,485.75706 Z" id="Path" fill="#D9D9DA"></path>
            <path d="M175.749387,548.86684 L175.749387,776.062717 C172.172457,773.450479 168.649215,770.767777 165.177982,768.05152 C156.131639,760.969789 147.367154,753.535733 138.934861,745.769486 L138.934861,548.86684 C138.934861,538.699749 147.174215,530.46038 157.341285,530.46038 C160.146457,530.46038 162.793922,531.091209 165.177982,532.213616 C167.105699,533.124627 168.877387,534.369509 170.367215,535.85934 C173.697518,539.189649 175.749387,543.779939 175.749387,548.86684 Z" id="Path" fill="#FFFFFF"></path>
            <rect id="Rectangle" fill="#D9D9DA" x="349.295908" y="380.56962" width="160.404828" height="60.4807646"></rect>
            <rect id="Rectangle" fill="#FFFFFF" x="396.62815" y="409.495495" width="113.072586" height="31.5548898"></rect>
            <path d="M488.668658,441.05374 L488.668658,854.966719 C469.33277,857.614189 449.57577,858.998322 429.503355,858.998322 C424.66477,858.998322 419.844639,858.91108 415.041285,858.753373 C399.929932,858.261795 385.011518,856.983359 370.338053,854.966719 L370.338053,441.05374 L488.668658,441.05374 L488.668658,441.05374 Z" id="Path" fill="#B2B2B5"></path>
            <path d="M488.668658,485.75706 L488.668658,854.968396 C469.33277,857.615866 449.57577,859 429.503355,859 C424.66477,859 419.844639,858.912758 415.041285,858.75505 L415.041285,485.75706 L488.668658,485.75706 L488.668658,485.75706 Z" id="Path" fill="#D9D9DA"></path>
            <path d="M449.215057,822.321299 L449.215057,822.321299 C439.049664,822.321299 430.810311,814.080252 430.810311,803.916517 L430.810311,548.858451 C430.810311,538.693038 439.051342,530.453669 449.215057,530.453669 L449.215057,530.453669 C459.380449,530.453669 467.619804,538.694716 467.619804,548.858451 L467.619804,803.91484 C467.623158,814.08193 459.382127,822.321299 449.215057,822.321299 Z" id="Path" fill="#FFFFFF"></path>
            <rect id="Rectangle" fill="#D9D9DA" x="641.161291" y="380.56962" width="160.404828" height="60.4807646"></rect>
            <rect id="Rectangle" fill="#FFFFFF" x="688.493533" y="409.495495" width="113.072586" height="31.5548898"></rect>
            <path d="M780.534041,441.052063 L780.534041,677.032574 C773.890213,686.44636 766.860506,695.579964 759.49693,704.41493 C757.148102,707.220108 754.780818,710.00683 752.361525,712.759998 C742.98299,723.435442 733.077646,733.65622 722.682404,743.350188 C717.545182,748.170328 712.287162,752.851217 706.90499,757.40963 C702.626768,761.038576 698.26298,764.597058 693.827051,768.049842 C683.641525,776.009029 673.088576,783.528649 662.201758,790.55837 L662.201758,441.052063 L780.534041,441.052063 L780.534041,441.052063 Z" id="Path" fill="#B2B2B5"></path>
            <path d="M780.534041,485.75706 L780.534041,677.032574 C773.890213,686.44636 766.860506,695.579964 759.49693,704.41493 C757.148102,707.220108 754.780818,710.00683 752.361525,712.759998 C742.98299,723.435442 733.077646,733.65622 722.682404,743.350188 C717.545182,748.170328 712.287162,752.851217 706.90499,757.40963 L706.90499,485.75706 L780.534041,485.75706 L780.534041,485.75706 Z" id="Path" fill="#D9D9DA"></path>
            <path d="M759.49693,548.86684 L759.49693,704.41493 C757.148102,707.220108 754.780818,710.00683 752.361525,712.759998 C742.98299,723.435442 733.077646,733.65622 722.682404,743.350188 L722.682404,548.86684 C722.682404,538.699749 730.921758,530.46038 741.088828,530.46038 C746.172363,530.46038 750.766,532.52903 754.096303,535.85934 C757.428283,539.189649 759.49693,543.779939 759.49693,548.86684 Z" id="Path" fill="#FFFFFF"></path>
            <g id="Group" transform="translate(221.7663, 668.0567)" fill="#D9D9DA">
                <path d="M126.219313,0 L126.219313,183.212307 C126.18408,183.212307 126.13207,183.212307 126.078383,183.19553 C120.837141,182.178821 115.612676,181.074869 110.441898,179.86522 C77.2395352,172.186215 45.527,160.651769 15.7774141,145.750103 C10.4489297,143.102633 5.18923242,140.332688 0,137.458724 L0,0 L126.219313,0 L126.219313,0 Z" id="Path"></path>
                <path d="M415.455686,0 L415.455686,137.457046 C410.266453,140.332688 405.006756,143.11941 399.678271,145.76688 C369.928686,160.668546 338.21615,172.186215 305.013787,179.863543 C299.84301,181.073192 294.635322,182.177143 289.39408,183.193852 C289.34207,183.210629 289.288383,183.210629 289.236373,183.229084 L289.236373,0 L415.455686,0 Z" id="Path"></path>
            </g>
            <g id="Group" transform="translate(237.5437, 683.8341)" fill="#3F3F46">
                <path d="M94.6644844,0 L94.6644844,164.086098 C61.4621211,156.407093 29.7495859,144.872646 0,129.97098 L0,0 L94.6644844,0 L94.6644844,0 Z" id="Path"></path>
                <path d="M383.900857,0 L383.900857,129.989436 C354.151271,144.891101 322.438736,156.40877 289.236373,164.086098 L289.236373,0 L383.900857,0 L383.900857,0 Z" id="Path"></path>
            </g>
            <g id="Group" transform="translate(229.0191, 419.0133)" fill="#D9D9DA">
                <rect id="Rectangle" x="0" y="0" width="106.363326" height="183.930379"></rect>
                <rect id="Rectangle" x="294.581635" y="0" width="106.363326" height="183.930379"></rect>
            </g>
            <g id="Group" transform="translate(242.3236, 432.3194)" fill="#3F3F46">
                <rect id="Rectangle" x="0" y="0" width="79.7712363" height="157.336559"></rect>
                <rect id="Rectangle" x="294.583312" y="0" width="79.7712363" height="157.336559"></rect>
            </g>
            <ellipse id="Oval" fill="#D9D9DA" cx="429.496645" cy="237.275725" rx="53.1355254" ry="53.1356292"></ellipse>
            <ellipse id="Oval" fill="#3F3F46" cx="429.496645" cy="237.275725" rx="33.9170781" ry="33.9171444"></ellipse>
            <rect id="Rectangle" fill="#FFFFFF" x="412.843453" y="0" width="33.3080605" height="140.71689"></rect>
            <g id="Group" transform="translate(283.569, 0.0017)">
                <polygon id="Path" fill="#3F3F46" points="294.942348 93.3862332 162.587561 93.3862332 162.587561 0 294.942348 0 251.11657 46.0538985"></polygon>
                <path d="M17.5205801,320.660964 C17.5205801,319.260053 19.1228164,318.659423 20.7720293,318.659423 C22.3742656,318.659423 24.0251562,319.260053 24.0251562,320.660964 L24.0251562,344.08386 C24.0251562,352.442349 18.7201602,355.544485 12.0125781,355.544485 C5.2563418,355.544485 0,352.442349 0,344.08386 L0,320.660964 C0,319.260053 1.60223633,318.659423 3.25144922,318.659423 C4.85368555,318.659423 6.50457617,319.260053 6.50457617,320.660964 L6.50457617,344.08386 C6.50457617,347.987955 8.55644531,349.8385 12.0092227,349.8385 C15.462,349.8385 17.5155469,347.987955 17.5155469,344.08386 L17.5155469,320.660964 L17.5205801,320.660964 Z" id="Path" fill="#FF7400"></path>
                <path d="M52.1490176,353.192297 L41.3880293,333.072867 L41.3880293,353.192297 C41.3880293,354.544554 39.7371387,355.24417 38.1365801,355.24417 C36.4856895,355.24417 34.8834531,354.542876 34.8834531,353.192297 L34.8834531,320.709619 C34.8834531,319.308708 36.4856895,318.657745 38.1365801,318.657745 C40.4887637,318.657745 41.4400391,319.157711 42.9902656,322.11053 L52.6489824,340.778716 L52.6489824,320.659286 C52.6489824,319.258376 54.2512187,318.657745 55.9004316,318.657745 C57.502668,318.657745 59.1518809,319.258376 59.1518809,320.659286 L59.1518809,353.19062 C59.1518809,354.542876 57.5009902,355.242493 55.9004316,355.242493 C54.3502051,355.242493 52.9996289,354.744205 52.1490176,353.192297 Z" id="Path" fill="#FF7400"></path>
                <path d="M70.1611738,320.660964 C70.1611738,319.260053 71.7634102,318.659423 73.4143008,318.659423 C75.0165371,318.659423 76.66575,319.260053 76.66575,320.660964 L76.66575,353.192297 C76.66575,354.544554 75.0148594,355.24417 73.4143008,355.24417 C71.7634102,355.24417 70.1611738,354.542876 70.1611738,353.192297 L70.1611738,320.660964 Z" id="Path" fill="#FF7400"></path>
                <path d="M85.2255508,321.862224 C85.1768965,321.662574 85.1248867,321.461245 85.1248867,321.360581 C85.1248867,319.758341 87.4770703,318.657745 89.228625,318.657745 C90.3292187,318.657745 91.1798301,319.008393 91.4298125,319.957992 L99.0869922,347.085332 L106.69384,319.957992 C106.943822,319.008393 107.794434,318.657745 108.895027,318.657745 C110.646582,318.657745 112.998766,319.806996 112.998766,321.360581 C112.998766,321.511577 112.950111,321.660896 112.898102,321.862224 L103.289717,353.341616 C102.838406,354.841513 100.987865,355.542808 99.0853145,355.542808 C97.1827637,355.542808 95.380877,354.841513 94.8809121,353.341616 L85.2255508,321.862224 Z" id="Path" fill="#FF7400"></path>
                <path d="M127.962479,334.373114 L135.569326,334.373114 C136.871248,334.373114 137.622873,335.624706 137.622873,336.976963 C137.622873,338.126213 136.971912,339.47847 135.569326,339.47847 L127.962479,339.47847 L127.962479,349.538185 L142.12759,349.538185 C143.427834,349.538185 144.181137,350.890441 144.181137,352.440671 C144.181137,353.792927 143.530176,355.24417 142.12759,355.24417 L124.310051,355.24417 C122.858811,355.24417 121.457902,354.542876 121.457902,353.192297 L121.457902,320.709619 C121.457902,319.357362 122.858811,318.657745 124.310051,318.657745 L142.12759,318.657745 C143.530176,318.657745 144.181137,320.108988 144.181137,321.461245 C144.181137,323.013152 143.429512,324.363731 142.12759,324.363731 L127.962479,324.363731 L127.962479,334.373114 Z" id="Path" fill="#FF7400"></path>
                <path d="M152.984209,320.660964 C152.984209,319.609023 153.83482,318.659423 155.08641,318.659423 L164.995109,318.659423 C171.551695,318.659423 176.858369,321.16093 176.858369,329.120117 C176.858369,334.874758 174.053197,337.978572 170.301783,339.1295 L176.858369,351.29142 C177.05802,351.541403 177.108352,351.892051 177.108352,352.093379 C177.108352,353.744273 174.955818,355.495831 173.053268,355.495831 C172.152324,355.495831 171.301713,354.945533 170.80007,353.943924 L163.693187,340.129432 L159.488785,340.129432 L159.488785,353.19062 C159.488785,354.542876 157.888227,355.242493 156.237336,355.242493 C154.636777,355.242493 152.985887,354.541198 152.985887,353.19062 L152.985887,320.659286 L152.984209,320.659286 L152.984209,320.660964 Z M159.490463,324.365409 L159.490463,335.025754 L164.996787,335.025754 C168.248236,335.025754 170.352115,333.673497 170.352115,329.720748 C170.352115,325.767998 168.249914,324.365409 164.996787,324.365409 L159.490463,324.365409 Z" id="Shape" fill="#FF7400"></path>
                <path d="M201.675416,345.48477 C201.675416,337.978572 185.611109,340.280428 185.611109,328.418823 C185.611109,320.961279 192.016699,318.40944 197.773006,318.40944 C200.727496,318.40944 207.284082,319.110735 207.284082,322.4142 C207.284082,323.565128 206.482125,325.866984 204.680238,325.866984 C203.128334,325.866984 201.979086,323.96443 197.774684,323.96443 C194.17091,323.96443 192.119041,325.415673 192.119041,327.818193 C192.119041,334.024145 208.183348,331.873285 208.183348,344.835486 C208.183348,351.992715 203.178666,355.695482 196.271434,355.695482 C189.714848,355.695482 184.710166,352.392016 184.710166,349.48953 C184.710166,348.088619 186.01041,345.986414 187.562314,345.986414 C189.615861,345.986414 190.96476,349.840177 196.071783,349.840177 C199.07325,349.8385 201.675416,348.486243 201.675416,345.48477 Z" id="Path" fill="#FF7400"></path>
                <path d="M217.637381,320.660964 C217.637381,319.260053 219.237939,318.659423 220.88883,318.659423 C222.491066,318.659423 224.140279,319.260053 224.140279,320.660964 L224.140279,353.192297 C224.140279,354.544554 222.491066,355.24417 220.88883,355.24417 C219.237939,355.24417 217.637381,354.542876 217.637381,353.192297 L217.637381,320.660964 Z" id="Path" fill="#FF7400"></path>
                <path d="M255.971934,318.659423 C257.372842,318.659423 258.023803,320.159321 258.023803,321.561909 C258.023803,323.113817 257.273855,324.514728 255.971934,324.514728 L248.6654,324.514728 L248.6654,353.192297 C248.6654,354.544554 247.01451,355.24417 245.412273,355.24417 C243.763061,355.24417 242.160824,354.542876 242.160824,353.192297 L242.160824,324.514728 L234.805637,324.514728 C233.505393,324.514728 232.75209,323.162471 232.75209,321.561909 C232.75209,320.160998 233.403051,318.659423 234.805637,318.659423 L255.971934,318.659423 Z" id="Path" fill="#FF7400"></path>
                <path d="M274.687061,340.579066 C274.687061,340.329083 274.638406,340.0791 274.536064,339.928103 L264.177732,322.011543 C264.075391,321.76156 264.026736,321.509899 264.026736,321.360581 C264.026736,319.758341 266.57857,318.657745 268.330125,318.657745 C269.382064,318.657745 269.883707,319.057047 270.33334,319.957992 L277.940187,334.421768 L285.597367,319.957992 C286.048678,319.107379 286.498311,318.657745 287.548572,318.657745 C289.300127,318.657745 291.851961,319.758341 291.851961,321.360581 C291.851961,321.511577 291.851961,321.76156 291.702643,322.011543 L281.391287,339.928103 C281.290623,340.0791 281.191637,340.329083 281.191637,340.579066 L281.191637,353.192297 C281.191637,354.544554 279.591078,355.24417 277.940187,355.24417 C276.339629,355.24417 274.688738,354.542876 274.688738,353.192297 L274.688738,340.579066 L274.687061,340.579066 Z" id="Path" fill="#FF7400"></path>
            </g>
            <path d="M568.399629,250.848623 L568.399629,250.848623 C573.258348,242.431413 584.021014,239.54906 592.439885,244.407788 L725.915398,321.469634 C734.332592,326.328362 737.214939,337.091049 732.356221,345.509937 L732.356221,345.509937 C727.497502,353.927146 716.734836,356.8095 708.315965,351.950771 L574.840451,274.888926 C566.424936,270.026842 563.54091,259.265833 568.399629,250.848623 Z" id="Path" fill="#D9D9DA"></path>
        </g>
    </g>
</svg>