<?xml version="1.0" encoding="UTF-8"?>
<svg width="859px" height="898px" viewBox="0 0 859 898" version="1.1" xmlns="http://www.w3.org/2000/svg" xmlns:xlink="http://www.w3.org/1999/xlink">
    <title>woman</title>
    <g id="Page-1" stroke="none" stroke-width="1" fill="none" fill-rule="evenodd">
        <g id="woman" fill-rule="nonzero">
            <path d="M78.4101223,715.844559 L780.588125,715.844559 C829.974861,645.863699 858.998247,560.471266 858.998247,468.289461 C858.998247,230.966652 666.70517,38.5789219 429.499123,38.5789219 C192.293077,38.5789219 0,230.966652 0,468.289461 C0,560.471266 29.0233855,645.863699 78.4101223,715.844559 Z" id="Path" fill="#E26701"></path>
            <path d="M772.439979,696.051727 C745.728858,642.604941 698.848973,627.680953 677.489893,623.576813 C677.489893,623.576813 622.859803,613.59884 574.591508,593.963859 C573.106681,598.711684 569.870563,602.924566 565.123321,605.48527 C532.194155,623.248832 487.779049,637.822039 430.66665,637.822039 C419.035208,637.822039 407.957727,637.190633 397.369345,636.076902 C397.64282,636.692523 397.90227,637.304637 398.191523,637.92552 C386.435614,639.412832 348.785502,645.137582 311.563133,661.113914 C251.922846,686.706914 220.397867,726.804719 220.397867,777.071672 L220.397867,843.70257 C282.278544,878.282586 353.583582,898 429.499123,898 C574.568719,898 702.828381,826.031965 780.588125,715.844559 C778.133864,708.669328 775.428918,702.032547 772.439979,696.051727 L772.439979,696.051727 Z" id="Path" fill="#FFFFFF"></path>
            <path d="M286.457799,593.121984 C237.700405,613.312953 181.508354,623.576813 181.508354,623.576813 C160.147521,627.680953 113.269389,642.604941 86.5582678,696.051727 C83.5693289,702.032547 80.8661361,708.669328 78.4101223,715.844559 C116.054975,769.187863 165.534623,813.572215 223.027432,845.172344 C223.027432,827.143941 223.027432,804.778129 223.027432,777.071672 C223.027432,656.908047 402.170931,640.112641 402.170931,640.112641 C401.539835,638.856844 400.956072,637.623848 400.393345,636.401375 C357.575261,632.334066 323.052579,619.967273 296.183684,605.465977 C291.162968,602.754438 287.811149,598.206559 286.457799,593.121984 L286.457799,593.121984 Z" id="Path" fill="#B2B2B5"></path>
            <path d="M577.207049,578.99427 L543.545111,524.900293 C538.808388,517.28834 529.703081,513.673539 521.011492,515.86066 C494.738631,522.474641 463.902599,527.468012 430.66665,527.468012 C427.202637,527.468012 423.771931,527.401363 420.362262,527.296129 L420.362262,556.072469 C415.281942,558.591078 399.807828,567.534246 393.002514,585.862566 C387.394529,600.968961 389.14056,618.467684 398.189769,637.923766 C396.382382,638.151773 393.957923,638.481508 391.023328,638.934016 C403.52428,640.461668 416.715931,641.328098 430.664897,641.328098 C489.667077,641.328098 535.551233,626.27432 569.569039,607.923199 C579.982117,602.307191 583.458401,589.040645 577.207049,578.99427 L577.207049,578.99427 Z" id="Path" fill="#D9D9DA"></path>
            <path d="M340.300772,515.844875 C331.607431,513.654246 322.50037,517.269047 317.761894,524.882754 L284.103462,578.973223 C277.85211,589.019598 281.326642,602.282637 291.737966,607.902152 C320.067146,623.190953 356.654914,636.159336 402.15866,640.082824 C371.552276,579.127566 422.991827,557.750957 422.991827,557.750957 L422.991827,527.369793 C392.68346,526.675246 364.548868,521.955484 340.300772,515.844875 Z" id="Path" fill="#8C8C90"></path>
            <path d="M584.930958,495.685477 C573.099668,454.226641 568.194653,421.861809 567.132309,396.852859 C558.146209,429.294863 546.402571,458.02034 532.097738,482.510133 C523.84441,496.643109 513.599624,509.299297 501.701719,520.266473 C483.927613,624.011781 517.163562,702.16409 543.318968,744.871707 C548.830536,753.871 563.517533,750.096594 563.375537,739.704699 C562.199245,653.696645 616.789014,607.319855 584.930958,495.685477 L584.930958,495.685477 Z" id="Path" fill="#3F3F46"></path>
            <path d="M430.647367,69.0688281 C458.215726,69.0688281 481.603078,74.3779023 501.289754,82.5581211 C501.845469,78.9626133 502.138227,75.2776563 502.138227,71.5260508 C502.136474,32.0228203 470.129409,0 430.647367,0 C391.165325,0 359.156507,32.0228203 359.156507,71.5260508 C359.156507,75.2776563 359.449265,78.9608594 360.00498,82.5581211 C379.691656,74.3779023 403.079007,69.0688281 430.647367,69.0688281 Z" id="Path" fill="#4F4F57"></path>
            <path d="M430.647367,53.9150781 C402.549588,25.8034688 430.647367,0 430.647367,0 C391.165325,0 359.156507,32.0228203 359.156507,71.5260508 C359.156507,75.2776563 359.449265,78.9608594 360.00498,82.5581211 C379.691656,74.3779023 403.079007,69.070582 430.647367,69.070582 L430.647367,53.9150781 Z" id="Path" fill="#3F3F46"></path>
            <path d="M347.512793,92.9517695 C369.571337,81.5654102 397.001206,73.6640625 430.647367,73.6640625 C464.293528,73.6640625 491.723397,81.5654102 513.781941,92.9535234 C517.699993,94.9757773 521.481307,97.1751758 525.148674,99.509625 C503.007737,71.7347656 468.916303,53.9150781 430.647367,53.9150781 C392.378431,53.9150781 358.286997,71.7330117 336.14606,99.5078711 C339.811673,97.1734219 343.594741,94.9740234 347.512793,92.9517695 Z" id="Path" fill="#FFFFFF"></path>
            <path d="M290.938578,292.612949 C292.938801,286.065617 295.675301,280.396992 299.375976,276.224449 C302.706758,272.469336 304.796386,267.823238 304.945394,262.852668 C305.811398,233.81675 316.966013,139.744234 424.089232,180.829488 C428.298289,182.443082 432.996445,182.443082 437.205502,180.829488 C544.328721,139.744234 555.483336,233.81675 556.349339,262.852668 C556.498348,267.823238 558.587976,272.469336 561.918758,276.224449 C565.619432,280.396992 568.355933,286.065617 570.356156,292.612949 L570.356156,292.612949 C575.783578,288.991133 584.210457,286.495324 591.82743,286.674223 L591.82743,286.651422 L591.82743,216.177715 C591.82743,162.773023 562.071273,113.279543 513.781941,88.3547813 C491.723397,76.9684219 464.293528,69.0670742 430.647367,69.0670742 C397.001206,69.0670742 369.571337,76.9684219 347.512793,88.3547813 C299.223461,113.279543 269.467303,162.773023 269.467303,216.177715 L269.467303,286.651422 L269.467303,286.674223 C277.084277,286.497078 285.511156,288.992887 290.938578,292.612949 Z" id="Path" fill="#4F4F57"></path>
            <path d="M430.647367,69.0688281 C397.001206,69.0688281 369.571337,76.9701758 347.512793,88.3565352 C299.223461,113.281297 269.467303,162.774777 269.467303,216.179469 L269.467303,286.653176 L269.469056,286.675977 C277.08603,286.497078 285.511156,288.994641 290.938578,292.612949 C292.938801,286.065617 295.675301,280.396992 299.375976,276.224449 C302.706758,272.469336 304.796386,267.823238 304.945394,262.852668 C305.79562,234.374492 316.554047,143.346758 418.039479,178.628336 C417.615243,178.074102 417.208537,177.516359 416.749239,176.969141 C369.133076,120.265352 430.647367,69.0688281 430.647367,69.0688281 Z" id="Path" fill="#3F3F46"></path>
            <path d="M289.611524,376.339172 C289.611524,376.339172 280.869097,320.984137 290.938578,288.017715 C281.801716,281.924645 264.150323,278.95002 256.212543,286.714562 C239.958325,302.611969 251.868501,326.619437 257.567645,341.783711 C259.317182,346.440332 260.446142,351.14957 260.956278,355.867578 C262.065954,366.11916 267.621349,381.123828 290.656338,380.771293 C290.307483,379.294504 289.951615,377.840516 289.611524,376.339172 L289.611524,376.339172 Z" id="Path" fill="#FC9460"></path>
            <path d="M605.082191,286.714563 C597.142658,278.95002 579.491264,281.924645 570.356156,288.017715 C580.425636,320.984137 571.683209,376.339172 571.683209,376.339172 C571.343119,377.840516 570.987251,379.294504 570.638396,380.771293 C593.675138,381.125582 599.230532,366.120914 600.340209,355.867578 C600.850344,351.14957 601.979304,346.440332 603.728842,341.783711 C609.426232,326.619438 621.336409,302.611969 605.082191,286.714563 L605.082191,286.714563 Z" id="Path" fill="#FFAA7B"></path>
            <path d="M562.777749,270.866266 C559.459238,267.12343 557.632567,262.750941 557.497583,258.222355 C556.983941,240.984965 552.632887,198.796504 523.409655,179.326391 C502.679918,165.516133 473.539078,165.659953 436.79529,179.757852 C432.829906,181.278488 428.463075,181.278488 424.499444,179.757852 C420.044961,178.049547 415.706179,176.555219 411.476085,175.255574 C381.730446,195.21152 377.29174,238.236594 376.76758,255.833535 C376.629089,260.467355 374.763851,264.936309 371.366453,268.763332 C352.652716,289.862824 356.751331,351.505613 361.116409,376.882883 C370.786196,419.583484 384.793012,456.81716 402.74067,487.550859 C417.585441,512.968469 438.679811,533.74875 464.354884,548.542949 C492.87164,533.938172 516.160821,512.096777 532.097738,484.805996 C549.645702,454.761582 563.342229,418.352242 572.817428,376.516316 C576.91955,350.430469 581.288134,291.735996 562.777749,270.866266 Z" id="Path" fill="#FFC7AB"></path>
            <path d="M404.188684,484.80775 C386.637214,454.754566 372.940686,418.34698 363.486524,376.591734 C359.21611,351.775715 355.210406,291.499219 373.508672,270.866266 C376.830689,267.12343 378.655608,262.752695 378.790592,258.222355 C379.304234,240.984965 383.655287,198.792996 412.87852,179.324637 C414.135452,178.48627 415.427445,177.704027 416.747486,176.969141 C383.643016,165.733617 357.131742,166.505336 337.885079,179.324637 C308.660093,198.79475 304.310793,240.984965 303.797151,258.222355 C303.662167,262.752695 301.837249,267.12343 298.515231,270.866266 C280.215212,291.497465 284.222669,351.775715 288.493083,376.591734 C297.948998,418.34698 311.645526,454.754566 329.195243,484.80775 C347.013175,515.316949 373.997771,539.045547 407.228461,553.429332 C422.113552,559.869676 439.181182,559.87143 454.062767,553.429332 C458.89766,551.336922 463.581792,549.02352 468.141458,546.543496 C441.351449,531.973797 419.415618,510.877812 404.188684,484.80775 Z" id="Path" fill="#FFAA7B"></path>
            <path d="M692.680013,128.706902 C664.587494,151.632211 636.309152,188.423902 652.975335,237.226344 C682.720974,324.33059 604.940194,443.292789 692.332911,530.728523 C743.761943,582.182871 805.237667,579.727402 847.131897,568.99525 C854.88736,536.693559 859,502.972957 859,468.289461 C859,330.188637 793.869181,207.320488 692.680013,128.706902 Z" id="Path" fill="#FF7400"></path>
            <path d="M166.318233,128.706902 C194.410753,151.632211 222.689095,188.423902 206.022912,237.226344 C176.277273,324.33059 254.058052,443.292789 166.665336,530.728523 C115.236304,582.182871 53.76058,579.727402 11.8663503,568.99525 C4.11088662,536.693559 0,502.972957 0,468.289461 C0,330.188637 65.129066,207.320488 166.318233,128.706902 Z" id="Path" fill="#FF7400"></path>
            <path d="M720.711176,784.111852 C712.06692,749.500266 690.628953,729.425055 673.249281,718.43157 C662.291007,711.500133 648.001951,719.301508 648.001951,732.273398 L648.001951,838.297031 C674.150345,822.804777 698.512389,804.613262 720.711176,784.111852 Z" id="Path" fill="#D9D9DA"></path>
            <path d="M536.238426,558.25959 C536.238426,605.199383 543.978112,650.976336 577.349045,656.650223 C590.449538,611.401195 605.218928,566.774805 584.930958,495.685477 C584.441859,493.97191 583.982561,492.29693 583.516252,490.61318 C561.829353,502.245086 536.238426,523.360363 536.238426,558.25959 L536.238426,558.25959 Z" id="Path" fill="#4F4F57"></path>
        </g>
    </g>
</svg>